STARTFONT 2.1
COMMENT $XConsortium: helvBO12.bdf,v 1.13 95/01/26 18:02:02 gildea Exp $
COMMENT 
COMMENT +
COMMENT  Copyright 1984-1989, 1994 Adobe Systems Incorporated.
COMMENT  Copyright 1988, 1994 Digital Equipment Corporation.
COMMENT 
COMMENT  Adobe is a trademark of Adobe Systems Incorporated which may be
COMMENT  registered in certain jurisdictions.
COMMENT  Permission to use these trademarks is hereby granted only in
COMMENT  association with the images described in this file.
COMMENT 
COMMENT  Permission to use, copy, modify, distribute and sell this software
COMMENT  and its documentation for any purpose and without fee is hereby
COMMENT  granted, provided that the above copyright notices appear in all
COMMENT  copies and that both those copyright notices and this permission
COMMENT  notice appear in supporting documentation, and that the names of
COMMENT  Adobe Systems and Digital Equipment Corporation not be used in
COMMENT  advertising or publicity pertaining to distribution of the software
COMMENT  without specific, written prior permission.  Adobe Systems and
COMMENT  Digital Equipment Corporation make no representations about the
COMMENT  suitability of this software for any purpose.  It is provided "as
COMMENT  is" without express or implied warranty.
COMMENT -
FONT -Adobe-Helvetica-Bold-O-Normal--12-120-75-75-P-69-ISO10646-1
SIZE 12 75 75
FONTBOUNDINGBOX 16 15 -2 -3
STARTPROPERTIES 29
FOUNDRY "Adobe"
FAMILY_NAME "Helvetica"
WEIGHT_NAME "Bold"
SLANT "O"
SETWIDTH_NAME "Normal"
ADD_STYLE_NAME ""
PIXEL_SIZE 12
POINT_SIZE 120
RESOLUTION_X 75
RESOLUTION_Y 75
SPACING "P"
AVERAGE_WIDTH 69
CHARSET_REGISTRY "ISO10646"
CHARSET_ENCODING "1"
CAP_HEIGHT 9
X_HEIGHT 7
FONT_ASCENT 11
FONT_DESCENT 3
FACE_NAME "Helvetica Bold Oblique"
COPYRIGHT "Copyright (c) 1984, 1987 Adobe Systems Incorporated. All Rights Reserved. Copyright (c) 1988, 1991 Digital Equipment Corporation. All Rights Reserved."
NOTICE "Helvetica is a trademark of Linotype-Hell AG and/or its subsidiaries.  "
_DEC_DEVICE_FONTNAMES "PS=Helvetica-BoldOblique"
_DEC_PRODUCTINFO "DECwindows Fonts V2.2, 07-Nov-1991"
DEFAULT_CHAR 32
RELATIVE_SETWIDTH 50
RELATIVE_WEIGHT 70
CHARSET_COLLECTIONS "ASCII ISO8859-1 ADOBE-STANDARD"
FULL_NAME "Helvetica Bold Oblique"
_XMBDFED_INFO "Edited with xmbdfed 4.5."
ENDPROPERTIES
CHARS 284
STARTCHAR Lslash
ENCODING -1
SWIDTH 560 0
DWIDTH 7 0
BBX 6 9 1 0
BITMAP
18
18
30
38
E0
60
60
C0
FC
ENDCHAR
STARTCHAR OE
ENCODING -1
SWIDTH 880 0
DWIDTH 11 0
BBX 13 9 1 0
BITMAP
0FF8
3980
3300
6300
67E0
C600
C600
CC00
7FC0
ENDCHAR
STARTCHAR Scaron
ENCODING -1
SWIDTH 640 0
DWIDTH 8 0
BBX 8 10 1 0
BITMAP
1B
0E
04
1E
33
31
1C
86
C6
7C
ENDCHAR
STARTCHAR Ydieresis
ENCODING -1
SWIDTH 640 0
DWIDTH 8 0
BBX 7 9 3 0
BITMAP
6C
00
C6
CC
D8
70
60
C0
C0
ENDCHAR
STARTCHAR Zcaron
ENCODING -1
SWIDTH 560 0
DWIDTH 7 0
BBX 9 10 0 0
BITMAP
1B00
0E00
0400
3F80
0300
0600
1C00
3000
6000
FE00
ENDCHAR
STARTCHAR breve
ENCODING -1
SWIDTH 320 0
DWIDTH 4 0
BBX 5 2 2 7
BITMAP
D8
70
ENDCHAR
STARTCHAR bullet
ENCODING -1
SWIDTH 480 0
DWIDTH 6 0
BBX 4 3 1 2
BITMAP
70
F0
E0
ENDCHAR
STARTCHAR caron
ENCODING -1
SWIDTH 400 0
DWIDTH 5 0
BBX 5 3 3 6
BITMAP
D8
70
20
ENDCHAR
STARTCHAR circumflex
ENCODING -1
SWIDTH 400 0
DWIDTH 5 0
BBX 5 3 2 7
BITMAP
20
70
D8
ENDCHAR
STARTCHAR dagger
ENCODING -1
SWIDTH 560 0
DWIDTH 7 0
BBX 7 12 1 -3
BITMAP
0C
0C
18
7E
18
30
30
60
60
60
C0
C0
ENDCHAR
STARTCHAR daggerdbl
ENCODING -1
SWIDTH 560 0
DWIDTH 7 0
BBX 8 12 0 -3
BITMAP
06
06
0C
3F
0C
18
18
30
FC
30
60
60
ENDCHAR
STARTCHAR dotaccent
ENCODING -1
SWIDTH 240 0
DWIDTH 3 0
BBX 2 1 3 8
BITMAP
C0
ENDCHAR
STARTCHAR dotlessi
ENCODING -1
SWIDTH 240 0
DWIDTH 3 0
BBX 4 7 0 0
BITMAP
30
30
60
60
60
C0
C0
ENDCHAR
STARTCHAR ellipsis
ENCODING -1
SWIDTH 960 0
DWIDTH 12 0
BBX 10 1 1 0
BITMAP
CCC0
ENDCHAR
STARTCHAR emdash
ENCODING -1
SWIDTH 960 0
DWIDTH 12 0
BBX 12 1 1 3
BITMAP
FFF0
ENDCHAR
STARTCHAR endash
ENCODING -1
SWIDTH 560 0
DWIDTH 7 0
BBX 7 1 1 3
BITMAP
FE
ENDCHAR
STARTCHAR fi
ENCODING -1
SWIDTH 640 0
DWIDTH 8 0
BBX 10 9 0 0
BITMAP
0EC0
1800
7D80
3300
3300
6600
6600
CC00
CC00
ENDCHAR
STARTCHAR fl
ENCODING -1
SWIDTH 640 0
DWIDTH 8 0
BBX 10 9 0 0
BITMAP
0EC0
1980
7D80
3300
3300
6600
6600
CC00
CC00
ENDCHAR
STARTCHAR florin
ENCODING 402
SWIDTH 480 0
DWIDTH 6 0
BBX 7 11 0 -3
BITMAP
0E
18
18
7C
30
30
30
60
60
60
C0
ENDCHAR
STARTCHAR fraction
ENCODING -1
SWIDTH 400 0
DWIDTH 5 0
BBX 8 8 -1 0
BITMAP
03
06
0C
18
10
30
60
C0
ENDCHAR
STARTCHAR grave
ENCODING -1
SWIDTH 320 0
DWIDTH 4 0
BBX 3 2 3 7
BITMAP
C0
60
ENDCHAR
STARTCHAR guilsinglleft
ENCODING -1
SWIDTH 480 0
DWIDTH 6 0
BBX 5 5 1 1
BITMAP
18
70
C0
60
30
ENDCHAR
STARTCHAR guilsinglright
ENCODING -1
SWIDTH 480 0
DWIDTH 6 0
BBX 5 5 1 1
BITMAP
60
30
18
70
C0
ENDCHAR
STARTCHAR hungarumlaut
ENCODING -1
SWIDTH 400 0
DWIDTH 5 0
BBX 6 2 2 7
BITMAP
6C
D8
ENDCHAR
STARTCHAR lslash
ENCODING -1
SWIDTH 240 0
DWIDTH 3 0
BBX 5 9 0 0
BITMAP
18
18
30
38
E0
60
60
C0
C0
ENDCHAR
STARTCHAR oe
ENCODING -1
SWIDTH 880 0
DWIDTH 11 0
BBX 12 7 0 0
BITMAP
1DE0
3330
6230
67E0
C600
CCC0
7F80
ENDCHAR
STARTCHAR ogonek
ENCODING -1
SWIDTH 320 0
DWIDTH 4 0
BBX 3 4 0 -3
BITMAP
60
C0
80
E0
ENDCHAR
STARTCHAR perthousand
ENCODING -1
SWIDTH 1120 0
DWIDTH 14 0
BBX 13 8 1 0
BITMAP
3180
6B00
3600
0C00
1800
3630
6D68
C630
ENDCHAR
STARTCHAR quotedblbase
ENCODING -1
SWIDTH 400 0
DWIDTH 5 0
BBX 6 3 -1 -1
BITMAP
6C
6C
D8
ENDCHAR
STARTCHAR quotedblleft
ENCODING -1
SWIDTH 480 0
DWIDTH 6 0
BBX 6 3 2 6
BITMAP
6C
D8
D8
ENDCHAR
STARTCHAR quotedblright
ENCODING -1
SWIDTH 480 0
DWIDTH 6 0
BBX 6 3 2 6
BITMAP
6C
6C
D8
ENDCHAR
STARTCHAR quotesinglbase
ENCODING -1
SWIDTH 160 0
DWIDTH 2 0
BBX 3 3 -1 -1
BITMAP
60
60
C0
ENDCHAR
STARTCHAR quotesingle
ENCODING -1
SWIDTH 320 0
DWIDTH 4 0
BBX 4 3 2 6
BITMAP
30
60
C0
ENDCHAR
STARTCHAR ring
ENCODING -1
SWIDTH 400 0
DWIDTH 5 0
BBX 5 3 2 6
BITMAP
70
D8
70
ENDCHAR
STARTCHAR scaron
ENCODING -1
SWIDTH 560 0
DWIDTH 7 0
BBX 8 10 0 0
BITMAP
1B
0E
04
1E
33
38
1C
0C
CC
78
ENDCHAR
STARTCHAR tilde
ENCODING -1
SWIDTH 400 0
DWIDTH 5 0
BBX 5 2 3 7
BITMAP
68
B0
ENDCHAR
STARTCHAR trademark
ENCODING -1
SWIDTH 880 0
DWIDTH 11 0
BBX 9 5 3 3
BITMAP
E880
4D80
4A80
9500
9500
ENDCHAR
STARTCHAR zcaron
ENCODING -1
SWIDTH 480 0
DWIDTH 6 0
BBX 7 10 0 0
BITMAP
36
1C
08
3E
06
0C
38
60
C0
F8
ENDCHAR
STARTCHAR space
ENCODING 32
SWIDTH 320 0
DWIDTH 4 0
BBX 0 0 0 0
BITMAP
ENDCHAR
STARTCHAR exclam
ENCODING 33
SWIDTH 320 0
DWIDTH 4 0
BBX 5 9 1 0
BITMAP
18
18
30
30
60
40
00
C0
C0
ENDCHAR
STARTCHAR quotedbl
ENCODING 34
SWIDTH 480 0
DWIDTH 6 0
BBX 7 3 2 6
BITMAP
36
6C
D8
ENDCHAR
STARTCHAR numbersign
ENCODING 35
SWIDTH 560 0
DWIDTH 7 0
BBX 7 8 1 0
BITMAP
14
14
7E
28
28
FC
50
50
ENDCHAR
STARTCHAR dollar
ENCODING 36
SWIDTH 560 0
DWIDTH 7 0
BBX 7 10 1 -1
BITMAP
08
3C
6E
70
38
1C
2C
EC
78
40
ENDCHAR
STARTCHAR percent
ENCODING 37
SWIDTH 1040 0
DWIDTH 13 0
BBX 11 9 2 0
BITMAP
70C0
D980
DB00
7600
0600
0DC0
1B60
3360
61C0
ENDCHAR
STARTCHAR ampersand
ENCODING 38
SWIDTH 720 0
DWIDTH 9 0
BBX 8 9 1 0
BITMAP
1C
36
36
1C
39
6F
C6
CE
7B
ENDCHAR
STARTCHAR quoteright
ENCODING 39
SWIDTH 320 0
DWIDTH 4 0
BBX 3 3 3 6
BITMAP
60
60
C0
ENDCHAR
STARTCHAR parenleft
ENCODING 40
SWIDTH 400 0
DWIDTH 5 0
BBX 6 12 0 -3
BITMAP
0C
18
30
30
60
60
C0
C0
C0
60
60
30
ENDCHAR
STARTCHAR parenright
ENCODING 41
SWIDTH 400 0
DWIDTH 5 0
BBX 6 12 0 -3
BITMAP
30
18
18
0C
0C
0C
18
18
30
30
60
C0
ENDCHAR
STARTCHAR asterisk
ENCODING 42
SWIDTH 480 0
DWIDTH 6 0
BBX 4 4 3 5
BITMAP
50
60
F0
40
ENDCHAR
STARTCHAR plus
ENCODING 43
SWIDTH 640 0
DWIDTH 8 0
BBX 7 5 1 1
BITMAP
18
18
FE
30
30
ENDCHAR
STARTCHAR comma
ENCODING 44
SWIDTH 240 0
DWIDTH 3 0
BBX 2 4 0 -2
BITMAP
C0
C0
40
80
ENDCHAR
STARTCHAR minus
ENCODING 45
SWIDTH 640 0
DWIDTH 8 0
BBX 6 1 2 3
BITMAP
FC
ENDCHAR
STARTCHAR period
ENCODING 46
SWIDTH 240 0
DWIDTH 3 0
BBX 2 2 0 0
BITMAP
C0
C0
ENDCHAR
STARTCHAR slash
ENCODING 47
SWIDTH 400 0
DWIDTH 5 0
BBX 7 9 0 0
BITMAP
02
06
0C
18
10
30
60
C0
80
ENDCHAR
STARTCHAR zero
ENCODING 48
SWIDTH 560 0
DWIDTH 7 0
BBX 7 9 1 0
BITMAP
3C
66
66
46
C6
C4
CC
CC
78
ENDCHAR
STARTCHAR one
ENCODING 49
SWIDTH 560 0
DWIDTH 7 0
BBX 5 9 2 0
BITMAP
18
F8
30
60
60
60
C0
C0
C0
ENDCHAR
STARTCHAR two
ENCODING 50
SWIDTH 560 0
DWIDTH 7 0
BBX 7 9 1 0
BITMAP
3C
66
06
0C
18
30
60
C0
F8
ENDCHAR
STARTCHAR three
ENCODING 51
SWIDTH 560 0
DWIDTH 7 0
BBX 7 9 1 0
BITMAP
3C
66
06
06
3C
0C
0C
CC
78
ENDCHAR
STARTCHAR four
ENCODING 52
SWIDTH 560 0
DWIDTH 7 0
BBX 7 9 1 0
BITMAP
06
0E
16
26
4C
CC
FE
18
18
ENDCHAR
STARTCHAR five
ENCODING 53
SWIDTH 560 0
DWIDTH 7 0
BBX 7 9 1 0
BITMAP
1E
30
60
78
0C
0C
0C
D8
70
ENDCHAR
STARTCHAR six
ENCODING 54
SWIDTH 560 0
DWIDTH 7 0
BBX 7 9 1 0
BITMAP
1C
36
60
78
EC
CC
C4
CC
78
ENDCHAR
STARTCHAR seven
ENCODING 55
SWIDTH 560 0
DWIDTH 7 0
BBX 7 9 1 0
BITMAP
7E
06
0C
0C
18
30
30
60
C0
ENDCHAR
STARTCHAR eight
ENCODING 56
SWIDTH 560 0
DWIDTH 7 0
BBX 7 9 1 0
BITMAP
3C
66
66
2C
78
CC
CC
DC
78
ENDCHAR
STARTCHAR nine
ENCODING 57
SWIDTH 560 0
DWIDTH 7 0
BBX 7 9 1 0
BITMAP
3C
66
46
66
6E
3C
0C
D8
70
ENDCHAR
STARTCHAR colon
ENCODING 58
SWIDTH 320 0
DWIDTH 4 0
BBX 4 7 1 0
BITMAP
30
30
00
00
00
C0
C0
ENDCHAR
STARTCHAR semicolon
ENCODING 59
SWIDTH 320 0
DWIDTH 4 0
BBX 4 9 1 -2
BITMAP
30
30
00
00
00
C0
C0
40
80
ENDCHAR
STARTCHAR less
ENCODING 60
SWIDTH 560 0
DWIDTH 7 0
BBX 6 5 2 1
BITMAP
1C
70
C0
60
30
ENDCHAR
STARTCHAR equal
ENCODING 61
SWIDTH 560 0
DWIDTH 7 0
BBX 6 3 1 2
BITMAP
7C
00
F8
ENDCHAR
STARTCHAR greater
ENCODING 62
SWIDTH 560 0
DWIDTH 7 0
BBX 6 5 1 1
BITMAP
30
18
0C
38
E0
ENDCHAR
STARTCHAR question
ENCODING 63
SWIDTH 640 0
DWIDTH 8 0
BBX 6 9 3 0
BITMAP
78
CC
9C
38
60
40
00
C0
C0
ENDCHAR
STARTCHAR at
ENCODING 64
SWIDTH 880 0
DWIDTH 11 0
BBX 11 10 1 -1
BITMAP
0F80
3040
6020
46A0
8920
9120
9240
4D80
6000
1E00
ENDCHAR
STARTCHAR A
ENCODING 65
SWIDTH 640 0
DWIDTH 8 0
BBX 8 9 0 0
BITMAP
06
0E
0B
1B
33
3F
63
C3
C3
ENDCHAR
STARTCHAR B
ENCODING 66
SWIDTH 720 0
DWIDTH 9 0
BBX 9 9 1 0
BITMAP
1F00
1980
3180
3300
7E00
6300
6300
C600
FC00
ENDCHAR
STARTCHAR C
ENCODING 67
SWIDTH 640 0
DWIDTH 8 0
BBX 8 9 1 0
BITMAP
1E
33
63
60
C0
C0
C6
CC
78
ENDCHAR
STARTCHAR D
ENCODING 68
SWIDTH 720 0
DWIDTH 9 0
BBX 9 9 1 0
BITMAP
1F00
1980
3180
3180
6180
6300
6300
C600
FC00
ENDCHAR
STARTCHAR E
ENCODING 69
SWIDTH 640 0
DWIDTH 8 0
BBX 9 9 1 0
BITMAP
1F80
1800
3000
3000
7E00
6000
6000
C000
FC00
ENDCHAR
STARTCHAR F
ENCODING 70
SWIDTH 560 0
DWIDTH 7 0
BBX 9 9 1 0
BITMAP
1F80
1800
3000
3000
7E00
6000
6000
C000
C000
ENDCHAR
STARTCHAR G
ENCODING 71
SWIDTH 720 0
DWIDTH 9 0
BBX 9 9 1 0
BITMAP
0F00
3980
3180
6000
6700
C300
C600
CE00
7A00
ENDCHAR
STARTCHAR H
ENCODING 72
SWIDTH 800 0
DWIDTH 10 0
BBX 10 9 1 0
BITMAP
18C0
18C0
3180
3180
7F00
6300
6300
C600
C600
ENDCHAR
STARTCHAR I
ENCODING 73
SWIDTH 560 0
DWIDTH 7 0
BBX 7 9 0 0
BITMAP
1E
0C
18
18
30
30
30
60
F0
ENDCHAR
STARTCHAR J
ENCODING 74
SWIDTH 560 0
DWIDTH 7 0
BBX 9 9 0 0
BITMAP
0180
0180
0300
0300
0600
0600
C600
CC00
7800
ENDCHAR
STARTCHAR K
ENCODING 75
SWIDTH 720 0
DWIDTH 9 0
BBX 10 9 1 0
BITMAP
18C0
1980
3300
3600
3C00
6600
6600
C300
C300
ENDCHAR
STARTCHAR L
ENCODING 76
SWIDTH 560 0
DWIDTH 7 0
BBX 6 9 1 0
BITMAP
18
18
30
30
60
60
60
C0
FC
ENDCHAR
STARTCHAR M
ENCODING 77
SWIDTH 960 0
DWIDTH 12 0
BBX 12 9 1 0
BITMAP
1830
1870
38E0
38E0
6940
6AC0
6EC0
CD80
C980
ENDCHAR
STARTCHAR N
ENCODING 78
SWIDTH 800 0
DWIDTH 10 0
BBX 10 9 1 0
BITMAP
18C0
18C0
3980
2980
6980
6500
6700
C600
C600
ENDCHAR
STARTCHAR O
ENCODING 79
SWIDTH 720 0
DWIDTH 9 0
BBX 9 9 1 0
BITMAP
0F00
3980
3180
6180
6300
C300
C600
CE00
7800
ENDCHAR
STARTCHAR P
ENCODING 80
SWIDTH 640 0
DWIDTH 8 0
BBX 9 9 1 0
BITMAP
1F00
1980
3180
3300
7E00
6000
6000
C000
C000
ENDCHAR
STARTCHAR Q
ENCODING 81
SWIDTH 720 0
DWIDTH 9 0
BBX 9 9 1 0
BITMAP
0F00
3980
3180
6180
6300
C300
DE00
CE00
7B00
ENDCHAR
STARTCHAR R
ENCODING 82
SWIDTH 720 0
DWIDTH 9 0
BBX 9 9 1 0
BITMAP
1F00
1980
3180
3300
7E00
6300
6300
C600
C600
ENDCHAR
STARTCHAR S
ENCODING 83
SWIDTH 640 0
DWIDTH 8 0
BBX 8 9 1 0
BITMAP
1E
33
63
70
3C
0E
C6
CC
78
ENDCHAR
STARTCHAR T
ENCODING 84
SWIDTH 560 0
DWIDTH 7 0
BBX 8 9 2 0
BITMAP
FF
18
30
30
60
60
60
C0
C0
ENDCHAR
STARTCHAR U
ENCODING 85
SWIDTH 640 0
DWIDTH 8 0
BBX 9 9 1 0
BITMAP
3180
3180
6300
6300
6300
C600
C600
CC00
7800
ENDCHAR
STARTCHAR V
ENCODING 86
SWIDTH 720 0
DWIDTH 9 0
BBX 8 9 3 0
BITMAP
C3
C3
C6
C6
CC
CC
58
70
60
ENDCHAR
STARTCHAR W
ENCODING 87
SWIDTH 800 0
DWIDTH 10 0
BBX 10 9 2 0
BITMAP
CCC0
CCC0
CD80
DD80
DD00
ED00
EE00
4400
4400
ENDCHAR
STARTCHAR X
ENCODING 88
SWIDTH 720 0
DWIDTH 9 0
BBX 10 9 1 0
BITMAP
30C0
3180
1B00
1E00
0C00
1E00
3600
6300
C300
ENDCHAR
STARTCHAR Y
ENCODING 89
SWIDTH 560 0
DWIDTH 7 0
BBX 7 9 2 0
BITMAP
C6
C6
6C
6C
38
30
30
60
60
ENDCHAR
STARTCHAR Z
ENCODING 90
SWIDTH 560 0
DWIDTH 7 0
BBX 9 9 0 0
BITMAP
3F80
0300
0600
0C00
1800
3000
6000
C000
FE00
ENDCHAR
STARTCHAR bracketleft
ENCODING 91
SWIDTH 320 0
DWIDTH 4 0
BBX 8 12 -1 -3
BITMAP
0F
0C
18
18
30
30
30
60
60
60
C0
F0
ENDCHAR
STARTCHAR backslash
ENCODING 92
SWIDTH 400 0
DWIDTH 5 0
BBX 3 9 2 0
BITMAP
C0
C0
C0
40
40
40
60
60
60
ENDCHAR
STARTCHAR bracketright
ENCODING 93
SWIDTH 320 0
DWIDTH 4 0
BBX 8 12 -2 -3
BITMAP
0F
03
06
06
0C
0C
0C
18
18
18
30
F0
ENDCHAR
STARTCHAR asciicircum
ENCODING 94
SWIDTH 480 0
DWIDTH 6 0
BBX 6 6 1 3
BITMAP
18
38
6C
6C
CC
CC
ENDCHAR
STARTCHAR underscore
ENCODING 95
SWIDTH 560 0
DWIDTH 7 0
BBX 7 1 -1 -3
BITMAP
FE
ENDCHAR
STARTCHAR quoteleft
ENCODING 96
SWIDTH 320 0
DWIDTH 4 0
BBX 3 3 3 6
BITMAP
60
C0
C0
ENDCHAR
STARTCHAR a
ENCODING 97
SWIDTH 480 0
DWIDTH 6 0
BBX 7 7 0 0
BITMAP
3C
66
06
7C
CC
98
EC
ENDCHAR
STARTCHAR b
ENCODING 98
SWIDTH 560 0
DWIDTH 7 0
BBX 8 9 0 0
BITMAP
18
18
36
3B
63
66
C6
CC
F8
ENDCHAR
STARTCHAR c
ENCODING 99
SWIDTH 560 0
DWIDTH 7 0
BBX 8 7 0 0
BITMAP
1E
33
60
60
C6
CC
78
ENDCHAR
STARTCHAR d
ENCODING 100
SWIDTH 560 0
DWIDTH 7 0
BBX 9 9 0 0
BITMAP
0180
0180
1B00
3700
6300
6600
C600
CC00
7C00
ENDCHAR
STARTCHAR e
ENCODING 101
SWIDTH 560 0
DWIDTH 7 0
BBX 8 7 0 0
BITMAP
1E
33
63
7E
C0
CC
78
ENDCHAR
STARTCHAR f
ENCODING 102
SWIDTH 400 0
DWIDTH 5 0
BBX 7 9 1 0
BITMAP
0E
18
7C
30
30
60
60
C0
C0
ENDCHAR
STARTCHAR g
ENCODING 103
SWIDTH 560 0
DWIDTH 7 0
BBX 9 10 -1 -3
BITMAP
0E80
1B80
3180
3300
6300
6600
3E00
0600
CC00
7800
ENDCHAR
STARTCHAR h
ENCODING 104
SWIDTH 560 0
DWIDTH 7 0
BBX 8 9 0 0
BITMAP
18
18
36
3B
63
66
66
CC
CC
ENDCHAR
STARTCHAR i
ENCODING 105
SWIDTH 240 0
DWIDTH 3 0
BBX 5 9 0 0
BITMAP
18
00
30
30
60
60
60
C0
C0
ENDCHAR
STARTCHAR j
ENCODING 106
SWIDTH 240 0
DWIDTH 3 0
BBX 7 12 -2 -3
BITMAP
06
00
0C
0C
18
18
18
30
30
30
60
C0
ENDCHAR
STARTCHAR k
ENCODING 107
SWIDTH 560 0
DWIDTH 7 0
BBX 8 9 0 0
BITMAP
18
18
33
36
7C
78
6C
CC
C6
ENDCHAR
STARTCHAR l
ENCODING 108
SWIDTH 240 0
DWIDTH 3 0
BBX 5 9 0 0
BITMAP
18
18
30
30
60
60
60
C0
C0
ENDCHAR
STARTCHAR m
ENCODING 109
SWIDTH 880 0
DWIDTH 11 0
BBX 12 7 0 0
BITMAP
2EE0
3330
3330
6660
6660
CCC0
CCC0
ENDCHAR
STARTCHAR n
ENCODING 110
SWIDTH 560 0
DWIDTH 7 0
BBX 8 7 0 0
BITMAP
36
3B
63
66
66
CC
CC
ENDCHAR
STARTCHAR o
ENCODING 111
SWIDTH 560 0
DWIDTH 7 0
BBX 8 7 0 0
BITMAP
1E
33
63
66
C6
CC
78
ENDCHAR
STARTCHAR p
ENCODING 112
SWIDTH 560 0
DWIDTH 7 0
BBX 9 10 -1 -3
BITMAP
1B00
1D80
3180
3300
6300
6600
7C00
6000
C000
C000
ENDCHAR
STARTCHAR q
ENCODING 113
SWIDTH 560 0
DWIDTH 7 0
BBX 8 10 0 -3
BITMAP
1D
37
63
66
C6
CC
7C
0C
18
18
ENDCHAR
STARTCHAR r
ENCODING 114
SWIDTH 400 0
DWIDTH 5 0
BBX 7 7 0 0
BITMAP
36
3C
70
60
60
C0
C0
ENDCHAR
STARTCHAR s
ENCODING 115
SWIDTH 560 0
DWIDTH 7 0
BBX 8 7 0 0
BITMAP
1E
33
38
1C
0C
CC
78
ENDCHAR
STARTCHAR t
ENCODING 116
SWIDTH 400 0
DWIDTH 5 0
BBX 6 9 1 0
BITMAP
18
18
7C
30
60
60
60
C0
E0
ENDCHAR
STARTCHAR u
ENCODING 117
SWIDTH 560 0
DWIDTH 7 0
BBX 8 7 0 0
BITMAP
33
33
63
66
C6
CC
74
ENDCHAR
STARTCHAR v
ENCODING 118
SWIDTH 560 0
DWIDTH 7 0
BBX 6 7 2 0
BITMAP
CC
CC
D8
D8
F0
60
40
ENDCHAR
STARTCHAR w
ENCODING 119
SWIDTH 800 0
DWIDTH 10 0
BBX 10 7 1 0
BITMAP
CCC0
CCC0
DD80
DD80
5500
7700
6600
ENDCHAR
STARTCHAR x
ENCODING 120
SWIDTH 560 0
DWIDTH 7 0
BBX 8 7 0 0
BITMAP
33
36
1C
18
38
6C
CC
ENDCHAR
STARTCHAR y
ENCODING 121
SWIDTH 560 0
DWIDTH 7 0
BBX 6 10 1 -3
BITMAP
CC
CC
CC
D8
50
70
60
60
C0
80
ENDCHAR
STARTCHAR z
ENCODING 122
SWIDTH 480 0
DWIDTH 6 0
BBX 7 7 0 0
BITMAP
3E
06
0C
38
60
C0
F8
ENDCHAR
STARTCHAR braceleft
ENCODING 123
SWIDTH 400 0
DWIDTH 5 0
BBX 7 12 1 -3
BITMAP
0E
18
30
30
60
C0
60
60
60
C0
C0
70
ENDCHAR
STARTCHAR bar
ENCODING 124
SWIDTH 320 0
DWIDTH 4 0
BBX 5 12 0 -3
BITMAP
18
18
18
10
30
30
20
60
60
40
C0
C0
ENDCHAR
STARTCHAR braceright
ENCODING 125
SWIDTH 400 0
DWIDTH 5 0
BBX 7 12 -1 -3
BITMAP
1C
06
06
0C
0C
06
0C
18
18
18
30
E0
ENDCHAR
STARTCHAR asciitilde
ENCODING 126
SWIDTH 560 0
DWIDTH 7 0
BBX 6 2 1 3
BITMAP
74
B8
ENDCHAR
STARTCHAR space
ENCODING 160
SWIDTH 320 0
DWIDTH 4 0
BBX 0 0 0 0
BITMAP
ENDCHAR
STARTCHAR exclamdown
ENCODING 161
SWIDTH 320 0
DWIDTH 4 0
BBX 5 10 -1 -3
BITMAP
18
18
00
10
30
30
60
60
C0
C0
ENDCHAR
STARTCHAR cent
ENCODING 162
SWIDTH 560 0
DWIDTH 7 0
BBX 7 9 1 -1
BITMAP
04
3C
6E
D0
D0
E6
EC
78
40
ENDCHAR
STARTCHAR sterling
ENCODING 163
SWIDTH 560 0
DWIDTH 7 0
BBX 8 9 0 0
BITMAP
0E
19
10
7C
30
30
60
E6
DC
ENDCHAR
STARTCHAR currency
ENCODING 164
SWIDTH 560 0
DWIDTH 7 0
BBX 8 6 0 1
BITMAP
33
1E
34
2C
78
CC
ENDCHAR
STARTCHAR yen
ENCODING 165
SWIDTH 560 0
DWIDTH 7 0
BBX 7 9 1 0
BITMAP
66
66
6C
38
FC
30
F8
60
60
ENDCHAR
STARTCHAR brokenbar
ENCODING 166
SWIDTH 320 0
DWIDTH 4 0
BBX 6 11 0 -2
BITMAP
0C
0C
18
18
00
00
60
60
40
C0
C0
ENDCHAR
STARTCHAR section
ENCODING 167
SWIDTH 560 0
DWIDTH 7 0
BBX 8 12 0 -3
BITMAP
0E
1B
19
38
6C
66
66
36
1C
98
D8
70
ENDCHAR
STARTCHAR dieresis
ENCODING 168
SWIDTH 400 0
DWIDTH 5 0
BBX 5 1 3 8
BITMAP
D8
ENDCHAR
STARTCHAR copyright
ENCODING 169
SWIDTH 880 0
DWIDTH 11 0
BBX 10 9 1 0
BITMAP
1F00
2080
4E40
5140
A040
A280
9C80
4100
3E00
ENDCHAR
STARTCHAR ordfeminine
ENCODING 170
SWIDTH 480 0
DWIDTH 6 0
BBX 5 6 2 3
BITMAP
38
08
78
50
00
F0
ENDCHAR
STARTCHAR guillemotleft
ENCODING 171
SWIDTH 800 0
DWIDTH 10 0
BBX 9 5 1 1
BITMAP
1980
7700
CC00
6600
3300
ENDCHAR
STARTCHAR logicalnot
ENCODING 172
SWIDTH 640 0
DWIDTH 8 0
BBX 6 4 2 1
BITMAP
FC
04
08
08
ENDCHAR
STARTCHAR hyphen
ENCODING 173
SWIDTH 400 0
DWIDTH 5 0
BBX 4 1 1 3
BITMAP
F0
ENDCHAR
STARTCHAR registered
ENCODING 174
SWIDTH 880 0
DWIDTH 11 0
BBX 10 9 1 0
BITMAP
1F00
2080
4E40
4A40
9C40
9480
9280
4100
3E00
ENDCHAR
STARTCHAR macron
ENCODING 175
SWIDTH 320 0
DWIDTH 4 0
BBX 4 1 3 8
BITMAP
F0
ENDCHAR
STARTCHAR degree
ENCODING 176
SWIDTH 400 0
DWIDTH 5 0
BBX 4 4 2 4
BITMAP
60
90
90
60
ENDCHAR
STARTCHAR plusminus
ENCODING 177
SWIDTH 640 0
DWIDTH 8 0
BBX 8 7 0 0
BITMAP
0C
0C
7F
18
18
00
FE
ENDCHAR
STARTCHAR twosuperior
ENCODING 178
SWIDTH 320 0
DWIDTH 4 0
BBX 4 5 1 4
BITMAP
60
B0
20
40
F0
ENDCHAR
STARTCHAR threesuperior
ENCODING 179
SWIDTH 320 0
DWIDTH 4 0
BBX 4 5 1 4
BITMAP
70
30
60
30
E0
ENDCHAR
STARTCHAR acute
ENCODING 180
SWIDTH 320 0
DWIDTH 4 0
BBX 3 2 3 7
BITMAP
60
C0
ENDCHAR
STARTCHAR mu
ENCODING 181
SWIDTH 560 0
DWIDTH 7 0
BBX 10 10 -2 -3
BITMAP
0CC0
0CC0
18C0
1980
3180
3300
6D00
6000
C000
C000
ENDCHAR
STARTCHAR paragraph
ENCODING 182
SWIDTH 560 0
DWIDTH 7 0
BBX 7 12 2 -3
BITMAP
3E
74
F4
F4
E8
E8
68
50
50
A0
A0
A0
ENDCHAR
STARTCHAR periodcentered
ENCODING 183
SWIDTH 320 0
DWIDTH 4 0
BBX 2 2 2 3
BITMAP
C0
C0
ENDCHAR
STARTCHAR cedilla
ENCODING 184
SWIDTH 320 0
DWIDTH 4 0
BBX 4 4 0 -3
BITMAP
60
30
90
E0
ENDCHAR
STARTCHAR onesuperior
ENCODING 185
SWIDTH 320 0
DWIDTH 4 0
BBX 3 5 1 4
BITMAP
20
E0
20
40
40
ENDCHAR
STARTCHAR ordmasculine
ENCODING 186
SWIDTH 480 0
DWIDTH 6 0
BBX 5 6 2 3
BITMAP
38
68
58
70
00
F0
ENDCHAR
STARTCHAR guillemotright
ENCODING 187
SWIDTH 800 0
DWIDTH 10 0
BBX 9 5 1 1
BITMAP
6600
3300
1980
7700
CC00
ENDCHAR
STARTCHAR onequarter
ENCODING 188
SWIDTH 800 0
DWIDTH 10 0
BBX 9 9 2 0
BITMAP
2000
E300
2600
4C00
5900
1300
3500
6F80
C200
ENDCHAR
STARTCHAR onehalf
ENCODING 189
SWIDTH 800 0
DWIDTH 10 0
BBX 9 9 1 0
BITMAP
2000
E300
2600
4C00
5B00
1580
3100
6200
C780
ENDCHAR
STARTCHAR threequarters
ENCODING 190
SWIDTH 800 0
DWIDTH 10 0
BBX 10 9 1 0
BITMAP
7000
3180
6300
3600
EC80
0980
1A80
37C0
6100
ENDCHAR
STARTCHAR questiondown
ENCODING 191
SWIDTH 560 0
DWIDTH 7 0
BBX 6 9 0 -2
BITMAP
0C
0C
00
08
18
70
E4
CC
78
ENDCHAR
STARTCHAR Agrave
ENCODING 192
SWIDTH 640 0
DWIDTH 8 0
BBX 8 12 0 0
BITMAP
0C
06
00
06
06
0F
1B
33
3F
63
C3
C3
ENDCHAR
STARTCHAR Aacute
ENCODING 193
SWIDTH 640 0
DWIDTH 8 0
BBX 8 12 0 0
BITMAP
03
06
00
06
06
0F
1B
33
3F
63
C3
C3
ENDCHAR
STARTCHAR Acircumflex
ENCODING 194
SWIDTH 640 0
DWIDTH 8 0
BBX 9 12 0 0
BITMAP
0700
0D80
0000
0600
0600
0F00
1B00
3300
3F00
6300
C300
C300
ENDCHAR
STARTCHAR Atilde
ENCODING 195
SWIDTH 640 0
DWIDTH 8 0
BBX 9 12 0 0
BITMAP
0680
0B00
0000
0600
0600
0F00
1B00
3300
3F00
6300
C300
C300
ENDCHAR
STARTCHAR Adieresis
ENCODING 196
SWIDTH 640 0
DWIDTH 8 0
BBX 9 11 0 0
BITMAP
0D80
0000
0600
0600
0F00
1B00
3300
3F00
6300
C300
C300
ENDCHAR
STARTCHAR Aring
ENCODING 197
SWIDTH 640 0
DWIDTH 8 0
BBX 9 12 0 0
BITMAP
0300
0480
0300
0300
0700
0F00
1B00
3300
3F00
6300
C300
C300
ENDCHAR
STARTCHAR AE
ENCODING 198
SWIDTH 880 0
DWIDTH 11 0
BBX 14 9 0 0
BITMAP
07FC
0DC0
0980
1980
33F0
3F00
6300
C600
C7E0
ENDCHAR
STARTCHAR Ccedilla
ENCODING 199
SWIDTH 640 0
DWIDTH 8 0
BBX 8 12 1 -3
BITMAP
1E
33
63
60
C0
C0
C6
CC
78
30
90
E0
ENDCHAR
STARTCHAR Egrave
ENCODING 200
SWIDTH 640 0
DWIDTH 8 0
BBX 9 12 1 0
BITMAP
0C00
0600
0000
1F80
1800
3000
3000
7E00
6000
6000
C000
FC00
ENDCHAR
STARTCHAR Eacute
ENCODING 201
SWIDTH 640 0
DWIDTH 8 0
BBX 9 12 1 0
BITMAP
0300
0600
0000
1F80
1800
3000
3000
7E00
6000
6000
C000
FC00
ENDCHAR
STARTCHAR Ecircumflex
ENCODING 202
SWIDTH 640 0
DWIDTH 8 0
BBX 9 12 1 0
BITMAP
0700
0D80
0000
1F80
1000
3000
3000
7E00
6000
6000
C000
FC00
ENDCHAR
STARTCHAR Edieresis
ENCODING 203
SWIDTH 640 0
DWIDTH 8 0
BBX 9 11 1 0
BITMAP
0D80
0000
1F80
1800
3000
3000
7E00
6000
6000
C000
FC00
ENDCHAR
STARTCHAR Igrave
ENCODING 204
SWIDTH 400 0
DWIDTH 5 0
BBX 5 12 1 0
BITMAP
30
18
00
18
18
30
30
60
60
60
C0
C0
ENDCHAR
STARTCHAR Iacute
ENCODING 205
SWIDTH 400 0
DWIDTH 5 0
BBX 7 12 1 0
BITMAP
06
0C
00
18
18
30
30
60
60
60
C0
C0
ENDCHAR
STARTCHAR Icircumflex
ENCODING 206
SWIDTH 400 0
DWIDTH 5 0
BBX 7 12 1 0
BITMAP
1C
36
00
18
18
30
30
60
60
60
C0
C0
ENDCHAR
STARTCHAR Idieresis
ENCODING 207
SWIDTH 400 0
DWIDTH 5 0
BBX 7 11 1 0
BITMAP
36
00
18
18
30
30
60
60
60
C0
C0
ENDCHAR
STARTCHAR Eth
ENCODING 208
SWIDTH 720 0
DWIDTH 9 0
BBX 9 9 1 0
BITMAP
1F00
1980
3180
3180
F980
6300
6300
C600
FC00
ENDCHAR
STARTCHAR Ntilde
ENCODING 209
SWIDTH 800 0
DWIDTH 10 0
BBX 10 12 1 0
BITMAP
0340
0580
0000
18C0
18C0
38C0
3980
6980
6500
6700
C600
C600
ENDCHAR
STARTCHAR Ograve
ENCODING 210
SWIDTH 720 0
DWIDTH 9 0
BBX 9 12 1 0
BITMAP
0600
0300
0000
0F00
3980
3180
6180
C300
C300
C600
CE00
7800
ENDCHAR
STARTCHAR Oacute
ENCODING 211
SWIDTH 720 0
DWIDTH 9 0
BBX 9 12 1 0
BITMAP
0180
0300
0000
0F00
3980
3180
6180
C300
C300
C600
CE00
7800
ENDCHAR
STARTCHAR Ocircumflex
ENCODING 212
SWIDTH 720 0
DWIDTH 9 0
BBX 9 12 1 0
BITMAP
0700
0D80
0000
0F00
3980
3180
6180
C300
C300
C600
CE00
7800
ENDCHAR
STARTCHAR Otilde
ENCODING 213
SWIDTH 720 0
DWIDTH 9 0
BBX 9 12 1 0
BITMAP
0680
0B00
0000
0F00
3980
3180
6180
C300
C300
C600
CE00
7800
ENDCHAR
STARTCHAR Odieresis
ENCODING 214
SWIDTH 720 0
DWIDTH 9 0
BBX 9 11 1 0
BITMAP
0D80
0000
0F00
3980
3180
6180
C300
C300
C600
CE00
7800
ENDCHAR
STARTCHAR multiply
ENCODING 215
SWIDTH 640 0
DWIDTH 8 0
BBX 7 5 1 1
BITMAP
66
3C
38
78
CC
ENDCHAR
STARTCHAR Oslash
ENCODING 216
SWIDTH 720 0
DWIDTH 9 0
BBX 11 9 0 0
BITMAP
07A0
1CC0
19C0
32C0
3580
6980
7300
6700
BC00
ENDCHAR
STARTCHAR Ugrave
ENCODING 217
SWIDTH 640 0
DWIDTH 8 0
BBX 9 12 1 0
BITMAP
0C00
0600
0000
3180
3180
3180
6300
6300
C600
C600
CC00
7800
ENDCHAR
STARTCHAR Uacute
ENCODING 218
SWIDTH 640 0
DWIDTH 8 0
BBX 9 12 1 0
BITMAP
0300
0600
0000
3180
3180
3180
6300
6300
C600
C600
CC00
7800
ENDCHAR
STARTCHAR Ucircumflex
ENCODING 219
SWIDTH 640 0
DWIDTH 8 0
BBX 9 12 1 0
BITMAP
0700
0D80
0000
3180
3180
3180
6300
6300
C600
C600
CC00
7800
ENDCHAR
STARTCHAR Udieresis
ENCODING 220
SWIDTH 640 0
DWIDTH 8 0
BBX 9 11 1 0
BITMAP
1B00
0000
3180
3180
3180
6300
6300
C600
C600
CC00
7800
ENDCHAR
STARTCHAR Yacute
ENCODING 221
SWIDTH 560 0
DWIDTH 7 0
BBX 7 12 2 0
BITMAP
0C
18
00
C6
C6
C6
6C
6C
38
30
60
60
ENDCHAR
STARTCHAR Thorn
ENCODING 222
SWIDTH 640 0
DWIDTH 8 0
BBX 8 9 1 0
BITMAP
18
18
3E
33
23
66
7C
C0
C0
ENDCHAR
STARTCHAR germandbls
ENCODING 223
SWIDTH 560 0
DWIDTH 7 0
BBX 8 9 0 0
BITMAP
0E
1B
33
36
6C
66
66
CC
D8
ENDCHAR
STARTCHAR agrave
ENCODING 224
SWIDTH 480 0
DWIDTH 6 0
BBX 7 10 0 0
BITMAP
30
18
00
3C
66
06
7C
CC
98
EC
ENDCHAR
STARTCHAR aacute
ENCODING 225
SWIDTH 480 0
DWIDTH 6 0
BBX 7 10 0 0
BITMAP
06
0C
00
3C
66
06
7C
CC
98
EC
ENDCHAR
STARTCHAR acircumflex
ENCODING 226
SWIDTH 480 0
DWIDTH 6 0
BBX 7 10 0 0
BITMAP
1C
36
00
3C
66
06
7C
CC
98
EC
ENDCHAR
STARTCHAR atilde
ENCODING 227
SWIDTH 480 0
DWIDTH 6 0
BBX 7 10 0 0
BITMAP
1A
2C
00
3C
66
06
7C
CC
98
EC
ENDCHAR
STARTCHAR adieresis
ENCODING 228
SWIDTH 480 0
DWIDTH 6 0
BBX 7 9 0 0
BITMAP
36
00
3C
66
06
7C
CC
98
EC
ENDCHAR
STARTCHAR aring
ENCODING 229
SWIDTH 480 0
DWIDTH 6 0
BBX 7 10 0 0
BITMAP
0C
12
0C
3C
66
06
7C
CC
98
EC
ENDCHAR
STARTCHAR ae
ENCODING 230
SWIDTH 800 0
DWIDTH 10 0
BBX 11 7 0 0
BITMAP
3BC0
6660
0460
7FC0
CC00
9980
EF00
ENDCHAR
STARTCHAR ccedilla
ENCODING 231
SWIDTH 560 0
DWIDTH 7 0
BBX 8 10 0 -3
BITMAP
1E
33
60
60
C6
CC
78
30
90
E0
ENDCHAR
STARTCHAR egrave
ENCODING 232
SWIDTH 560 0
DWIDTH 7 0
BBX 8 10 0 0
BITMAP
18
0C
00
1E
33
63
7E
C0
CC
78
ENDCHAR
STARTCHAR eacute
ENCODING 233
SWIDTH 560 0
DWIDTH 7 0
BBX 8 10 0 0
BITMAP
06
0C
00
1E
33
63
7E
C0
CC
78
ENDCHAR
STARTCHAR ecircumflex
ENCODING 234
SWIDTH 560 0
DWIDTH 7 0
BBX 8 10 0 0
BITMAP
0E
1B
00
1E
33
63
7E
C0
CC
78
ENDCHAR
STARTCHAR edieresis
ENCODING 235
SWIDTH 560 0
DWIDTH 7 0
BBX 8 9 0 0
BITMAP
1B
00
1E
33
63
7E
C0
CC
78
ENDCHAR
STARTCHAR igrave
ENCODING 236
SWIDTH 240 0
DWIDTH 3 0
BBX 4 10 0 0
BITMAP
60
30
00
30
30
60
60
60
C0
C0
ENDCHAR
STARTCHAR iacute
ENCODING 237
SWIDTH 240 0
DWIDTH 3 0
BBX 5 10 0 0
BITMAP
18
30
00
30
30
60
60
60
C0
C0
ENDCHAR
STARTCHAR icircumflex
ENCODING 238
SWIDTH 240 0
DWIDTH 3 0
BBX 6 10 0 0
BITMAP
38
6C
00
30
30
60
60
60
C0
C0
ENDCHAR
STARTCHAR idieresis
ENCODING 239
SWIDTH 240 0
DWIDTH 3 0
BBX 6 9 0 0
BITMAP
6C
00
30
30
60
60
60
C0
C0
ENDCHAR
STARTCHAR eth
ENCODING 240
SWIDTH 560 0
DWIDTH 7 0
BBX 8 10 0 0
BITMAP
32
1C
26
1F
33
63
66
C6
CC
78
ENDCHAR
STARTCHAR ntilde
ENCODING 241
SWIDTH 560 0
DWIDTH 7 0
BBX 8 10 0 0
BITMAP
0D
16
00
36
3B
63
66
66
CC
CC
ENDCHAR
STARTCHAR ograve
ENCODING 242
SWIDTH 560 0
DWIDTH 7 0
BBX 8 10 0 0
BITMAP
18
0C
00
1E
33
63
66
C6
CC
78
ENDCHAR
STARTCHAR oacute
ENCODING 243
SWIDTH 560 0
DWIDTH 7 0
BBX 8 10 0 0
BITMAP
06
0C
00
1E
33
63
66
C6
CC
78
ENDCHAR
STARTCHAR ocircumflex
ENCODING 244
SWIDTH 560 0
DWIDTH 7 0
BBX 8 10 0 0
BITMAP
0E
1B
00
1E
33
63
66
C6
CC
78
ENDCHAR
STARTCHAR otilde
ENCODING 245
SWIDTH 560 0
DWIDTH 7 0
BBX 8 10 0 0
BITMAP
0D
16
00
1E
33
63
66
C6
CC
78
ENDCHAR
STARTCHAR odieresis
ENCODING 246
SWIDTH 560 0
DWIDTH 7 0
BBX 8 9 0 0
BITMAP
1B
00
1E
33
63
66
C6
CC
78
ENDCHAR
STARTCHAR divide
ENCODING 247
SWIDTH 640 0
DWIDTH 8 0
BBX 7 5 1 1
BITMAP
18
00
FE
00
30
ENDCHAR
STARTCHAR oslash
ENCODING 248
SWIDTH 560 0
DWIDTH 7 0
BBX 9 8 -1 0
BITMAP
0080
0F00
1B80
3580
3B00
7300
6600
BC00
ENDCHAR
STARTCHAR ugrave
ENCODING 249
SWIDTH 560 0
DWIDTH 7 0
BBX 8 10 0 0
BITMAP
18
0C
00
33
33
63
66
C6
CC
74
ENDCHAR
STARTCHAR uacute
ENCODING 250
SWIDTH 560 0
DWIDTH 7 0
BBX 8 10 0 0
BITMAP
06
0C
00
33
33
63
66
C6
CC
74
ENDCHAR
STARTCHAR ucircumflex
ENCODING 251
SWIDTH 560 0
DWIDTH 7 0
BBX 8 10 0 0
BITMAP
0E
1B
00
33
33
63
66
C6
CC
74
ENDCHAR
STARTCHAR udieresis
ENCODING 252
SWIDTH 560 0
DWIDTH 7 0
BBX 8 9 0 0
BITMAP
1B
00
33
33
63
66
C6
CC
74
ENDCHAR
STARTCHAR yacute
ENCODING 253
SWIDTH 560 0
DWIDTH 7 0
BBX 6 13 1 -3
BITMAP
18
30
00
CC
CC
D8
D8
50
70
60
60
C0
80
ENDCHAR
STARTCHAR thorn
ENCODING 254
SWIDTH 560 0
DWIDTH 7 0
BBX 9 12 -1 -3
BITMAP
0C00
0C00
1B00
1D80
1180
3300
3300
6600
7C00
6000
C000
C000
ENDCHAR
STARTCHAR ydieresis
ENCODING 255
SWIDTH 560 0
DWIDTH 7 0
BBX 6 12 1 -3
BITMAP
6C
00
CC
CC
D8
D8
50
70
60
60
C0
80
ENDCHAR
STARTCHAR OE
ENCODING 338
SWIDTH 880 0
DWIDTH 11 0
BBX 13 9 1 0
BITMAP
0FF8
3980
3300
6300
67E0
C600
C600
CC00
7FC0
ENDCHAR
STARTCHAR oe
ENCODING 339
SWIDTH 880 0
DWIDTH 11 0
BBX 12 7 0 0
BITMAP
1DE0
3330
6230
67E0
C600
CCC0
7F80
ENDCHAR
STARTCHAR Scaron
ENCODING 352
SWIDTH 640 0
DWIDTH 8 0
BBX 8 10 1 0
BITMAP
1B
0E
04
1E
33
31
1C
86
C6
7C
ENDCHAR
STARTCHAR scaron
ENCODING 353
SWIDTH 560 0
DWIDTH 7 0
BBX 8 10 0 0
BITMAP
1B
0E
04
1E
33
38
1C
0C
CC
78
ENDCHAR
STARTCHAR Ydieresis
ENCODING 376
SWIDTH 640 0
DWIDTH 8 0
BBX 7 9 3 0
BITMAP
6C
00
C6
CC
D8
70
60
C0
C0
ENDCHAR
STARTCHAR Zcaron
ENCODING 381
SWIDTH 560 0
DWIDTH 7 0
BBX 9 10 0 0
BITMAP
1B00
0E00
0400
3F80
0300
0600
1C00
3000
6000
FE00
ENDCHAR
STARTCHAR zcaron
ENCODING 382
SWIDTH 480 0
DWIDTH 6 0
BBX 7 10 0 0
BITMAP
36
1C
08
3E
06
0C
38
60
C0
F8
ENDCHAR
STARTCHAR circumflex
ENCODING 710
SWIDTH 400 0
DWIDTH 5 0
BBX 5 3 2 7
BITMAP
20
70
D8
ENDCHAR
STARTCHAR tilde
ENCODING 732
SWIDTH 400 0
DWIDTH 5 0
BBX 5 2 3 7
BITMAP
68
B0
ENDCHAR
STARTCHAR A
ENCODING 913
SWIDTH 720 0
DWIDTH 9 0
BBX 8 9 1 0
BITMAP
06
0F
1E
33
33
3F
C3
C3
C3
ENDCHAR
STARTCHAR B
ENCODING 914
SWIDTH 640 0
DWIDTH 8 0
BBX 9 9 1 0
BITMAP
3F00
3180
6300
6300
7E00
6300
C600
C600
FC00
ENDCHAR
STARTCHAR Gamma
ENCODING 915
SWIDTH 640 0
DWIDTH 8 0
BBX 9 9 1 0
BITMAP
3F80
3000
6000
6000
6000
6000
C000
C000
C000
ENDCHAR
STARTCHAR Delta
ENCODING 916
SWIDTH 720 0
DWIDTH 9 0
BBX 8 9 1 0
BITMAP
06
06
1E
1E
33
33
C3
C3
FF
ENDCHAR
STARTCHAR E
ENCODING 917
SWIDTH 640 0
DWIDTH 8 0
BBX 9 9 1 0
BITMAP
3F80
3000
6000
6000
7F00
6000
C000
C000
FE00
ENDCHAR
STARTCHAR Z
ENCODING 918
SWIDTH 720 0
DWIDTH 9 0
BBX 10 9 1 0
BITMAP
3FC0
00C0
0300
0600
0C00
1800
6000
C000
FF00
ENDCHAR
STARTCHAR H
ENCODING 919
SWIDTH 720 0
DWIDTH 9 0
BBX 10 9 1 0
BITMAP
30C0
30C0
6180
6180
7F80
6180
C300
C300
C300
ENDCHAR
STARTCHAR Theta
ENCODING 920
SWIDTH 720 0
DWIDTH 9 0
BBX 10 9 1 0
BITMAP
1F80
30C0
6180
6180
7F80
6180
C300
C300
7E00
ENDCHAR
STARTCHAR I
ENCODING 921
SWIDTH 400 0
DWIDTH 5 0
BBX 6 9 1 0
BITMAP
3C
18
30
30
30
30
60
60
F0
ENDCHAR
STARTCHAR K
ENCODING 922
SWIDTH 640 0
DWIDTH 8 0
BBX 10 9 1 0
BITMAP
3180
3300
6C00
7800
7800
6C00
CC00
C600
C300
ENDCHAR
STARTCHAR Lambda
ENCODING 923
SWIDTH 720 0
DWIDTH 9 0
BBX 8 9 1 0
BITMAP
06
0F
1E
1E
33
33
66
C3
C3
ENDCHAR
STARTCHAR M
ENCODING 924
SWIDTH 880 0
DWIDTH 11 0
BBX 12 9 1 0
BITMAP
3030
3870
70E0
79E0
79E0
6F60
DEC0
CCC0
CCC0
ENDCHAR
STARTCHAR N
ENCODING 925
SWIDTH 720 0
DWIDTH 9 0
BBX 10 9 1 0
BITMAP
30C0
38C0
7980
7980
6D80
6780
CF00
C700
C300
ENDCHAR
STARTCHAR Xi
ENCODING 926
SWIDTH 720 0
DWIDTH 9 0
BBX 10 9 1 0
BITMAP
3FC0
0000
0000
0000
3F00
0000
0000
0000
FF00
ENDCHAR
STARTCHAR O
ENCODING 927
SWIDTH 800 0
DWIDTH 10 0
BBX 11 9 1 0
BITMAP
0F80
18C0
60C0
60C0
60C0
60C0
C180
6300
3E00
ENDCHAR
STARTCHAR Pi
ENCODING 928
SWIDTH 720 0
DWIDTH 9 0
BBX 10 9 1 0
BITMAP
3FC0
1980
3300
3300
3300
3300
6600
6600
6600
ENDCHAR
STARTCHAR P
ENCODING 929
SWIDTH 640 0
DWIDTH 8 0
BBX 9 9 1 0
BITMAP
3F00
3180
6300
6300
7E00
6000
C000
C000
C000
ENDCHAR
STARTCHAR Sigma
ENCODING 931
SWIDTH 640 0
DWIDTH 8 0
BBX 9 9 1 0
BITMAP
3F80
3000
3000
1800
0C00
1800
6000
C000
FE00
ENDCHAR
STARTCHAR T
ENCODING 932
SWIDTH 560 0
DWIDTH 7 0
BBX 8 9 2 0
BITMAP
FF
18
30
30
30
30
60
60
60
ENDCHAR
STARTCHAR Y
ENCODING 933
SWIDTH 720 0
DWIDTH 9 0
BBX 8 9 3 0
BITMAP
C3
C3
CC
CC
78
30
60
60
60
ENDCHAR
STARTCHAR Phi
ENCODING 934
SWIDTH 720 0
DWIDTH 9 0
BBX 10 9 1 0
BITMAP
0600
1F80
6D80
6D80
6D80
6D80
DB00
7E00
1800
ENDCHAR
STARTCHAR X
ENCODING 935
SWIDTH 720 0
DWIDTH 9 0
BBX 10 9 1 0
BITMAP
30C0
1980
3300
1E00
0C00
1E00
6600
6600
C300
ENDCHAR
STARTCHAR Psi
ENCODING 936
SWIDTH 720 0
DWIDTH 9 0
BBX 10 9 1 0
BITMAP
36C0
36C0
6D80
6D80
6D80
3F00
1800
1800
1800
ENDCHAR
STARTCHAR Omega
ENCODING 937
SWIDTH 800 0
DWIDTH 10 0
BBX 11 9 1 0
BITMAP
1FC0
3060
60C0
60C0
60C0
60C0
7700
3600
F700
ENDCHAR
STARTCHAR endash
ENCODING 8211
SWIDTH 560 0
DWIDTH 7 0
BBX 7 1 1 3
BITMAP
FE
ENDCHAR
STARTCHAR emdash
ENCODING 8212
SWIDTH 960 0
DWIDTH 12 0
BBX 12 1 1 3
BITMAP
FFF0
ENDCHAR
STARTCHAR quoteleft
ENCODING 8216
SWIDTH 320 0
DWIDTH 4 0
BBX 3 3 3 6
BITMAP
60
C0
C0
ENDCHAR
STARTCHAR quoteright
ENCODING 8217
SWIDTH 320 0
DWIDTH 4 0
BBX 3 3 3 6
BITMAP
60
60
C0
ENDCHAR
STARTCHAR quotesinglbase
ENCODING 8218
SWIDTH 160 0
DWIDTH 2 0
BBX 3 3 -1 -1
BITMAP
60
60
C0
ENDCHAR
STARTCHAR quotereversed
ENCODING 8219
SWIDTH 320 0
DWIDTH 4 0
BBX 3 3 3 6
BITMAP
C0
C0
60
ENDCHAR
STARTCHAR quotedblleft
ENCODING 8220
SWIDTH 480 0
DWIDTH 6 0
BBX 6 3 2 6
BITMAP
6C
D8
D8
ENDCHAR
STARTCHAR quotedblright
ENCODING 8221
SWIDTH 480 0
DWIDTH 6 0
BBX 6 3 2 6
BITMAP
6C
6C
D8
ENDCHAR
STARTCHAR quotedblbase
ENCODING 8222
SWIDTH 400 0
DWIDTH 5 0
BBX 6 3 -1 -1
BITMAP
6C
6C
D8
ENDCHAR
STARTCHAR uni201F
ENCODING 8223
SWIDTH 480 0
DWIDTH 6 0
BBX 6 3 2 6
BITMAP
D8
D8
6C
ENDCHAR
STARTCHAR dagger
ENCODING 8224
SWIDTH 560 0
DWIDTH 7 0
BBX 7 12 1 -3
BITMAP
0C
0C
18
7E
18
30
30
60
60
60
C0
C0
ENDCHAR
STARTCHAR daggerdbl
ENCODING 8225
SWIDTH 560 0
DWIDTH 7 0
BBX 8 12 0 -3
BITMAP
06
06
0C
3F
0C
18
18
30
FC
30
60
60
ENDCHAR
STARTCHAR bullet
ENCODING 8226
SWIDTH 480 0
DWIDTH 6 0
BBX 4 3 1 2
BITMAP
70
F0
E0
ENDCHAR
STARTCHAR ellipsis
ENCODING 8230
SWIDTH 960 0
DWIDTH 12 0
BBX 10 1 1 0
BITMAP
CCC0
ENDCHAR
STARTCHAR perthousand
ENCODING 8240
SWIDTH 1120 0
DWIDTH 14 0
BBX 13 8 1 0
BITMAP
3180
6B00
3600
0C00
1800
3630
6D68
C630
ENDCHAR
STARTCHAR guilsinglleft
ENCODING 8249
SWIDTH 480 0
DWIDTH 6 0
BBX 5 5 1 1
BITMAP
18
70
C0
60
30
ENDCHAR
STARTCHAR guilsinglright
ENCODING 8250
SWIDTH 480 0
DWIDTH 6 0
BBX 5 5 1 1
BITMAP
60
30
18
70
C0
ENDCHAR
STARTCHAR uni20A5
ENCODING 8357
SWIDTH 880 0
DWIDTH 11 0
BBX 12 9 0 -1
BITMAP
0040
2EE0
33B0
3330
6660
6660
CCC0
DCC0
1000
ENDCHAR
STARTCHAR uni20A6
ENCODING 8358
SWIDTH 800 0
DWIDTH 10 0
BBX 10 9 1 0
BITMAP
18C0
18C0
3980
3F80
6980
7F00
6700
C600
C600
ENDCHAR
STARTCHAR uni20A9
ENCODING 8361
SWIDTH 800 0
DWIDTH 10 0
BBX 10 9 2 0
BITMAP
CCC0
CCC0
CD80
DF80
DD00
FF00
EE00
4400
4400
ENDCHAR
STARTCHAR Euro
ENCODING 8364
SWIDTH 640 0
DWIDTH 8 0
BBX 9 9 0 0
BITMAP
0F00
1980
3180
7C00
6000
F800
6300
6600
3C00
ENDCHAR
STARTCHAR uni20AD
ENCODING 8365
SWIDTH 720 0
DWIDTH 9 0
BBX 10 9 1 0
BITMAP
18C0
1980
3300
3600
FFC0
6600
6600
C300
C300
ENDCHAR
ENDFONT
