STARTFONT 2.1
COMMENT $XConsortium: helvB10.bdf,v 1.13 95/01/26 18:01:30 gildea Exp $
COMMENT 
COMMENT +
COMMENT  Copyright 1984-1989, 1994 Adobe Systems Incorporated.
COMMENT  Copyright 1988, 1994 Digital Equipment Corporation.
COMMENT 
COMMENT  Adobe is a trademark of Adobe Systems Incorporated which may be
COMMENT  registered in certain jurisdictions.
COMMENT  Permission to use these trademarks is hereby granted only in
COMMENT  association with the images described in this file.
COMMENT 
COMMENT  Permission to use, copy, modify, distribute and sell this software
COMMENT  and its documentation for any purpose and without fee is hereby
COMMENT  granted, provided that the above copyright notices appear in all
COMMENT  copies and that both those copyright notices and this permission
COMMENT  notice appear in supporting documentation, and that the names of
COMMENT  Adobe Systems and Digital Equipment Corporation not be used in
COMMENT  advertising or publicity pertaining to distribution of the software
COMMENT  without specific, written prior permission.  Adobe Systems and
COMMENT  Digital Equipment Corporation make no representations about the
COMMENT  suitability of this software for any purpose.  It is provided "as
COMMENT  is" without express or implied warranty.
COMMENT -
FONT -Adobe-Helvetica-Bold-R-Normal--10-100-75-75-P-60-ISO10646-1
SIZE 10 75 75
FONTBOUNDINGBOX 11 13 -1 -2
STARTPROPERTIES 29
FOUNDRY "Adobe"
FAMILY_NAME "Helvetica"
WEIGHT_NAME "Bold"
SLANT "R"
SETWIDTH_NAME "Normal"
ADD_STYLE_NAME ""
PIXEL_SIZE 10
POINT_SIZE 100
RESOLUTION_X 75
RESOLUTION_Y 75
SPACING "P"
AVERAGE_WIDTH 60
CHARSET_REGISTRY "ISO10646"
CHARSET_ENCODING "1"
CAP_HEIGHT 8
X_HEIGHT 6
FONT_ASCENT 10
FONT_DESCENT 2
FACE_NAME "Helvetica Bold"
COPYRIGHT "Copyright (c) 1984, 1987 Adobe Systems Incorporated. All Rights Reserved. Copyright (c) 1988, 1991 Digital Equipment Corporation. All Rights Reserved."
NOTICE "Helvetica is a trademark of Linotype-Hell AG and/or its subsidiaries.  "
_DEC_DEVICE_FONTNAMES "PS=Helvetica-Bold"
_DEC_PRODUCTINFO "DECwindows Fonts V2.2, 07-Nov-1991"
DEFAULT_CHAR 32
RELATIVE_SETWIDTH 50
RELATIVE_WEIGHT 70
CHARSET_COLLECTIONS "ASCII ISO8859-1 ADOBE-STANDARD"
FULL_NAME "Helvetica Bold"
_XMBDFED_INFO "Edited with xmbdfed 4.5."
ENDPROPERTIES
CHARS 284
STARTCHAR Lslash
ENCODING -1
SWIDTH 576 0
DWIDTH 6 0
BBX 6 8 -1 0
BITMAP
60
60
60
70
E0
60
60
7C
ENDCHAR
STARTCHAR OE
ENCODING -1
SWIDTH 960 0
DWIDTH 10 0
BBX 9 8 0 0
BITMAP
3F80
6C00
CC00
CF80
CC00
CC00
6C00
3F80
ENDCHAR
STARTCHAR Scaron
ENCODING -1
SWIDTH 672 0
DWIDTH 7 0
BBX 6 9 0 0
BITMAP
28
10
00
78
CC
70
3C
CC
78
ENDCHAR
STARTCHAR Ydieresis
ENCODING -1
SWIDTH 768 0
DWIDTH 8 0
BBX 8 8 0 0
BITMAP
14
00
C3
66
3C
18
18
18
ENDCHAR
STARTCHAR Zcaron
ENCODING -1
SWIDTH 672 0
DWIDTH 7 0
BBX 6 9 0 0
BITMAP
28
10
00
FC
18
30
60
C0
FC
ENDCHAR
STARTCHAR breve
ENCODING -1
SWIDTH 384 0
DWIDTH 4 0
BBX 4 2 0 6
BITMAP
90
60
ENDCHAR
STARTCHAR bullet
ENCODING -1
SWIDTH 384 0
DWIDTH 4 0
BBX 2 2 1 2
BITMAP
C0
C0
ENDCHAR
STARTCHAR caron
ENCODING -1
SWIDTH 384 0
DWIDTH 4 0
BBX 3 2 0 6
BITMAP
A0
40
ENDCHAR
STARTCHAR circumflex
ENCODING -1
SWIDTH 384 0
DWIDTH 4 0
BBX 3 2 0 6
BITMAP
40
A0
ENDCHAR
STARTCHAR dagger
ENCODING -1
SWIDTH 672 0
DWIDTH 7 0
BBX 6 10 0 -2
BITMAP
30
30
FC
30
30
30
30
30
30
30
ENDCHAR
STARTCHAR daggerdbl
ENCODING -1
SWIDTH 672 0
DWIDTH 7 0
BBX 6 10 0 -2
BITMAP
30
30
FC
30
30
30
FC
30
30
30
ENDCHAR
STARTCHAR dotaccent
ENCODING -1
SWIDTH 192 0
DWIDTH 2 0
BBX 1 1 0 7
BITMAP
80
ENDCHAR
STARTCHAR dotlessi
ENCODING -1
SWIDTH 288 0
DWIDTH 3 0
BBX 2 6 0 0
BITMAP
C0
C0
C0
C0
C0
C0
ENDCHAR
STARTCHAR ellipsis
ENCODING -1
SWIDTH 960 0
DWIDTH 10 0
BBX 8 1 1 0
BITMAP
DB
ENDCHAR
STARTCHAR emdash
ENCODING -1
SWIDTH 960 0
DWIDTH 10 0
BBX 10 1 0 3
BITMAP
FFC0
ENDCHAR
STARTCHAR endash
ENCODING -1
SWIDTH 576 0
DWIDTH 6 0
BBX 6 1 0 3
BITMAP
FC
ENDCHAR
STARTCHAR fi
ENCODING -1
SWIDTH 672 0
DWIDTH 7 0
BBX 7 8 -1 0
BITMAP
36
60
F6
66
66
66
66
66
ENDCHAR
STARTCHAR fl
ENCODING -1
SWIDTH 672 0
DWIDTH 7 0
BBX 7 8 -1 0
BITMAP
36
66
F6
66
66
66
66
66
ENDCHAR
STARTCHAR florin
ENCODING 402
SWIDTH 576 0
DWIDTH 6 0
BBX 5 9 0 -2
BITMAP
38
60
F8
60
60
60
60
60
C0
ENDCHAR
STARTCHAR fraction
ENCODING -1
SWIDTH 384 0
DWIDTH 4 0
BBX 5 7 -1 0
BITMAP
08
10
10
20
40
40
80
ENDCHAR
STARTCHAR grave
ENCODING -1
SWIDTH 288 0
DWIDTH 3 0
BBX 2 2 0 6
BITMAP
80
40
ENDCHAR
STARTCHAR guilsinglleft
ENCODING -1
SWIDTH 480 0
DWIDTH 5 0
BBX 3 3 1 1
BITMAP
60
C0
60
ENDCHAR
STARTCHAR guilsinglright
ENCODING -1
SWIDTH 480 0
DWIDTH 5 0
BBX 3 3 1 1
BITMAP
C0
60
C0
ENDCHAR
STARTCHAR hungarumlaut
ENCODING -1
SWIDTH 480 0
DWIDTH 5 0
BBX 4 2 0 6
BITMAP
50
A0
ENDCHAR
STARTCHAR lslash
ENCODING -1
SWIDTH 288 0
DWIDTH 3 0
BBX 4 8 -1 0
BITMAP
60
60
60
70
E0
60
60
60
ENDCHAR
STARTCHAR oe
ENCODING -1
SWIDTH 960 0
DWIDTH 10 0
BBX 9 6 0 0
BITMAP
7700
CD80
CF80
CC00
CD80
7700
ENDCHAR
STARTCHAR ogonek
ENCODING -1
SWIDTH 288 0
DWIDTH 3 0
BBX 2 2 0 -2
BITMAP
80
C0
ENDCHAR
STARTCHAR perthousand
ENCODING -1
SWIDTH 1056 0
DWIDTH 11 0
BBX 10 7 0 0
BITMAP
6200
B400
6800
1000
2D80
56C0
8D80
ENDCHAR
STARTCHAR quotedblbase
ENCODING -1
SWIDTH 576 0
DWIDTH 6 0
BBX 5 3 0 -2
BITMAP
D8
48
90
ENDCHAR
STARTCHAR quotedblleft
ENCODING -1
SWIDTH 576 0
DWIDTH 6 0
BBX 5 3 0 5
BITMAP
48
90
D8
ENDCHAR
STARTCHAR quotedblright
ENCODING -1
SWIDTH 576 0
DWIDTH 6 0
BBX 5 3 0 5
BITMAP
D8
48
90
ENDCHAR
STARTCHAR quotesinglbase
ENCODING -1
SWIDTH 288 0
DWIDTH 3 0
BBX 2 3 0 -2
BITMAP
C0
40
80
ENDCHAR
STARTCHAR quotesingle
ENCODING -1
SWIDTH 288 0
DWIDTH 3 0
BBX 1 3 1 5
BITMAP
80
80
80
ENDCHAR
STARTCHAR ring
ENCODING -1
SWIDTH 384 0
DWIDTH 4 0
BBX 3 3 0 5
BITMAP
40
A0
40
ENDCHAR
STARTCHAR scaron
ENCODING -1
SWIDTH 576 0
DWIDTH 6 0
BBX 5 9 0 0
BITMAP
50
20
00
70
D8
70
18
D8
70
ENDCHAR
STARTCHAR tilde
ENCODING -1
SWIDTH 384 0
DWIDTH 4 0
BBX 4 2 0 6
BITMAP
50
A0
ENDCHAR
STARTCHAR trademark
ENCODING -1
SWIDTH 1056 0
DWIDTH 11 0
BBX 9 4 1 3
BITMAP
E880
4D80
4A80
4A80
ENDCHAR
STARTCHAR zcaron
ENCODING -1
SWIDTH 480 0
DWIDTH 5 0
BBX 5 9 0 0
BITMAP
50
20
00
F8
18
30
60
C0
F8
ENDCHAR
STARTCHAR space
ENCODING 32
SWIDTH 288 0
DWIDTH 3 0
BBX 0 0 0 0
BITMAP
ENDCHAR
STARTCHAR exclam
ENCODING 33
SWIDTH 384 0
DWIDTH 4 0
BBX 2 8 1 0
BITMAP
C0
C0
C0
C0
80
80
00
C0
ENDCHAR
STARTCHAR quotedbl
ENCODING 34
SWIDTH 480 0
DWIDTH 5 0
BBX 3 3 1 5
BITMAP
A0
A0
A0
ENDCHAR
STARTCHAR numbersign
ENCODING 35
SWIDTH 576 0
DWIDTH 6 0
BBX 6 7 0 0
BITMAP
50
50
FC
50
F8
A0
A0
ENDCHAR
STARTCHAR dollar
ENCODING 36
SWIDTH 576 0
DWIDTH 6 0
BBX 5 9 0 -1
BITMAP
20
70
A8
E0
70
38
A8
70
20
ENDCHAR
STARTCHAR percent
ENCODING 37
SWIDTH 768 0
DWIDTH 8 0
BBX 7 8 0 0
BITMAP
62
B4
68
10
10
2C
56
8C
ENDCHAR
STARTCHAR ampersand
ENCODING 38
SWIDTH 768 0
DWIDTH 8 0
BBX 7 8 0 0
BITMAP
70
D8
D8
70
DE
CC
DC
76
ENDCHAR
STARTCHAR quoteright
ENCODING 39
SWIDTH 288 0
DWIDTH 3 0
BBX 2 3 0 5
BITMAP
C0
40
80
ENDCHAR
STARTCHAR parenleft
ENCODING 40
SWIDTH 384 0
DWIDTH 4 0
BBX 3 10 0 -2
BITMAP
20
60
40
C0
C0
C0
C0
40
60
20
ENDCHAR
STARTCHAR parenright
ENCODING 41
SWIDTH 384 0
DWIDTH 4 0
BBX 3 10 0 -2
BITMAP
80
C0
40
60
60
60
60
40
C0
80
ENDCHAR
STARTCHAR asterisk
ENCODING 42
SWIDTH 384 0
DWIDTH 4 0
BBX 3 3 0 5
BITMAP
A0
40
A0
ENDCHAR
STARTCHAR plus
ENCODING 43
SWIDTH 576 0
DWIDTH 6 0
BBX 6 5 0 1
BITMAP
30
30
FC
30
30
ENDCHAR
STARTCHAR comma
ENCODING 44
SWIDTH 288 0
DWIDTH 3 0
BBX 2 4 0 -2
BITMAP
40
40
40
80
ENDCHAR
STARTCHAR minus
ENCODING 45
SWIDTH 672 0
DWIDTH 7 0
BBX 5 1 1 3
BITMAP
F8
ENDCHAR
STARTCHAR period
ENCODING 46
SWIDTH 288 0
DWIDTH 3 0
BBX 1 2 1 0
BITMAP
80
80
ENDCHAR
STARTCHAR slash
ENCODING 47
SWIDTH 384 0
DWIDTH 4 0
BBX 4 8 0 0
BITMAP
10
10
20
20
40
40
80
80
ENDCHAR
STARTCHAR zero
ENCODING 48
SWIDTH 576 0
DWIDTH 6 0
BBX 5 8 0 0
BITMAP
70
D8
D8
D8
D8
D8
D8
70
ENDCHAR
STARTCHAR one
ENCODING 49
SWIDTH 576 0
DWIDTH 6 0
BBX 4 8 0 0
BITMAP
30
F0
30
30
30
30
30
30
ENDCHAR
STARTCHAR two
ENCODING 50
SWIDTH 576 0
DWIDTH 6 0
BBX 5 8 0 0
BITMAP
70
D8
18
18
30
60
C0
F8
ENDCHAR
STARTCHAR three
ENCODING 51
SWIDTH 576 0
DWIDTH 6 0
BBX 5 8 0 0
BITMAP
70
D8
18
30
18
18
D8
70
ENDCHAR
STARTCHAR four
ENCODING 52
SWIDTH 576 0
DWIDTH 6 0
BBX 6 8 0 0
BITMAP
18
38
58
58
98
FC
18
18
ENDCHAR
STARTCHAR five
ENCODING 53
SWIDTH 576 0
DWIDTH 6 0
BBX 5 8 0 0
BITMAP
F8
C0
C0
F0
18
98
D8
70
ENDCHAR
STARTCHAR six
ENCODING 54
SWIDTH 576 0
DWIDTH 6 0
BBX 5 8 0 0
BITMAP
70
D8
C0
F0
D8
D8
D8
70
ENDCHAR
STARTCHAR seven
ENCODING 55
SWIDTH 576 0
DWIDTH 6 0
BBX 5 8 0 0
BITMAP
F8
18
18
30
30
30
60
60
ENDCHAR
STARTCHAR eight
ENCODING 56
SWIDTH 576 0
DWIDTH 6 0
BBX 5 8 0 0
BITMAP
70
D8
D8
70
D8
D8
D8
70
ENDCHAR
STARTCHAR nine
ENCODING 57
SWIDTH 576 0
DWIDTH 6 0
BBX 5 8 0 0
BITMAP
70
D8
D8
D8
78
18
D8
70
ENDCHAR
STARTCHAR colon
ENCODING 58
SWIDTH 288 0
DWIDTH 3 0
BBX 1 6 1 0
BITMAP
80
80
00
00
80
80
ENDCHAR
STARTCHAR semicolon
ENCODING 59
SWIDTH 288 0
DWIDTH 3 0
BBX 2 8 0 -2
BITMAP
40
40
00
00
40
40
40
80
ENDCHAR
STARTCHAR less
ENCODING 60
SWIDTH 480 0
DWIDTH 5 0
BBX 4 5 0 1
BITMAP
30
60
C0
60
30
ENDCHAR
STARTCHAR equal
ENCODING 61
SWIDTH 576 0
DWIDTH 6 0
BBX 5 3 0 2
BITMAP
F8
00
F8
ENDCHAR
STARTCHAR greater
ENCODING 62
SWIDTH 480 0
DWIDTH 5 0
BBX 4 5 0 1
BITMAP
C0
60
30
60
C0
ENDCHAR
STARTCHAR question
ENCODING 63
SWIDTH 576 0
DWIDTH 6 0
BBX 5 8 0 0
BITMAP
70
D8
18
30
60
60
00
60
ENDCHAR
STARTCHAR at
ENCODING 64
SWIDTH 1056 0
DWIDTH 11 0
BBX 10 9 0 -2
BITMAP
1F00
6080
4D40
9240
A240
A480
9B00
4000
3E00
ENDCHAR
STARTCHAR A
ENCODING 65
SWIDTH 768 0
DWIDTH 8 0
BBX 7 8 0 0
BITMAP
38
38
6C
6C
6C
FE
C6
C6
ENDCHAR
STARTCHAR B
ENCODING 66
SWIDTH 672 0
DWIDTH 7 0
BBX 6 8 0 0
BITMAP
F8
CC
CC
F8
CC
CC
CC
F8
ENDCHAR
STARTCHAR C
ENCODING 67
SWIDTH 768 0
DWIDTH 8 0
BBX 7 8 0 0
BITMAP
3C
66
C2
C0
C0
C2
66
3C
ENDCHAR
STARTCHAR D
ENCODING 68
SWIDTH 672 0
DWIDTH 7 0
BBX 6 8 0 0
BITMAP
F0
D8
CC
CC
CC
CC
D8
F0
ENDCHAR
STARTCHAR E
ENCODING 69
SWIDTH 576 0
DWIDTH 6 0
BBX 5 8 0 0
BITMAP
F8
C0
C0
F8
C0
C0
C0
F8
ENDCHAR
STARTCHAR F
ENCODING 70
SWIDTH 576 0
DWIDTH 6 0
BBX 5 8 0 0
BITMAP
F8
C0
C0
F0
C0
C0
C0
C0
ENDCHAR
STARTCHAR G
ENCODING 71
SWIDTH 768 0
DWIDTH 8 0
BBX 7 8 0 0
BITMAP
3C
66
C2
C0
CE
C6
66
3A
ENDCHAR
STARTCHAR H
ENCODING 72
SWIDTH 672 0
DWIDTH 7 0
BBX 6 8 0 0
BITMAP
CC
CC
CC
FC
CC
CC
CC
CC
ENDCHAR
STARTCHAR I
ENCODING 73
SWIDTH 480 0
DWIDTH 5 0
BBX 4 8 0 0
BITMAP
F0
60
60
60
60
60
60
F0
ENDCHAR
STARTCHAR J
ENCODING 74
SWIDTH 576 0
DWIDTH 6 0
BBX 5 8 0 0
BITMAP
18
18
18
18
18
18
D8
70
ENDCHAR
STARTCHAR K
ENCODING 75
SWIDTH 672 0
DWIDTH 7 0
BBX 7 8 0 0
BITMAP
CC
D8
F0
E0
F0
D8
CC
C6
ENDCHAR
STARTCHAR L
ENCODING 76
SWIDTH 576 0
DWIDTH 6 0
BBX 5 8 0 0
BITMAP
C0
C0
C0
C0
C0
C0
C0
F8
ENDCHAR
STARTCHAR M
ENCODING 77
SWIDTH 960 0
DWIDTH 10 0
BBX 9 8 0 0
BITMAP
C180
E380
E380
F780
D580
DD80
C980
C980
ENDCHAR
STARTCHAR N
ENCODING 78
SWIDTH 768 0
DWIDTH 8 0
BBX 7 8 0 0
BITMAP
C6
E6
E6
D6
D6
CE
CE
C6
ENDCHAR
STARTCHAR O
ENCODING 79
SWIDTH 768 0
DWIDTH 8 0
BBX 7 8 0 0
BITMAP
38
6C
C6
C6
C6
C6
6C
38
ENDCHAR
STARTCHAR P
ENCODING 80
SWIDTH 672 0
DWIDTH 7 0
BBX 6 8 0 0
BITMAP
F8
CC
CC
CC
F8
C0
C0
C0
ENDCHAR
STARTCHAR Q
ENCODING 81
SWIDTH 768 0
DWIDTH 8 0
BBX 7 9 0 -1
BITMAP
38
6C
C6
C6
C6
D6
6C
3C
02
ENDCHAR
STARTCHAR R
ENCODING 82
SWIDTH 672 0
DWIDTH 7 0
BBX 6 8 0 0
BITMAP
F8
CC
CC
CC
F8
CC
CC
CC
ENDCHAR
STARTCHAR S
ENCODING 83
SWIDTH 672 0
DWIDTH 7 0
BBX 6 8 0 0
BITMAP
78
CC
E0
78
1C
8C
CC
78
ENDCHAR
STARTCHAR T
ENCODING 84
SWIDTH 672 0
DWIDTH 7 0
BBX 6 8 0 0
BITMAP
FC
30
30
30
30
30
30
30
ENDCHAR
STARTCHAR U
ENCODING 85
SWIDTH 672 0
DWIDTH 7 0
BBX 6 8 0 0
BITMAP
CC
CC
CC
CC
CC
CC
CC
78
ENDCHAR
STARTCHAR V
ENCODING 86
SWIDTH 768 0
DWIDTH 8 0
BBX 7 8 0 0
BITMAP
C6
C6
6C
6C
6C
38
38
10
ENDCHAR
STARTCHAR W
ENCODING 87
SWIDTH 1056 0
DWIDTH 11 0
BBX 10 8 0 0
BITMAP
CCC0
CCC0
CCC0
6D80
6D80
7F80
3300
2100
ENDCHAR
STARTCHAR X
ENCODING 88
SWIDTH 768 0
DWIDTH 8 0
BBX 7 8 0 0
BITMAP
C6
C6
6C
38
38
6C
C6
C6
ENDCHAR
STARTCHAR Y
ENCODING 89
SWIDTH 864 0
DWIDTH 9 0
BBX 8 8 0 0
BITMAP
C3
C3
66
3C
18
18
18
18
ENDCHAR
STARTCHAR Z
ENCODING 90
SWIDTH 672 0
DWIDTH 7 0
BBX 6 8 0 0
BITMAP
FC
0C
18
30
70
60
C0
FC
ENDCHAR
STARTCHAR bracketleft
ENCODING 91
SWIDTH 384 0
DWIDTH 4 0
BBX 3 10 0 -2
BITMAP
E0
C0
C0
C0
C0
C0
C0
C0
C0
E0
ENDCHAR
STARTCHAR backslash
ENCODING 92
SWIDTH 384 0
DWIDTH 4 0
BBX 4 8 0 0
BITMAP
80
80
40
40
20
20
10
10
ENDCHAR
STARTCHAR bracketright
ENCODING 93
SWIDTH 384 0
DWIDTH 4 0
BBX 3 10 0 -2
BITMAP
E0
60
60
60
60
60
60
60
60
E0
ENDCHAR
STARTCHAR asciicircum
ENCODING 94
SWIDTH 480 0
DWIDTH 5 0
BBX 5 4 0 4
BITMAP
20
70
D8
88
ENDCHAR
STARTCHAR underscore
ENCODING 95
SWIDTH 576 0
DWIDTH 6 0
BBX 6 1 0 -2
BITMAP
FC
ENDCHAR
STARTCHAR quoteleft
ENCODING 96
SWIDTH 288 0
DWIDTH 3 0
BBX 2 3 0 5
BITMAP
40
80
C0
ENDCHAR
STARTCHAR a
ENCODING 97
SWIDTH 576 0
DWIDTH 6 0
BBX 6 6 0 0
BITMAP
70
98
78
D8
D8
6C
ENDCHAR
STARTCHAR b
ENCODING 98
SWIDTH 576 0
DWIDTH 6 0
BBX 5 8 0 0
BITMAP
C0
C0
F0
D8
C8
C8
D8
F0
ENDCHAR
STARTCHAR c
ENCODING 99
SWIDTH 480 0
DWIDTH 5 0
BBX 4 6 0 0
BITMAP
70
D0
C0
C0
D0
70
ENDCHAR
STARTCHAR d
ENCODING 100
SWIDTH 576 0
DWIDTH 6 0
BBX 5 8 0 0
BITMAP
18
18
78
D8
98
98
D8
78
ENDCHAR
STARTCHAR e
ENCODING 101
SWIDTH 576 0
DWIDTH 6 0
BBX 5 6 0 0
BITMAP
70
D8
F8
C0
D8
70
ENDCHAR
STARTCHAR f
ENCODING 102
SWIDTH 384 0
DWIDTH 4 0
BBX 4 8 0 0
BITMAP
70
C0
E0
C0
C0
C0
C0
C0
ENDCHAR
STARTCHAR g
ENCODING 103
SWIDTH 576 0
DWIDTH 6 0
BBX 5 8 0 -2
BITMAP
68
D8
98
98
D8
78
18
70
ENDCHAR
STARTCHAR h
ENCODING 104
SWIDTH 576 0
DWIDTH 6 0
BBX 5 8 0 0
BITMAP
C0
C0
F0
D8
D8
D8
D8
D8
ENDCHAR
STARTCHAR i
ENCODING 105
SWIDTH 288 0
DWIDTH 3 0
BBX 2 8 0 0
BITMAP
C0
00
C0
C0
C0
C0
C0
C0
ENDCHAR
STARTCHAR j
ENCODING 106
SWIDTH 384 0
DWIDTH 4 0
BBX 3 10 0 -2
BITMAP
60
00
60
60
60
60
60
60
60
C0
ENDCHAR
STARTCHAR k
ENCODING 107
SWIDTH 576 0
DWIDTH 6 0
BBX 6 8 0 0
BITMAP
C0
C0
D8
F0
E0
F0
D8
CC
ENDCHAR
STARTCHAR l
ENCODING 108
SWIDTH 288 0
DWIDTH 3 0
BBX 2 8 0 0
BITMAP
C0
C0
C0
C0
C0
C0
C0
C0
ENDCHAR
STARTCHAR m
ENCODING 109
SWIDTH 864 0
DWIDTH 9 0
BBX 8 6 0 0
BITMAP
B6
DB
DB
DB
DB
DB
ENDCHAR
STARTCHAR n
ENCODING 110
SWIDTH 576 0
DWIDTH 6 0
BBX 5 6 0 0
BITMAP
B0
D8
D8
D8
D8
D8
ENDCHAR
STARTCHAR o
ENCODING 111
SWIDTH 576 0
DWIDTH 6 0
BBX 5 6 0 0
BITMAP
70
D8
D8
D8
D8
70
ENDCHAR
STARTCHAR p
ENCODING 112
SWIDTH 576 0
DWIDTH 6 0
BBX 5 8 0 -2
BITMAP
B0
D8
C8
C8
D8
F0
C0
C0
ENDCHAR
STARTCHAR q
ENCODING 113
SWIDTH 576 0
DWIDTH 6 0
BBX 5 8 0 -2
BITMAP
68
D8
98
98
D8
78
18
18
ENDCHAR
STARTCHAR r
ENCODING 114
SWIDTH 384 0
DWIDTH 4 0
BBX 4 6 0 0
BITMAP
B0
E0
C0
C0
C0
C0
ENDCHAR
STARTCHAR s
ENCODING 115
SWIDTH 576 0
DWIDTH 6 0
BBX 5 6 0 0
BITMAP
70
D8
70
18
D8
70
ENDCHAR
STARTCHAR t
ENCODING 116
SWIDTH 384 0
DWIDTH 4 0
BBX 3 8 0 0
BITMAP
C0
C0
E0
C0
C0
C0
C0
60
ENDCHAR
STARTCHAR u
ENCODING 117
SWIDTH 576 0
DWIDTH 6 0
BBX 5 6 0 0
BITMAP
D8
D8
D8
D8
D8
68
ENDCHAR
STARTCHAR v
ENCODING 118
SWIDTH 576 0
DWIDTH 6 0
BBX 5 6 0 0
BITMAP
D8
D8
D8
50
70
20
ENDCHAR
STARTCHAR w
ENCODING 119
SWIDTH 768 0
DWIDTH 8 0
BBX 7 6 0 0
BITMAP
D6
D6
D6
6C
6C
6C
ENDCHAR
STARTCHAR x
ENCODING 120
SWIDTH 672 0
DWIDTH 7 0
BBX 6 6 0 0
BITMAP
CC
78
30
78
CC
CC
ENDCHAR
STARTCHAR y
ENCODING 121
SWIDTH 576 0
DWIDTH 6 0
BBX 5 8 0 -2
BITMAP
D8
D8
D8
D8
78
30
30
60
ENDCHAR
STARTCHAR z
ENCODING 122
SWIDTH 576 0
DWIDTH 6 0
BBX 5 6 0 0
BITMAP
F8
18
30
60
C0
F8
ENDCHAR
STARTCHAR braceleft
ENCODING 123
SWIDTH 480 0
DWIDTH 5 0
BBX 4 10 0 -2
BITMAP
30
60
60
60
C0
60
60
60
60
30
ENDCHAR
STARTCHAR bar
ENCODING 124
SWIDTH 288 0
DWIDTH 3 0
BBX 1 10 1 -2
BITMAP
80
80
80
80
80
80
80
80
80
80
ENDCHAR
STARTCHAR braceright
ENCODING 125
SWIDTH 480 0
DWIDTH 5 0
BBX 4 10 0 -2
BITMAP
C0
60
60
60
30
60
60
60
60
C0
ENDCHAR
STARTCHAR asciitilde
ENCODING 126
SWIDTH 576 0
DWIDTH 6 0
BBX 6 2 0 2
BITMAP
6C
D8
ENDCHAR
STARTCHAR space
ENCODING 160
SWIDTH 288 0
DWIDTH 3 0
BBX 0 0 0 0
BITMAP
ENDCHAR
STARTCHAR exclamdown
ENCODING 161
SWIDTH 384 0
DWIDTH 4 0
BBX 2 8 1 -2
BITMAP
C0
00
40
40
C0
C0
C0
C0
ENDCHAR
STARTCHAR cent
ENCODING 162
SWIDTH 576 0
DWIDTH 6 0
BBX 5 8 0 -1
BITMAP
10
70
D8
A0
A0
D8
70
40
ENDCHAR
STARTCHAR sterling
ENCODING 163
SWIDTH 576 0
DWIDTH 6 0
BBX 5 8 0 0
BITMAP
38
68
60
F0
60
60
68
D8
ENDCHAR
STARTCHAR currency
ENCODING 164
SWIDTH 576 0
DWIDTH 6 0
BBX 5 6 0 1
BITMAP
D8
70
D8
D8
70
D8
ENDCHAR
STARTCHAR yen
ENCODING 165
SWIDTH 672 0
DWIDTH 7 0
BBX 6 8 0 0
BITMAP
84
CC
48
78
FC
30
FC
30
ENDCHAR
STARTCHAR brokenbar
ENCODING 166
SWIDTH 288 0
DWIDTH 3 0
BBX 1 10 1 -2
BITMAP
80
80
80
80
00
00
80
80
80
80
ENDCHAR
STARTCHAR section
ENCODING 167
SWIDTH 576 0
DWIDTH 6 0
BBX 5 10 0 -2
BITMAP
70
C8
E0
70
98
C8
70
38
98
70
ENDCHAR
STARTCHAR dieresis
ENCODING 168
SWIDTH 288 0
DWIDTH 3 0
BBX 3 1 0 7
BITMAP
A0
ENDCHAR
STARTCHAR copyright
ENCODING 169
SWIDTH 960 0
DWIDTH 10 0
BBX 8 8 1 0
BITMAP
3C
42
99
A5
A1
9D
42
3C
ENDCHAR
STARTCHAR ordfeminine
ENCODING 170
SWIDTH 480 0
DWIDTH 5 0
BBX 3 5 1 3
BITMAP
E0
20
A0
00
E0
ENDCHAR
STARTCHAR guillemotleft
ENCODING 171
SWIDTH 672 0
DWIDTH 7 0
BBX 6 3 0 1
BITMAP
6C
D8
6C
ENDCHAR
STARTCHAR logicalnot
ENCODING 172
SWIDTH 672 0
DWIDTH 7 0
BBX 5 3 1 2
BITMAP
F8
08
08
ENDCHAR
STARTCHAR hyphen
ENCODING 173
SWIDTH 480 0
DWIDTH 5 0
BBX 4 1 0 3
BITMAP
F0
ENDCHAR
STARTCHAR registered
ENCODING 174
SWIDTH 960 0
DWIDTH 10 0
BBX 8 8 1 0
BITMAP
3C
42
BD
A5
B9
A5
42
3C
ENDCHAR
STARTCHAR macron
ENCODING 175
SWIDTH 288 0
DWIDTH 3 0
BBX 3 1 0 7
BITMAP
E0
ENDCHAR
STARTCHAR degree
ENCODING 176
SWIDTH 384 0
DWIDTH 4 0
BBX 3 3 1 4
BITMAP
60
A0
C0
ENDCHAR
STARTCHAR plusminus
ENCODING 177
SWIDTH 576 0
DWIDTH 6 0
BBX 6 7 0 0
BITMAP
30
30
FC
30
30
00
FC
ENDCHAR
STARTCHAR twosuperior
ENCODING 178
SWIDTH 288 0
DWIDTH 3 0
BBX 3 4 0 3
BITMAP
60
A0
40
E0
ENDCHAR
STARTCHAR threesuperior
ENCODING 179
SWIDTH 288 0
DWIDTH 3 0
BBX 3 4 0 3
BITMAP
E0
40
20
C0
ENDCHAR
STARTCHAR acute
ENCODING 180
SWIDTH 288 0
DWIDTH 3 0
BBX 2 2 0 7
BITMAP
40
80
ENDCHAR
STARTCHAR mu
ENCODING 181
SWIDTH 576 0
DWIDTH 6 0
BBX 5 8 0 -2
BITMAP
D8
D8
D8
D8
D8
E8
C0
C0
ENDCHAR
STARTCHAR paragraph
ENCODING 182
SWIDTH 576 0
DWIDTH 6 0
BBX 6 10 0 -2
BITMAP
7C
E8
E8
E8
68
28
28
28
28
28
ENDCHAR
STARTCHAR periodcentered
ENCODING 183
SWIDTH 288 0
DWIDTH 3 0
BBX 2 1 0 3
BITMAP
C0
ENDCHAR
STARTCHAR cedilla
ENCODING 184
SWIDTH 288 0
DWIDTH 3 0
BBX 2 2 0 -2
BITMAP
40
C0
ENDCHAR
STARTCHAR onesuperior
ENCODING 185
SWIDTH 288 0
DWIDTH 3 0
BBX 2 4 0 3
BITMAP
40
C0
40
40
ENDCHAR
STARTCHAR ordmasculine
ENCODING 186
SWIDTH 480 0
DWIDTH 5 0
BBX 3 5 1 3
BITMAP
E0
A0
E0
00
E0
ENDCHAR
STARTCHAR guillemotright
ENCODING 187
SWIDTH 672 0
DWIDTH 7 0
BBX 6 3 0 1
BITMAP
D8
6C
D8
ENDCHAR
STARTCHAR onequarter
ENCODING 188
SWIDTH 864 0
DWIDTH 9 0
BBX 8 8 0 0
BITMAP
42
C4
48
48
12
26
2F
42
ENDCHAR
STARTCHAR onehalf
ENCODING 189
SWIDTH 864 0
DWIDTH 9 0
BBX 7 8 0 0
BITMAP
42
C4
48
48
16
2A
24
4E
ENDCHAR
STARTCHAR threequarters
ENCODING 190
SWIDTH 864 0
DWIDTH 9 0
BBX 8 8 0 0
BITMAP
E2
44
28
C8
12
26
2F
42
ENDCHAR
STARTCHAR questiondown
ENCODING 191
SWIDTH 576 0
DWIDTH 6 0
BBX 5 8 0 -2
BITMAP
30
00
30
30
60
C0
D8
70
ENDCHAR
STARTCHAR Agrave
ENCODING 192
SWIDTH 768 0
DWIDTH 8 0
BBX 7 11 0 0
BITMAP
20
10
00
38
38
6C
6C
6C
FE
C6
C6
ENDCHAR
STARTCHAR Aacute
ENCODING 193
SWIDTH 768 0
DWIDTH 8 0
BBX 7 11 0 0
BITMAP
08
10
00
38
38
6C
6C
6C
FE
C6
C6
ENDCHAR
STARTCHAR Acircumflex
ENCODING 194
SWIDTH 768 0
DWIDTH 8 0
BBX 7 11 0 0
BITMAP
10
28
00
38
38
6C
6C
6C
FE
C6
C6
ENDCHAR
STARTCHAR Atilde
ENCODING 195
SWIDTH 768 0
DWIDTH 8 0
BBX 7 11 0 0
BITMAP
14
28
00
38
38
6C
6C
6C
FE
C6
C6
ENDCHAR
STARTCHAR Adieresis
ENCODING 196
SWIDTH 768 0
DWIDTH 8 0
BBX 7 10 0 0
BITMAP
28
00
38
38
6C
6C
6C
FE
C6
C6
ENDCHAR
STARTCHAR Aring
ENCODING 197
SWIDTH 768 0
DWIDTH 8 0
BBX 7 11 0 0
BITMAP
10
28
10
38
38
6C
6C
6C
FE
C6
C6
ENDCHAR
STARTCHAR AE
ENCODING 198
SWIDTH 960 0
DWIDTH 10 0
BBX 9 8 0 0
BITMAP
3F80
3C00
6C00
6F80
6C00
FC00
CC00
CF80
ENDCHAR
STARTCHAR Ccedilla
ENCODING 199
SWIDTH 768 0
DWIDTH 8 0
BBX 7 10 0 -2
BITMAP
3C
66
C2
C0
C0
C2
66
3C
10
30
ENDCHAR
STARTCHAR Egrave
ENCODING 200
SWIDTH 576 0
DWIDTH 6 0
BBX 5 11 0 0
BITMAP
40
20
00
F8
C0
C0
F8
C0
C0
C0
F8
ENDCHAR
STARTCHAR Eacute
ENCODING 201
SWIDTH 576 0
DWIDTH 6 0
BBX 5 11 0 0
BITMAP
10
20
00
F8
C0
C0
F8
C0
C0
C0
F8
ENDCHAR
STARTCHAR Ecircumflex
ENCODING 202
SWIDTH 576 0
DWIDTH 6 0
BBX 5 11 0 0
BITMAP
20
50
00
F8
C0
C0
F8
C0
C0
C0
F8
ENDCHAR
STARTCHAR Edieresis
ENCODING 203
SWIDTH 576 0
DWIDTH 6 0
BBX 5 10 0 0
BITMAP
50
00
F8
C0
C0
F8
C0
C0
C0
F8
ENDCHAR
STARTCHAR Igrave
ENCODING 204
SWIDTH 288 0
DWIDTH 3 0
BBX 2 11 0 0
BITMAP
80
40
00
C0
C0
C0
C0
C0
C0
C0
C0
ENDCHAR
STARTCHAR Iacute
ENCODING 205
SWIDTH 288 0
DWIDTH 3 0
BBX 2 11 0 0
BITMAP
40
80
00
C0
C0
C0
C0
C0
C0
C0
C0
ENDCHAR
STARTCHAR Icircumflex
ENCODING 206
SWIDTH 288 0
DWIDTH 3 0
BBX 3 11 0 0
BITMAP
40
A0
00
C0
C0
C0
C0
C0
C0
C0
C0
ENDCHAR
STARTCHAR Idieresis
ENCODING 207
SWIDTH 288 0
DWIDTH 3 0
BBX 3 10 0 0
BITMAP
A0
00
C0
C0
C0
C0
C0
C0
C0
C0
ENDCHAR
STARTCHAR Eth
ENCODING 208
SWIDTH 672 0
DWIDTH 7 0
BBX 6 8 0 0
BITMAP
F0
D8
CC
EC
CC
CC
D8
F0
ENDCHAR
STARTCHAR Ntilde
ENCODING 209
SWIDTH 768 0
DWIDTH 8 0
BBX 7 11 0 0
BITMAP
14
28
00
C6
C6
E6
D6
D6
CE
CE
C6
ENDCHAR
STARTCHAR Ograve
ENCODING 210
SWIDTH 768 0
DWIDTH 8 0
BBX 7 11 0 0
BITMAP
20
10
00
38
6C
C6
C6
C6
C6
6C
38
ENDCHAR
STARTCHAR Oacute
ENCODING 211
SWIDTH 768 0
DWIDTH 8 0
BBX 7 11 0 0
BITMAP
04
08
00
38
6C
C6
C6
C6
C6
6C
38
ENDCHAR
STARTCHAR Ocircumflex
ENCODING 212
SWIDTH 768 0
DWIDTH 8 0
BBX 7 11 0 0
BITMAP
10
28
00
38
6C
C6
C6
C6
C6
6C
38
ENDCHAR
STARTCHAR Otilde
ENCODING 213
SWIDTH 768 0
DWIDTH 8 0
BBX 7 11 0 0
BITMAP
14
28
00
38
6C
C6
C6
C6
C6
6C
38
ENDCHAR
STARTCHAR Odieresis
ENCODING 214
SWIDTH 768 0
DWIDTH 8 0
BBX 7 10 0 0
BITMAP
28
00
38
6C
C6
C6
C6
C6
6C
38
ENDCHAR
STARTCHAR multiply
ENCODING 215
SWIDTH 576 0
DWIDTH 6 0
BBX 6 5 0 1
BITMAP
CC
78
30
78
CC
ENDCHAR
STARTCHAR Oslash
ENCODING 216
SWIDTH 768 0
DWIDTH 8 0
BBX 7 8 0 0
BITMAP
3A
6C
CE
D6
D6
E6
6C
B8
ENDCHAR
STARTCHAR Ugrave
ENCODING 217
SWIDTH 672 0
DWIDTH 7 0
BBX 6 11 0 0
BITMAP
20
10
00
CC
CC
CC
CC
CC
CC
CC
78
ENDCHAR
STARTCHAR Uacute
ENCODING 218
SWIDTH 672 0
DWIDTH 7 0
BBX 6 11 0 0
BITMAP
08
10
00
CC
CC
CC
CC
CC
CC
CC
78
ENDCHAR
STARTCHAR Ucircumflex
ENCODING 219
SWIDTH 672 0
DWIDTH 7 0
BBX 6 11 0 0
BITMAP
10
28
00
CC
CC
CC
CC
CC
CC
CC
78
ENDCHAR
STARTCHAR Udieresis
ENCODING 220
SWIDTH 672 0
DWIDTH 7 0
BBX 6 10 0 0
BITMAP
28
00
CC
CC
CC
CC
CC
CC
CC
78
ENDCHAR
STARTCHAR Yacute
ENCODING 221
SWIDTH 864 0
DWIDTH 9 0
BBX 8 11 0 0
BITMAP
04
08
00
C3
C3
66
66
3C
18
18
18
ENDCHAR
STARTCHAR Thorn
ENCODING 222
SWIDTH 672 0
DWIDTH 7 0
BBX 6 8 0 0
BITMAP
C0
F8
CC
CC
CC
F8
C0
C0
ENDCHAR
STARTCHAR germandbls
ENCODING 223
SWIDTH 576 0
DWIDTH 6 0
BBX 5 8 0 0
BITMAP
70
C8
C8
D0
C8
C8
C8
D0
ENDCHAR
STARTCHAR agrave
ENCODING 224
SWIDTH 576 0
DWIDTH 6 0
BBX 6 9 0 0
BITMAP
40
20
00
70
98
78
D8
D8
6C
ENDCHAR
STARTCHAR aacute
ENCODING 225
SWIDTH 576 0
DWIDTH 6 0
BBX 6 9 0 0
BITMAP
08
10
00
70
98
78
D8
D8
6C
ENDCHAR
STARTCHAR acircumflex
ENCODING 226
SWIDTH 576 0
DWIDTH 6 0
BBX 6 9 0 0
BITMAP
30
68
00
70
98
78
D8
D8
6C
ENDCHAR
STARTCHAR atilde
ENCODING 227
SWIDTH 576 0
DWIDTH 6 0
BBX 6 9 0 0
BITMAP
28
50
00
70
98
78
D8
D8
6C
ENDCHAR
STARTCHAR adieresis
ENCODING 228
SWIDTH 576 0
DWIDTH 6 0
BBX 6 9 0 0
BITMAP
50
50
00
70
98
78
D8
D8
6C
ENDCHAR
STARTCHAR aring
ENCODING 229
SWIDTH 576 0
DWIDTH 6 0
BBX 6 9 0 0
BITMAP
20
50
20
70
98
78
D8
D8
6C
ENDCHAR
STARTCHAR ae
ENCODING 230
SWIDTH 864 0
DWIDTH 9 0
BBX 8 6 0 0
BITMAP
7E
9B
7F
D8
DB
6E
ENDCHAR
STARTCHAR ccedilla
ENCODING 231
SWIDTH 480 0
DWIDTH 5 0
BBX 4 8 0 -2
BITMAP
70
D0
C0
C0
D0
70
20
60
ENDCHAR
STARTCHAR egrave
ENCODING 232
SWIDTH 576 0
DWIDTH 6 0
BBX 5 9 0 0
BITMAP
40
20
00
70
D8
F8
C0
D8
70
ENDCHAR
STARTCHAR eacute
ENCODING 233
SWIDTH 576 0
DWIDTH 6 0
BBX 5 9 0 0
BITMAP
10
20
00
70
D8
F8
C0
D8
70
ENDCHAR
STARTCHAR ecircumflex
ENCODING 234
SWIDTH 576 0
DWIDTH 6 0
BBX 5 9 0 0
BITMAP
20
50
00
70
D8
F8
C0
D8
70
ENDCHAR
STARTCHAR edieresis
ENCODING 235
SWIDTH 576 0
DWIDTH 6 0
BBX 5 9 0 0
BITMAP
50
50
00
70
D8
F8
C0
D8
70
ENDCHAR
STARTCHAR igrave
ENCODING 236
SWIDTH 288 0
DWIDTH 3 0
BBX 2 9 0 0
BITMAP
80
40
00
C0
C0
C0
C0
C0
C0
ENDCHAR
STARTCHAR iacute
ENCODING 237
SWIDTH 288 0
DWIDTH 3 0
BBX 3 9 0 0
BITMAP
20
40
00
C0
C0
C0
C0
C0
C0
ENDCHAR
STARTCHAR icircumflex
ENCODING 238
SWIDTH 288 0
DWIDTH 3 0
BBX 3 9 -1 0
BITMAP
40
A0
00
60
60
60
60
60
60
ENDCHAR
STARTCHAR idieresis
ENCODING 239
SWIDTH 288 0
DWIDTH 3 0
BBX 3 9 0 0
BITMAP
A0
A0
00
C0
C0
C0
C0
C0
C0
ENDCHAR
STARTCHAR eth
ENCODING 240
SWIDTH 576 0
DWIDTH 6 0
BBX 5 9 0 0
BITMAP
50
60
A0
70
D8
D8
D8
D8
70
ENDCHAR
STARTCHAR ntilde
ENCODING 241
SWIDTH 576 0
DWIDTH 6 0
BBX 5 9 0 0
BITMAP
28
50
00
B0
D8
D8
D8
D8
D8
ENDCHAR
STARTCHAR ograve
ENCODING 242
SWIDTH 576 0
DWIDTH 6 0
BBX 5 9 0 0
BITMAP
40
20
00
70
D8
D8
D8
D8
70
ENDCHAR
STARTCHAR oacute
ENCODING 243
SWIDTH 576 0
DWIDTH 6 0
BBX 5 9 0 0
BITMAP
10
20
00
70
D8
D8
D8
D8
70
ENDCHAR
STARTCHAR ocircumflex
ENCODING 244
SWIDTH 576 0
DWIDTH 6 0
BBX 5 9 0 0
BITMAP
20
50
00
70
D8
D8
D8
D8
70
ENDCHAR
STARTCHAR otilde
ENCODING 245
SWIDTH 576 0
DWIDTH 6 0
BBX 5 9 0 0
BITMAP
50
A0
00
70
D8
D8
D8
D8
70
ENDCHAR
STARTCHAR odieresis
ENCODING 246
SWIDTH 576 0
DWIDTH 6 0
BBX 5 9 0 0
BITMAP
50
50
00
70
D8
D8
D8
D8
70
ENDCHAR
STARTCHAR divide
ENCODING 247
SWIDTH 576 0
DWIDTH 6 0
BBX 6 5 0 1
BITMAP
30
00
FC
00
30
ENDCHAR
STARTCHAR oslash
ENCODING 248
SWIDTH 576 0
DWIDTH 6 0
BBX 6 6 0 0
BITMAP
74
D8
F8
D8
D8
70
ENDCHAR
STARTCHAR ugrave
ENCODING 249
SWIDTH 576 0
DWIDTH 6 0
BBX 5 9 0 0
BITMAP
40
20
00
D8
D8
D8
D8
D8
68
ENDCHAR
STARTCHAR uacute
ENCODING 250
SWIDTH 576 0
DWIDTH 6 0
BBX 5 9 0 0
BITMAP
10
20
00
D8
D8
D8
D8
D8
68
ENDCHAR
STARTCHAR ucircumflex
ENCODING 251
SWIDTH 576 0
DWIDTH 6 0
BBX 5 9 0 0
BITMAP
20
50
00
D8
D8
D8
D8
D8
68
ENDCHAR
STARTCHAR udieresis
ENCODING 252
SWIDTH 576 0
DWIDTH 6 0
BBX 5 9 0 0
BITMAP
50
50
00
D8
D8
D8
D8
D8
68
ENDCHAR
STARTCHAR yacute
ENCODING 253
SWIDTH 576 0
DWIDTH 6 0
BBX 5 11 0 -2
BITMAP
10
20
00
D8
D8
D8
D8
78
30
30
60
ENDCHAR
STARTCHAR thorn
ENCODING 254
SWIDTH 576 0
DWIDTH 6 0
BBX 5 10 0 -2
BITMAP
C0
C0
F0
D8
C8
C8
D8
F0
C0
C0
ENDCHAR
STARTCHAR ydieresis
ENCODING 255
SWIDTH 576 0
DWIDTH 6 0
BBX 5 11 0 -2
BITMAP
50
50
00
D8
D8
D8
D8
78
30
30
60
ENDCHAR
STARTCHAR OE
ENCODING 338
SWIDTH 960 0
DWIDTH 10 0
BBX 9 8 0 0
BITMAP
3F80
6C00
CC00
CF80
CC00
CC00
6C00
3F80
ENDCHAR
STARTCHAR oe
ENCODING 339
SWIDTH 960 0
DWIDTH 10 0
BBX 9 6 0 0
BITMAP
7700
CD80
CF80
CC00
CD80
7700
ENDCHAR
STARTCHAR Scaron
ENCODING 352
SWIDTH 672 0
DWIDTH 7 0
BBX 6 9 0 0
BITMAP
28
10
00
78
CC
70
3C
CC
78
ENDCHAR
STARTCHAR scaron
ENCODING 353
SWIDTH 576 0
DWIDTH 6 0
BBX 5 9 0 0
BITMAP
50
20
00
70
D8
70
18
D8
70
ENDCHAR
STARTCHAR Ydieresis
ENCODING 376
SWIDTH 768 0
DWIDTH 8 0
BBX 8 8 0 0
BITMAP
14
00
C3
66
3C
18
18
18
ENDCHAR
STARTCHAR Zcaron
ENCODING 381
SWIDTH 672 0
DWIDTH 7 0
BBX 6 9 0 0
BITMAP
28
10
00
FC
18
30
60
C0
FC
ENDCHAR
STARTCHAR zcaron
ENCODING 382
SWIDTH 480 0
DWIDTH 5 0
BBX 5 9 0 0
BITMAP
50
20
00
F8
18
30
60
C0
F8
ENDCHAR
STARTCHAR circumflex
ENCODING 710
SWIDTH 384 0
DWIDTH 4 0
BBX 3 2 0 6
BITMAP
40
A0
ENDCHAR
STARTCHAR tilde
ENCODING 732
SWIDTH 384 0
DWIDTH 4 0
BBX 4 2 0 6
BITMAP
50
A0
ENDCHAR
STARTCHAR A
ENCODING 913
SWIDTH 768 0
DWIDTH 8 0
BBX 7 8 0 0
BITMAP
38
38
6C
6C
6C
FE
C6
C6
ENDCHAR
STARTCHAR B
ENCODING 914
SWIDTH 672 0
DWIDTH 7 0
BBX 6 8 0 0
BITMAP
F8
CC
CC
F8
CC
CC
CC
F8
ENDCHAR
STARTCHAR Gamma
ENCODING 915
SWIDTH 576 0
DWIDTH 6 0
BBX 6 8 0 0
BITMAP
FC
C0
C0
C0
C0
C0
C0
C0
ENDCHAR
STARTCHAR Delta
ENCODING 916
SWIDTH 768 0
DWIDTH 8 0
BBX 8 9 0 0
BITMAP
18
18
3C
3C
66
66
C3
C3
FF
ENDCHAR
STARTCHAR E
ENCODING 917
SWIDTH 576 0
DWIDTH 6 0
BBX 6 8 0 0
BITMAP
FC
C0
C0
FC
C0
C0
C0
FC
ENDCHAR
STARTCHAR Z
ENCODING 918
SWIDTH 576 0
DWIDTH 6 0
BBX 6 8 0 0
BITMAP
FC
0C
18
30
30
60
C0
FC
ENDCHAR
STARTCHAR H
ENCODING 919
SWIDTH 672 0
DWIDTH 7 0
BBX 7 8 0 0
BITMAP
C6
C6
C6
FE
C6
C6
C6
C6
ENDCHAR
STARTCHAR Theta
ENCODING 920
SWIDTH 672 0
DWIDTH 7 0
BBX 7 8 0 0
BITMAP
7C
C6
C6
FE
C6
C6
C6
7C
ENDCHAR
STARTCHAR I
ENCODING 921
SWIDTH 384 0
DWIDTH 4 0
BBX 4 8 0 0
BITMAP
F0
60
60
60
60
60
60
F0
ENDCHAR
STARTCHAR K
ENCODING 922
SWIDTH 576 0
DWIDTH 6 0
BBX 6 8 0 0
BITMAP
CC
D8
F0
F0
D8
D8
CC
CC
ENDCHAR
STARTCHAR Lambda
ENCODING 923
SWIDTH 768 0
DWIDTH 8 0
BBX 8 9 0 0
BITMAP
18
18
3C
3C
66
66
C3
C3
C3
ENDCHAR
STARTCHAR M
ENCODING 924
SWIDTH 768 0
DWIDTH 8 0
BBX 8 8 0 0
BITMAP
C3
E7
E7
FF
FF
DB
DB
DB
ENDCHAR
STARTCHAR N
ENCODING 925
SWIDTH 672 0
DWIDTH 7 0
BBX 7 8 0 0
BITMAP
E6
E6
F6
F6
DE
DE
CE
CE
ENDCHAR
STARTCHAR Xi
ENCODING 926
SWIDTH 672 0
DWIDTH 7 0
BBX 7 8 0 0
BITMAP
FE
00
00
7C
00
00
00
FE
ENDCHAR
STARTCHAR O
ENCODING 927
SWIDTH 672 0
DWIDTH 7 0
BBX 7 8 0 0
BITMAP
7C
C6
C6
C6
C6
C6
C6
7C
ENDCHAR
STARTCHAR Pi
ENCODING 928
SWIDTH 672 0
DWIDTH 7 0
BBX 7 8 0 0
BITMAP
FE
6C
6C
6C
6C
6C
6C
6C
ENDCHAR
STARTCHAR P
ENCODING 929
SWIDTH 576 0
DWIDTH 6 0
BBX 6 8 0 0
BITMAP
F8
CC
CC
F8
C0
C0
C0
C0
ENDCHAR
STARTCHAR Sigma
ENCODING 931
SWIDTH 672 0
DWIDTH 7 0
BBX 7 8 0 0
BITMAP
FE
C0
60
30
30
60
C0
FE
ENDCHAR
STARTCHAR T
ENCODING 932
SWIDTH 576 0
DWIDTH 6 0
BBX 6 8 0 0
BITMAP
FC
30
30
30
30
30
30
30
ENDCHAR
STARTCHAR Y
ENCODING 933
SWIDTH 576 0
DWIDTH 6 0
BBX 6 8 0 0
BITMAP
CC
CC
CC
78
30
30
30
30
ENDCHAR
STARTCHAR Phi
ENCODING 934
SWIDTH 864 0
DWIDTH 9 0
BBX 8 8 0 0
BITMAP
18
7E
DB
DB
DB
DB
7E
18
ENDCHAR
STARTCHAR X
ENCODING 935
SWIDTH 576 0
DWIDTH 6 0
BBX 6 8 0 0
BITMAP
CC
CC
78
30
78
78
CC
CC
ENDCHAR
STARTCHAR Psi
ENCODING 936
SWIDTH 864 0
DWIDTH 9 0
BBX 8 8 0 0
BITMAP
DB
DB
DB
DB
FF
7E
18
18
ENDCHAR
STARTCHAR Omega
ENCODING 937
SWIDTH 672 0
DWIDTH 7 0
BBX 7 8 0 0
BITMAP
7C
C6
C6
C6
C6
6C
6C
EE
ENDCHAR
STARTCHAR endash
ENCODING 8211
SWIDTH 576 0
DWIDTH 6 0
BBX 6 1 0 3
BITMAP
FC
ENDCHAR
STARTCHAR emdash
ENCODING 8212
SWIDTH 960 0
DWIDTH 10 0
BBX 10 1 0 3
BITMAP
FFC0
ENDCHAR
STARTCHAR quoteleft
ENCODING 8216
SWIDTH 288 0
DWIDTH 3 0
BBX 2 3 0 5
BITMAP
40
80
C0
ENDCHAR
STARTCHAR quoteright
ENCODING 8217
SWIDTH 288 0
DWIDTH 3 0
BBX 2 3 0 5
BITMAP
C0
40
80
ENDCHAR
STARTCHAR quotesinglbase
ENCODING 8218
SWIDTH 288 0
DWIDTH 3 0
BBX 2 3 0 -2
BITMAP
C0
40
80
ENDCHAR
STARTCHAR quotereversed
ENCODING 8219
SWIDTH 288 0
DWIDTH 3 0
BBX 2 3 0 5
BITMAP
C0
80
40
ENDCHAR
STARTCHAR quotedblleft
ENCODING 8220
SWIDTH 576 0
DWIDTH 6 0
BBX 5 3 0 5
BITMAP
48
90
D8
ENDCHAR
STARTCHAR quotedblright
ENCODING 8221
SWIDTH 576 0
DWIDTH 6 0
BBX 5 3 0 5
BITMAP
D8
48
90
ENDCHAR
STARTCHAR quotedblbase
ENCODING 8222
SWIDTH 576 0
DWIDTH 6 0
BBX 5 3 0 -2
BITMAP
D8
48
90
ENDCHAR
STARTCHAR uni201F
ENCODING 8223
SWIDTH 576 0
DWIDTH 6 0
BBX 5 3 0 5
BITMAP
D8
90
48
ENDCHAR
STARTCHAR dagger
ENCODING 8224
SWIDTH 672 0
DWIDTH 7 0
BBX 6 10 0 -2
BITMAP
30
30
FC
30
30
30
30
30
30
30
ENDCHAR
STARTCHAR daggerdbl
ENCODING 8225
SWIDTH 672 0
DWIDTH 7 0
BBX 6 10 0 -2
BITMAP
30
30
FC
30
30
30
FC
30
30
30
ENDCHAR
STARTCHAR bullet
ENCODING 8226
SWIDTH 384 0
DWIDTH 4 0
BBX 2 2 1 2
BITMAP
C0
C0
ENDCHAR
STARTCHAR ellipsis
ENCODING 8230
SWIDTH 960 0
DWIDTH 10 0
BBX 8 1 1 0
BITMAP
DB
ENDCHAR
STARTCHAR perthousand
ENCODING 8240
SWIDTH 1056 0
DWIDTH 11 0
BBX 10 7 0 0
BITMAP
6200
B400
6800
1000
2D80
56C0
8D80
ENDCHAR
STARTCHAR guilsinglleft
ENCODING 8249
SWIDTH 480 0
DWIDTH 5 0
BBX 3 3 1 1
BITMAP
60
C0
60
ENDCHAR
STARTCHAR guilsinglright
ENCODING 8250
SWIDTH 480 0
DWIDTH 5 0
BBX 3 3 1 1
BITMAP
C0
60
C0
ENDCHAR
STARTCHAR uni20A5
ENCODING 8357
SWIDTH 864 0
DWIDTH 9 0
BBX 8 8 0 -1
BITMAP
04
B6
DB
DB
DB
DB
FB
20
ENDCHAR
STARTCHAR uni20A6
ENCODING 8358
SWIDTH 768 0
DWIDTH 8 0
BBX 7 8 0 0
BITMAP
C6
E6
FE
D6
FE
CE
CE
C6
ENDCHAR
STARTCHAR uni20A9
ENCODING 8361
SWIDTH 1056 0
DWIDTH 11 0
BBX 10 8 0 0
BITMAP
CCC0
CCC0
DFC0
6D80
7F80
7F80
3300
2100
ENDCHAR
STARTCHAR Euro
ENCODING 8364
SWIDTH 768 0
DWIDTH 8 0
BBX 8 8 -1 0
BITMAP
1E
33
F9
60
F8
61
33
1E
ENDCHAR
STARTCHAR uni20AD
ENCODING 8365
SWIDTH 672 0
DWIDTH 7 0
BBX 7 8 0 0
BITMAP
CC
D8
F0
FE
F0
D8
CC
C6
ENDCHAR
ENDFONT
