STARTFONT 2.1
COMMENT $XConsortium: helvB12.bdf,v 1.13 95/01/26 18:01:34 gildea Exp $
COMMENT 
COMMENT +
COMMENT  Copyright 1984-1989, 1994 Adobe Systems Incorporated.
COMMENT  Copyright 1988, 1994 Digital Equipment Corporation.
COMMENT 
COMMENT  Adobe is a trademark of Adobe Systems Incorporated which may be
COMMENT  registered in certain jurisdictions.
COMMENT  Permission to use these trademarks is hereby granted only in
COMMENT  association with the images described in this file.
COMMENT 
COMMENT  Permission to use, copy, modify, distribute and sell this software
COMMENT  and its documentation for any purpose and without fee is hereby
COMMENT  granted, provided that the above copyright notices appear in all
COMMENT  copies and that both those copyright notices and this permission
COMMENT  notice appear in supporting documentation, and that the names of
COMMENT  Adobe Systems and Digital Equipment Corporation not be used in
COMMENT  advertising or publicity pertaining to distribution of the software
COMMENT  without specific, written prior permission.  Adobe Systems and
COMMENT  Digital Equipment Corporation make no representations about the
COMMENT  suitability of this software for any purpose.  It is provided "as
COMMENT  is" without express or implied warranty.
COMMENT -
FONT -Adobe-Helvetica-Bold-R-Normal--12-120-75-75-P-70-ISO10646-1
SIZE 12 75 75
FONTBOUNDINGBOX 14 15 -1 -3
STARTPROPERTIES 29
FOUNDRY "Adobe"
FAMILY_NAME "Helvetica"
WEIGHT_NAME "Bold"
SLANT "R"
SETWIDTH_NAME "Normal"
ADD_STYLE_NAME ""
PIXEL_SIZE 12
POINT_SIZE 120
RESOLUTION_X 75
RESOLUTION_Y 75
SPACING "P"
AVERAGE_WIDTH 70
CHARSET_REGISTRY "ISO10646"
CHARSET_ENCODING "1"
CAP_HEIGHT 9
X_HEIGHT 7
FONT_ASCENT 11
FONT_DESCENT 3
FACE_NAME "Helvetica Bold"
COPYRIGHT "Copyright (c) 1984, 1987 Adobe Systems Incorporated. All Rights Reserved. Copyright (c) 1988, 1991 Digital Equipment Corporation. All Rights Reserved."
NOTICE "Helvetica is a trademark of Linotype-Hell AG and/or its subsidiaries.  "
_DEC_DEVICE_FONTNAMES "PS=Helvetica-Bold"
_DEC_PRODUCTINFO "DECwindows Fonts V2.2, 07-Nov-1991"
DEFAULT_CHAR 32
RELATIVE_SETWIDTH 50
RELATIVE_WEIGHT 70
CHARSET_COLLECTIONS "ASCII ISO8859-1 ADOBE-STANDARD"
FULL_NAME "Helvetica Bold"
_XMBDFED_INFO "Edited with xmbdfed 4.5."
ENDPROPERTIES
CHARS 284
STARTCHAR Lslash
ENCODING -1
SWIDTH 640 0
DWIDTH 8 0
BBX 7 9 0 0
BITMAP
60
60
78
70
E0
60
60
60
7E
ENDCHAR
STARTCHAR OE
ENCODING -1
SWIDTH 1040 0
DWIDTH 13 0
BBX 11 9 1 0
BITMAP
3FE0
6600
C600
C600
C7E0
C600
C600
6600
3FE0
ENDCHAR
STARTCHAR Scaron
ENCODING -1
SWIDTH 720 0
DWIDTH 9 0
BBX 7 10 1 0
BITMAP
6C
38
00
78
CC
E0
78
1C
CE
7C
ENDCHAR
STARTCHAR Ydieresis
ENCODING -1
SWIDTH 640 0
DWIDTH 8 0
BBX 8 9 0 0
BITMAP
6C
00
C3
66
24
3C
18
18
18
ENDCHAR
STARTCHAR Zcaron
ENCODING -1
SWIDTH 560 0
DWIDTH 7 0
BBX 7 10 0 0
BITMAP
6C
38
00
FC
18
30
30
60
C0
FE
ENDCHAR
STARTCHAR breve
ENCODING -1
SWIDTH 400 0
DWIDTH 5 0
BBX 5 2 0 8
BITMAP
88
70
ENDCHAR
STARTCHAR bullet
ENCODING -1
SWIDTH 320 0
DWIDTH 4 0
BBX 4 3 0 2
BITMAP
60
F0
60
ENDCHAR
STARTCHAR caron
ENCODING -1
SWIDTH 400 0
DWIDTH 5 0
BBX 5 2 0 8
BITMAP
D8
70
ENDCHAR
STARTCHAR circumflex
ENCODING -1
SWIDTH 400 0
DWIDTH 5 0
BBX 5 2 0 8
BITMAP
70
D8
ENDCHAR
STARTCHAR dagger
ENCODING -1
SWIDTH 560 0
DWIDTH 7 0
BBX 6 12 0 -3
BITMAP
30
30
30
FC
30
30
30
30
30
30
30
30
ENDCHAR
STARTCHAR daggerdbl
ENCODING -1
SWIDTH 560 0
DWIDTH 7 0
BBX 6 12 0 -3
BITMAP
30
30
30
FC
30
30
30
FC
30
30
30
30
ENDCHAR
STARTCHAR dotaccent
ENCODING -1
SWIDTH 320 0
DWIDTH 4 0
BBX 2 1 1 8
BITMAP
C0
ENDCHAR
STARTCHAR dotlessi
ENCODING -1
SWIDTH 240 0
DWIDTH 3 0
BBX 2 7 0 0
BITMAP
C0
C0
C0
C0
C0
C0
C0
ENDCHAR
STARTCHAR ellipsis
ENCODING -1
SWIDTH 960 0
DWIDTH 12 0
BBX 10 1 1 0
BITMAP
CCC0
ENDCHAR
STARTCHAR emdash
ENCODING -1
SWIDTH 960 0
DWIDTH 12 0
BBX 12 1 0 3
BITMAP
FFF0
ENDCHAR
STARTCHAR endash
ENCODING -1
SWIDTH 560 0
DWIDTH 7 0
BBX 7 1 0 3
BITMAP
FE
ENDCHAR
STARTCHAR fi
ENCODING -1
SWIDTH 640 0
DWIDTH 8 0
BBX 7 9 0 0
BITMAP
36
60
F6
66
66
66
66
66
66
ENDCHAR
STARTCHAR fl
ENCODING -1
SWIDTH 640 0
DWIDTH 8 0
BBX 7 9 0 0
BITMAP
36
66
F6
66
66
66
66
66
66
ENDCHAR
STARTCHAR florin
ENCODING 402
SWIDTH 560 0
DWIDTH 7 0
BBX 7 11 0 -3
BITMAP
0E
18
18
7C
30
30
30
30
30
E0
C0
ENDCHAR
STARTCHAR fraction
ENCODING -1
SWIDTH 320 0
DWIDTH 4 0
BBX 5 8 -1 0
BITMAP
18
18
30
30
60
60
C0
C0
ENDCHAR
STARTCHAR grave
ENCODING -1
SWIDTH 320 0
DWIDTH 4 0
BBX 3 2 0 8
BITMAP
C0
60
ENDCHAR
STARTCHAR guilsinglleft
ENCODING -1
SWIDTH 400 0
DWIDTH 5 0
BBX 3 5 1 1
BITMAP
20
60
C0
60
20
ENDCHAR
STARTCHAR guilsinglright
ENCODING -1
SWIDTH 400 0
DWIDTH 5 0
BBX 3 5 1 1
BITMAP
80
C0
60
C0
80
ENDCHAR
STARTCHAR hungarumlaut
ENCODING -1
SWIDTH 400 0
DWIDTH 5 0
BBX 5 2 1 8
BITMAP
68
B0
ENDCHAR
STARTCHAR lslash
ENCODING -1
SWIDTH 240 0
DWIDTH 3 0
BBX 4 9 -1 0
BITMAP
60
60
70
60
E0
60
60
60
60
ENDCHAR
STARTCHAR oe
ENCODING -1
SWIDTH 880 0
DWIDTH 11 0
BBX 10 7 0 0
BITMAP
7780
CCC0
CCC0
CFC0
CC00
CCC0
7780
ENDCHAR
STARTCHAR ogonek
ENCODING -1
SWIDTH 320 0
DWIDTH 4 0
BBX 4 4 0 -3
BITMAP
60
C0
C0
70
ENDCHAR
STARTCHAR perthousand
ENCODING -1
SWIDTH 1040 0
DWIDTH 13 0
BBX 13 8 0 0
BITMAP
7100
DB00
DA00
7400
05B0
0B68
1B68
11B0
ENDCHAR
STARTCHAR quotedblbase
ENCODING -1
SWIDTH 560 0
DWIDTH 7 0
BBX 5 3 1 -2
BITMAP
D8
48
90
ENDCHAR
STARTCHAR quotedblleft
ENCODING -1
SWIDTH 560 0
DWIDTH 7 0
BBX 5 3 1 6
BITMAP
48
90
D8
ENDCHAR
STARTCHAR quotedblright
ENCODING -1
SWIDTH 560 0
DWIDTH 7 0
BBX 5 3 1 6
BITMAP
D8
48
90
ENDCHAR
STARTCHAR quotesinglbase
ENCODING -1
SWIDTH 320 0
DWIDTH 4 0
BBX 2 3 1 -2
BITMAP
C0
40
80
ENDCHAR
STARTCHAR quotesingle
ENCODING -1
SWIDTH 240 0
DWIDTH 3 0
BBX 1 3 1 6
BITMAP
80
80
80
ENDCHAR
STARTCHAR ring
ENCODING -1
SWIDTH 400 0
DWIDTH 5 0
BBX 5 3 0 7
BITMAP
70
D8
70
ENDCHAR
STARTCHAR scaron
ENCODING -1
SWIDTH 560 0
DWIDTH 7 0
BBX 6 10 0 0
BITMAP
D8
70
00
78
CC
E0
38
1C
CC
78
ENDCHAR
STARTCHAR tilde
ENCODING -1
SWIDTH 400 0
DWIDTH 5 0
BBX 5 2 0 8
BITMAP
68
B0
ENDCHAR
STARTCHAR trademark
ENCODING -1
SWIDTH 880 0
DWIDTH 11 0
BBX 9 5 1 3
BITMAP
E880
4D80
4A80
4A80
4A80
ENDCHAR
STARTCHAR zcaron
ENCODING -1
SWIDTH 480 0
DWIDTH 6 0
BBX 5 10 0 0
BITMAP
D8
70
00
F8
18
30
20
60
C0
F8
ENDCHAR
STARTCHAR space
ENCODING 32
SWIDTH 320 0
DWIDTH 4 0
BBX 0 0 0 0
BITMAP
ENDCHAR
STARTCHAR exclam
ENCODING 33
SWIDTH 320 0
DWIDTH 4 0
BBX 2 9 1 0
BITMAP
C0
C0
C0
C0
C0
80
00
C0
C0
ENDCHAR
STARTCHAR quotedbl
ENCODING 34
SWIDTH 400 0
DWIDTH 5 0
BBX 3 3 1 6
BITMAP
A0
A0
A0
ENDCHAR
STARTCHAR numbersign
ENCODING 35
SWIDTH 640 0
DWIDTH 8 0
BBX 7 8 0 0
BITMAP
14
14
7E
28
28
FC
50
50
ENDCHAR
STARTCHAR dollar
ENCODING 36
SWIDTH 560 0
DWIDTH 7 0
BBX 6 11 0 -2
BITMAP
10
78
D4
D0
78
1C
94
D4
78
10
10
ENDCHAR
STARTCHAR percent
ENCODING 37
SWIDTH 960 0
DWIDTH 12 0
BBX 11 9 0 0
BITMAP
7100
DB00
DA00
7400
0400
09C0
0B60
1B60
11C0
ENDCHAR
STARTCHAR ampersand
ENCODING 38
SWIDTH 720 0
DWIDTH 9 0
BBX 9 9 0 0
BITMAP
3800
6C00
6C00
3800
7900
CF00
C600
CF00
7980
ENDCHAR
STARTCHAR quoteright
ENCODING 39
SWIDTH 320 0
DWIDTH 4 0
BBX 2 3 1 6
BITMAP
C0
40
80
ENDCHAR
STARTCHAR parenleft
ENCODING 40
SWIDTH 480 0
DWIDTH 6 0
BBX 4 12 1 -3
BITMAP
30
60
60
C0
C0
C0
C0
C0
C0
60
60
30
ENDCHAR
STARTCHAR parenright
ENCODING 41
SWIDTH 480 0
DWIDTH 6 0
BBX 4 12 1 -3
BITMAP
C0
60
60
30
30
30
30
30
30
60
60
C0
ENDCHAR
STARTCHAR asterisk
ENCODING 42
SWIDTH 480 0
DWIDTH 6 0
BBX 5 4 0 5
BITMAP
20
F8
70
50
ENDCHAR
STARTCHAR plus
ENCODING 43
SWIDTH 560 0
DWIDTH 7 0
BBX 6 5 0 1
BITMAP
30
30
FC
30
30
ENDCHAR
STARTCHAR comma
ENCODING 44
SWIDTH 320 0
DWIDTH 4 0
BBX 2 4 1 -2
BITMAP
C0
C0
40
80
ENDCHAR
STARTCHAR minus
ENCODING 45
SWIDTH 640 0
DWIDTH 8 0
BBX 5 1 1 3
BITMAP
F8
ENDCHAR
STARTCHAR period
ENCODING 46
SWIDTH 320 0
DWIDTH 4 0
BBX 2 2 1 0
BITMAP
C0
C0
ENDCHAR
STARTCHAR slash
ENCODING 47
SWIDTH 320 0
DWIDTH 4 0
BBX 4 9 0 0
BITMAP
30
30
20
60
60
40
40
C0
C0
ENDCHAR
STARTCHAR zero
ENCODING 48
SWIDTH 560 0
DWIDTH 7 0
BBX 6 9 0 0
BITMAP
78
CC
CC
CC
CC
CC
CC
CC
78
ENDCHAR
STARTCHAR one
ENCODING 49
SWIDTH 560 0
DWIDTH 7 0
BBX 4 9 0 0
BITMAP
30
F0
30
30
30
30
30
30
30
ENDCHAR
STARTCHAR two
ENCODING 50
SWIDTH 560 0
DWIDTH 7 0
BBX 6 9 0 0
BITMAP
78
CC
0C
18
30
60
C0
C0
FC
ENDCHAR
STARTCHAR three
ENCODING 51
SWIDTH 560 0
DWIDTH 7 0
BBX 6 9 0 0
BITMAP
78
CC
0C
38
0C
0C
0C
CC
78
ENDCHAR
STARTCHAR four
ENCODING 52
SWIDTH 560 0
DWIDTH 7 0
BBX 7 9 0 0
BITMAP
0C
1C
2C
2C
4C
8C
FE
0C
0C
ENDCHAR
STARTCHAR five
ENCODING 53
SWIDTH 560 0
DWIDTH 7 0
BBX 6 9 0 0
BITMAP
7C
60
C0
F8
0C
0C
CC
CC
78
ENDCHAR
STARTCHAR six
ENCODING 54
SWIDTH 560 0
DWIDTH 7 0
BBX 6 9 0 0
BITMAP
78
CC
C0
C0
F8
CC
CC
CC
78
ENDCHAR
STARTCHAR seven
ENCODING 55
SWIDTH 560 0
DWIDTH 7 0
BBX 6 9 0 0
BITMAP
FC
0C
18
18
30
30
30
60
60
ENDCHAR
STARTCHAR eight
ENCODING 56
SWIDTH 560 0
DWIDTH 7 0
BBX 6 9 0 0
BITMAP
78
CC
CC
78
CC
CC
CC
CC
78
ENDCHAR
STARTCHAR nine
ENCODING 57
SWIDTH 560 0
DWIDTH 7 0
BBX 6 9 0 0
BITMAP
78
CC
CC
CC
7C
0C
0C
CC
78
ENDCHAR
STARTCHAR colon
ENCODING 58
SWIDTH 320 0
DWIDTH 4 0
BBX 2 7 1 0
BITMAP
C0
C0
00
00
00
C0
C0
ENDCHAR
STARTCHAR semicolon
ENCODING 59
SWIDTH 320 0
DWIDTH 4 0
BBX 2 9 1 -2
BITMAP
C0
C0
00
00
00
C0
C0
40
80
ENDCHAR
STARTCHAR less
ENCODING 60
SWIDTH 560 0
DWIDTH 7 0
BBX 5 5 1 1
BITMAP
18
70
C0
70
18
ENDCHAR
STARTCHAR equal
ENCODING 61
SWIDTH 560 0
DWIDTH 7 0
BBX 6 3 0 2
BITMAP
FC
00
FC
ENDCHAR
STARTCHAR greater
ENCODING 62
SWIDTH 560 0
DWIDTH 7 0
BBX 5 5 1 1
BITMAP
C0
70
18
70
C0
ENDCHAR
STARTCHAR question
ENCODING 63
SWIDTH 640 0
DWIDTH 8 0
BBX 6 9 1 0
BITMAP
78
CC
CC
18
30
30
00
30
30
ENDCHAR
STARTCHAR at
ENCODING 64
SWIDTH 960 0
DWIDTH 12 0
BBX 10 10 1 -1
BITMAP
1F00
6080
4040
8D40
9240
A240
A680
9B00
4000
3E00
ENDCHAR
STARTCHAR A
ENCODING 65
SWIDTH 640 0
DWIDTH 8 0
BBX 8 9 1 0
BITMAP
18
3C
24
66
66
7E
C3
C3
C3
ENDCHAR
STARTCHAR B
ENCODING 66
SWIDTH 720 0
DWIDTH 9 0
BBX 7 9 1 0
BITMAP
FC
C6
C6
C6
FC
C6
C6
C6
FC
ENDCHAR
STARTCHAR C
ENCODING 67
SWIDTH 640 0
DWIDTH 8 0
BBX 7 9 1 0
BITMAP
3C
66
C0
C0
C0
C0
C0
66
3C
ENDCHAR
STARTCHAR D
ENCODING 68
SWIDTH 720 0
DWIDTH 9 0
BBX 7 9 1 0
BITMAP
F8
CC
C6
C6
C6
C6
C6
CC
F8
ENDCHAR
STARTCHAR E
ENCODING 69
SWIDTH 640 0
DWIDTH 8 0
BBX 6 9 1 0
BITMAP
FC
C0
C0
C0
FC
C0
C0
C0
FC
ENDCHAR
STARTCHAR F
ENCODING 70
SWIDTH 560 0
DWIDTH 7 0
BBX 6 9 1 0
BITMAP
FC
C0
C0
C0
F8
C0
C0
C0
C0
ENDCHAR
STARTCHAR G
ENCODING 71
SWIDTH 800 0
DWIDTH 10 0
BBX 8 9 1 0
BITMAP
3E
63
C0
C0
CF
C3
C3
63
3D
ENDCHAR
STARTCHAR H
ENCODING 72
SWIDTH 720 0
DWIDTH 9 0
BBX 7 9 1 0
BITMAP
C6
C6
C6
C6
FE
C6
C6
C6
C6
ENDCHAR
STARTCHAR I
ENCODING 73
SWIDTH 480 0
DWIDTH 6 0
BBX 4 9 1 0
BITMAP
F0
60
60
60
60
60
60
60
F0
ENDCHAR
STARTCHAR J
ENCODING 74
SWIDTH 560 0
DWIDTH 7 0
BBX 6 9 0 0
BITMAP
0C
0C
0C
0C
0C
0C
CC
CC
78
ENDCHAR
STARTCHAR K
ENCODING 75
SWIDTH 720 0
DWIDTH 9 0
BBX 8 9 1 0
BITMAP
C6
CC
D8
F0
F0
D8
CC
C6
C3
ENDCHAR
STARTCHAR L
ENCODING 76
SWIDTH 560 0
DWIDTH 7 0
BBX 6 9 1 0
BITMAP
C0
C0
C0
C0
C0
C0
C0
C0
FC
ENDCHAR
STARTCHAR M
ENCODING 77
SWIDTH 880 0
DWIDTH 11 0
BBX 9 9 1 0
BITMAP
C180
C180
E380
E380
F780
D580
DD80
C980
C980
ENDCHAR
STARTCHAR N
ENCODING 78
SWIDTH 720 0
DWIDTH 9 0
BBX 7 9 1 0
BITMAP
C6
E6
E6
D6
D6
CE
CE
C6
C6
ENDCHAR
STARTCHAR O
ENCODING 79
SWIDTH 800 0
DWIDTH 10 0
BBX 8 9 1 0
BITMAP
3C
66
C3
C3
C3
C3
C3
66
3C
ENDCHAR
STARTCHAR P
ENCODING 80
SWIDTH 640 0
DWIDTH 8 0
BBX 7 9 1 0
BITMAP
FC
C6
C6
C6
FC
C0
C0
C0
C0
ENDCHAR
STARTCHAR Q
ENCODING 81
SWIDTH 800 0
DWIDTH 10 0
BBX 8 9 1 0
BITMAP
3C
66
C3
C3
C3
CB
CF
66
3F
ENDCHAR
STARTCHAR R
ENCODING 82
SWIDTH 720 0
DWIDTH 9 0
BBX 7 9 1 0
BITMAP
FC
C6
C6
C6
FC
CC
C6
C6
C6
ENDCHAR
STARTCHAR S
ENCODING 83
SWIDTH 720 0
DWIDTH 9 0
BBX 7 9 1 0
BITMAP
7C
C6
C6
70
1C
0E
C6
C6
7C
ENDCHAR
STARTCHAR T
ENCODING 84
SWIDTH 640 0
DWIDTH 8 0
BBX 8 9 0 0
BITMAP
FF
18
18
18
18
18
18
18
18
ENDCHAR
STARTCHAR U
ENCODING 85
SWIDTH 720 0
DWIDTH 9 0
BBX 7 9 1 0
BITMAP
C6
C6
C6
C6
C6
C6
C6
6C
7C
ENDCHAR
STARTCHAR V
ENCODING 86
SWIDTH 640 0
DWIDTH 8 0
BBX 8 9 0 0
BITMAP
C3
C3
66
66
66
24
3C
18
18
ENDCHAR
STARTCHAR W
ENCODING 87
SWIDTH 800 0
DWIDTH 10 0
BBX 10 9 0 0
BITMAP
CCC0
CCC0
CCC0
4C80
6D80
6D80
3300
3300
3300
ENDCHAR
STARTCHAR X
ENCODING 88
SWIDTH 640 0
DWIDTH 8 0
BBX 8 9 0 0
BITMAP
C3
C3
66
3C
18
3C
66
C3
C3
ENDCHAR
STARTCHAR Y
ENCODING 89
SWIDTH 640 0
DWIDTH 8 0
BBX 8 9 0 0
BITMAP
C3
C3
66
66
3C
18
18
18
18
ENDCHAR
STARTCHAR Z
ENCODING 90
SWIDTH 560 0
DWIDTH 7 0
BBX 7 9 0 0
BITMAP
FE
06
0C
18
30
30
60
C0
FE
ENDCHAR
STARTCHAR bracketleft
ENCODING 91
SWIDTH 320 0
DWIDTH 4 0
BBX 3 12 1 -3
BITMAP
E0
C0
C0
C0
C0
C0
C0
C0
C0
C0
C0
E0
ENDCHAR
STARTCHAR backslash
ENCODING 92
SWIDTH 320 0
DWIDTH 4 0
BBX 4 9 0 0
BITMAP
C0
C0
40
60
60
20
20
30
30
ENDCHAR
STARTCHAR bracketright
ENCODING 93
SWIDTH 320 0
DWIDTH 4 0
BBX 3 12 0 -3
BITMAP
E0
60
60
60
60
60
60
60
60
60
60
E0
ENDCHAR
STARTCHAR asciicircum
ENCODING 94
SWIDTH 560 0
DWIDTH 7 0
BBX 7 4 0 5
BITMAP
10
38
6C
C6
ENDCHAR
STARTCHAR underscore
ENCODING 95
SWIDTH 560 0
DWIDTH 7 0
BBX 7 1 0 -3
BITMAP
FE
ENDCHAR
STARTCHAR quoteleft
ENCODING 96
SWIDTH 320 0
DWIDTH 4 0
BBX 2 3 1 6
BITMAP
40
80
C0
ENDCHAR
STARTCHAR a
ENCODING 97
SWIDTH 560 0
DWIDTH 7 0
BBX 7 7 0 0
BITMAP
78
CC
0C
7C
CC
CC
76
ENDCHAR
STARTCHAR b
ENCODING 98
SWIDTH 560 0
DWIDTH 7 0
BBX 6 9 0 0
BITMAP
C0
C0
D8
EC
CC
CC
CC
EC
D8
ENDCHAR
STARTCHAR c
ENCODING 99
SWIDTH 560 0
DWIDTH 7 0
BBX 6 7 0 0
BITMAP
78
CC
C0
C0
C0
CC
78
ENDCHAR
STARTCHAR d
ENCODING 100
SWIDTH 560 0
DWIDTH 7 0
BBX 6 9 0 0
BITMAP
0C
0C
6C
DC
CC
CC
CC
DC
6C
ENDCHAR
STARTCHAR e
ENCODING 101
SWIDTH 560 0
DWIDTH 7 0
BBX 6 7 0 0
BITMAP
78
CC
CC
FC
C0
CC
78
ENDCHAR
STARTCHAR f
ENCODING 102
SWIDTH 400 0
DWIDTH 5 0
BBX 5 9 0 0
BITMAP
38
60
F0
60
60
60
60
60
60
ENDCHAR
STARTCHAR g
ENCODING 103
SWIDTH 560 0
DWIDTH 7 0
BBX 6 10 0 -3
BITMAP
6C
DC
CC
CC
CC
DC
6C
0C
CC
78
ENDCHAR
STARTCHAR h
ENCODING 104
SWIDTH 560 0
DWIDTH 7 0
BBX 6 9 0 0
BITMAP
C0
C0
D8
EC
CC
CC
CC
CC
CC
ENDCHAR
STARTCHAR i
ENCODING 105
SWIDTH 240 0
DWIDTH 3 0
BBX 2 9 0 0
BITMAP
C0
00
C0
C0
C0
C0
C0
C0
C0
ENDCHAR
STARTCHAR j
ENCODING 106
SWIDTH 240 0
DWIDTH 3 0
BBX 3 12 -1 -3
BITMAP
60
00
60
60
60
60
60
60
60
60
60
C0
ENDCHAR
STARTCHAR k
ENCODING 107
SWIDTH 560 0
DWIDTH 7 0
BBX 7 9 0 0
BITMAP
C0
C0
CC
D8
F0
F0
D8
CC
C6
ENDCHAR
STARTCHAR l
ENCODING 108
SWIDTH 240 0
DWIDTH 3 0
BBX 2 9 0 0
BITMAP
C0
C0
C0
C0
C0
C0
C0
C0
C0
ENDCHAR
STARTCHAR m
ENCODING 109
SWIDTH 880 0
DWIDTH 11 0
BBX 10 7 0 0
BITMAP
BB80
CCC0
CCC0
CCC0
CCC0
CCC0
CCC0
ENDCHAR
STARTCHAR n
ENCODING 110
SWIDTH 560 0
DWIDTH 7 0
BBX 6 7 0 0
BITMAP
D8
EC
CC
CC
CC
CC
CC
ENDCHAR
STARTCHAR o
ENCODING 111
SWIDTH 560 0
DWIDTH 7 0
BBX 6 7 0 0
BITMAP
78
CC
CC
CC
CC
CC
78
ENDCHAR
STARTCHAR p
ENCODING 112
SWIDTH 560 0
DWIDTH 7 0
BBX 6 10 0 -3
BITMAP
D8
EC
CC
CC
CC
EC
D8
C0
C0
C0
ENDCHAR
STARTCHAR q
ENCODING 113
SWIDTH 560 0
DWIDTH 7 0
BBX 6 10 0 -3
BITMAP
74
DC
CC
CC
CC
DC
6C
0C
0C
0C
ENDCHAR
STARTCHAR r
ENCODING 114
SWIDTH 400 0
DWIDTH 5 0
BBX 5 7 0 0
BITMAP
D8
F8
E0
C0
C0
C0
C0
ENDCHAR
STARTCHAR s
ENCODING 115
SWIDTH 560 0
DWIDTH 7 0
BBX 6 7 0 0
BITMAP
78
CC
E0
38
1C
CC
78
ENDCHAR
STARTCHAR t
ENCODING 116
SWIDTH 400 0
DWIDTH 5 0
BBX 5 9 0 0
BITMAP
60
60
F0
60
60
60
60
68
30
ENDCHAR
STARTCHAR u
ENCODING 117
SWIDTH 560 0
DWIDTH 7 0
BBX 6 7 0 0
BITMAP
CC
CC
CC
CC
CC
DC
6C
ENDCHAR
STARTCHAR v
ENCODING 118
SWIDTH 640 0
DWIDTH 8 0
BBX 7 7 0 0
BITMAP
C6
C6
6C
6C
38
38
10
ENDCHAR
STARTCHAR w
ENCODING 119
SWIDTH 880 0
DWIDTH 11 0
BBX 10 7 0 0
BITMAP
CCC0
CCC0
6D80
6D80
6D80
3300
3300
ENDCHAR
STARTCHAR x
ENCODING 120
SWIDTH 560 0
DWIDTH 7 0
BBX 6 7 0 0
BITMAP
CC
CC
78
30
78
CC
CC
ENDCHAR
STARTCHAR y
ENCODING 121
SWIDTH 640 0
DWIDTH 8 0
BBX 7 10 0 -3
BITMAP
C6
C6
6C
6C
38
38
18
10
30
60
ENDCHAR
STARTCHAR z
ENCODING 122
SWIDTH 480 0
DWIDTH 6 0
BBX 5 7 0 0
BITMAP
F8
18
30
20
60
C0
F8
ENDCHAR
STARTCHAR braceleft
ENCODING 123
SWIDTH 400 0
DWIDTH 5 0
BBX 4 12 0 -3
BITMAP
30
60
60
60
60
C0
60
60
60
60
60
30
ENDCHAR
STARTCHAR bar
ENCODING 124
SWIDTH 320 0
DWIDTH 4 0
BBX 2 12 1 -3
BITMAP
C0
C0
C0
C0
C0
C0
C0
C0
C0
C0
C0
C0
ENDCHAR
STARTCHAR braceright
ENCODING 125
SWIDTH 400 0
DWIDTH 5 0
BBX 4 12 0 -3
BITMAP
C0
60
60
60
60
30
60
60
60
60
60
C0
ENDCHAR
STARTCHAR asciitilde
ENCODING 126
SWIDTH 560 0
DWIDTH 7 0
BBX 7 2 0 3
BITMAP
76
DC
ENDCHAR
STARTCHAR space
ENCODING 160
SWIDTH 320 0
DWIDTH 4 0
BBX 0 0 0 0
BITMAP
ENDCHAR
STARTCHAR exclamdown
ENCODING 161
SWIDTH 320 0
DWIDTH 4 0
BBX 2 10 1 -3
BITMAP
C0
C0
00
40
C0
C0
C0
C0
C0
C0
ENDCHAR
STARTCHAR cent
ENCODING 162
SWIDTH 560 0
DWIDTH 7 0
BBX 6 9 0 -1
BITMAP
10
78
DC
90
A0
A0
EC
78
40
ENDCHAR
STARTCHAR sterling
ENCODING 163
SWIDTH 560 0
DWIDTH 7 0
BBX 6 9 0 0
BITMAP
38
6C
60
60
F8
60
60
EC
D8
ENDCHAR
STARTCHAR currency
ENCODING 164
SWIDTH 560 0
DWIDTH 7 0
BBX 6 6 0 1
BITMAP
CC
78
48
48
78
CC
ENDCHAR
STARTCHAR yen
ENCODING 165
SWIDTH 560 0
DWIDTH 7 0
BBX 6 9 0 0
BITMAP
CC
CC
48
FC
30
FC
30
30
30
ENDCHAR
STARTCHAR brokenbar
ENCODING 166
SWIDTH 320 0
DWIDTH 4 0
BBX 2 11 1 -2
BITMAP
C0
C0
C0
C0
00
00
C0
C0
C0
C0
C0
ENDCHAR
STARTCHAR section
ENCODING 167
SWIDTH 560 0
DWIDTH 7 0
BBX 6 12 0 -3
BITMAP
78
CC
E0
70
D8
CC
CC
6C
38
1C
CC
78
ENDCHAR
STARTCHAR dieresis
ENCODING 168
SWIDTH 400 0
DWIDTH 5 0
BBX 5 1 0 8
BITMAP
D8
ENDCHAR
STARTCHAR copyright
ENCODING 169
SWIDTH 880 0
DWIDTH 11 0
BBX 9 9 1 0
BITMAP
3E00
4100
9C80
A280
A080
A280
9C80
4100
3E00
ENDCHAR
STARTCHAR ordfeminine
ENCODING 170
SWIDTH 480 0
DWIDTH 6 0
BBX 4 6 1 3
BITMAP
E0
30
F0
B0
00
F0
ENDCHAR
STARTCHAR guillemotleft
ENCODING 171
SWIDTH 640 0
DWIDTH 8 0
BBX 6 5 1 1
BITMAP
24
6C
D8
6C
24
ENDCHAR
STARTCHAR logicalnot
ENCODING 172
SWIDTH 640 0
DWIDTH 8 0
BBX 6 4 1 2
BITMAP
FC
04
04
04
ENDCHAR
STARTCHAR hyphen
ENCODING 173
SWIDTH 400 0
DWIDTH 5 0
BBX 4 1 0 3
BITMAP
F0
ENDCHAR
STARTCHAR registered
ENCODING 174
SWIDTH 880 0
DWIDTH 11 0
BBX 9 9 1 0
BITMAP
3E00
4100
9C80
9480
9880
9480
9480
4100
3E00
ENDCHAR
STARTCHAR macron
ENCODING 175
SWIDTH 320 0
DWIDTH 4 0
BBX 4 1 0 8
BITMAP
F0
ENDCHAR
STARTCHAR degree
ENCODING 176
SWIDTH 400 0
DWIDTH 5 0
BBX 4 4 0 4
BITMAP
60
90
90
60
ENDCHAR
STARTCHAR plusminus
ENCODING 177
SWIDTH 560 0
DWIDTH 7 0
BBX 6 7 0 0
BITMAP
30
30
FC
30
30
00
FC
ENDCHAR
STARTCHAR twosuperior
ENCODING 178
SWIDTH 320 0
DWIDTH 4 0
BBX 4 5 0 4
BITMAP
60
B0
60
C0
F0
ENDCHAR
STARTCHAR threesuperior
ENCODING 179
SWIDTH 320 0
DWIDTH 4 0
BBX 4 5 0 4
BITMAP
60
B0
60
30
E0
ENDCHAR
STARTCHAR acute
ENCODING 180
SWIDTH 320 0
DWIDTH 4 0
BBX 3 2 0 8
BITMAP
60
C0
ENDCHAR
STARTCHAR mu
ENCODING 181
SWIDTH 560 0
DWIDTH 7 0
BBX 6 10 0 -3
BITMAP
CC
CC
CC
CC
CC
DC
EC
C0
C0
C0
ENDCHAR
STARTCHAR paragraph
ENCODING 182
SWIDTH 560 0
DWIDTH 7 0
BBX 7 12 0 -3
BITMAP
3E
74
F4
F4
F4
74
34
14
14
14
14
14
ENDCHAR
STARTCHAR periodcentered
ENCODING 183
SWIDTH 320 0
DWIDTH 4 0
BBX 2 2 1 3
BITMAP
C0
C0
ENDCHAR
STARTCHAR cedilla
ENCODING 184
SWIDTH 320 0
DWIDTH 4 0
BBX 4 4 0 -3
BITMAP
60
30
30
E0
ENDCHAR
STARTCHAR onesuperior
ENCODING 185
SWIDTH 320 0
DWIDTH 4 0
BBX 3 5 0 4
BITMAP
60
E0
60
60
60
ENDCHAR
STARTCHAR ordmasculine
ENCODING 186
SWIDTH 480 0
DWIDTH 6 0
BBX 4 6 1 3
BITMAP
60
D0
D0
60
00
F0
ENDCHAR
STARTCHAR guillemotright
ENCODING 187
SWIDTH 640 0
DWIDTH 8 0
BBX 6 5 1 1
BITMAP
90
D8
6C
D8
90
ENDCHAR
STARTCHAR onequarter
ENCODING 188
SWIDTH 800 0
DWIDTH 10 0
BBX 10 9 0 0
BITMAP
6300
E600
6600
6C00
6D80
0B80
1A80
37C0
3180
ENDCHAR
STARTCHAR onehalf
ENCODING 189
SWIDTH 800 0
DWIDTH 10 0
BBX 10 9 0 0
BITMAP
6300
E600
6600
6C00
6D80
0AC0
1980
3300
33C0
ENDCHAR
STARTCHAR threequarters
ENCODING 190
SWIDTH 800 0
DWIDTH 10 0
BBX 10 9 0 0
BITMAP
6300
B300
6600
3600
ED80
0B80
1A80
37C0
3180
ENDCHAR
STARTCHAR questiondown
ENCODING 191
SWIDTH 640 0
DWIDTH 8 0
BBX 6 10 1 -3
BITMAP
30
30
00
30
30
30
60
CC
CC
78
ENDCHAR
STARTCHAR Agrave
ENCODING 192
SWIDTH 640 0
DWIDTH 8 0
BBX 8 12 0 0
BITMAP
30
18
00
18
18
3C
24
66
7E
C3
C3
C3
ENDCHAR
STARTCHAR Aacute
ENCODING 193
SWIDTH 640 0
DWIDTH 8 0
BBX 8 12 0 0
BITMAP
0C
18
00
18
18
3C
24
66
7E
C3
C3
C3
ENDCHAR
STARTCHAR Acircumflex
ENCODING 194
SWIDTH 640 0
DWIDTH 8 0
BBX 8 12 0 0
BITMAP
1C
36
00
18
18
3C
24
66
7E
C3
C3
C3
ENDCHAR
STARTCHAR Atilde
ENCODING 195
SWIDTH 640 0
DWIDTH 8 0
BBX 8 12 0 0
BITMAP
1A
2C
00
18
18
3C
24
66
7E
C3
C3
C3
ENDCHAR
STARTCHAR Adieresis
ENCODING 196
SWIDTH 640 0
DWIDTH 8 0
BBX 8 11 0 0
BITMAP
36
00
18
18
3C
24
66
7E
C3
C3
C3
ENDCHAR
STARTCHAR Aring
ENCODING 197
SWIDTH 640 0
DWIDTH 8 0
BBX 8 12 0 0
BITMAP
18
24
18
18
18
3C
24
66
7E
C3
C3
C3
ENDCHAR
STARTCHAR AE
ENCODING 198
SWIDTH 1040 0
DWIDTH 13 0
BBX 11 9 1 0
BITMAP
1FE0
3600
2600
6600
67E0
7E00
C600
C600
C7E0
ENDCHAR
STARTCHAR Ccedilla
ENCODING 199
SWIDTH 640 0
DWIDTH 8 0
BBX 7 12 1 -3
BITMAP
3C
66
C0
C0
C0
C0
C0
66
3C
18
18
70
ENDCHAR
STARTCHAR Egrave
ENCODING 200
SWIDTH 640 0
DWIDTH 8 0
BBX 6 12 1 0
BITMAP
60
30
00
FC
C0
C0
C0
FC
C0
C0
C0
FC
ENDCHAR
STARTCHAR Eacute
ENCODING 201
SWIDTH 640 0
DWIDTH 8 0
BBX 6 12 1 0
BITMAP
18
30
00
FC
C0
C0
C0
FC
C0
C0
C0
FC
ENDCHAR
STARTCHAR Ecircumflex
ENCODING 202
SWIDTH 640 0
DWIDTH 8 0
BBX 6 12 1 0
BITMAP
38
6C
00
FC
C0
C0
C0
FC
C0
C0
C0
FC
ENDCHAR
STARTCHAR Edieresis
ENCODING 203
SWIDTH 640 0
DWIDTH 8 0
BBX 6 11 1 0
BITMAP
6C
00
FC
C0
C0
C0
FC
C0
C0
C0
FC
ENDCHAR
STARTCHAR Igrave
ENCODING 204
SWIDTH 320 0
DWIDTH 4 0
BBX 3 12 0 0
BITMAP
C0
60
00
60
60
60
60
60
60
60
60
60
ENDCHAR
STARTCHAR Iacute
ENCODING 205
SWIDTH 320 0
DWIDTH 4 0
BBX 3 12 1 0
BITMAP
60
C0
00
C0
C0
C0
C0
C0
C0
C0
C0
C0
ENDCHAR
STARTCHAR Icircumflex
ENCODING 206
SWIDTH 320 0
DWIDTH 4 0
BBX 5 12 0 0
BITMAP
70
D8
00
60
60
60
60
60
60
60
60
60
ENDCHAR
STARTCHAR Idieresis
ENCODING 207
SWIDTH 320 0
DWIDTH 4 0
BBX 5 11 0 0
BITMAP
D8
00
60
60
60
60
60
60
60
60
60
ENDCHAR
STARTCHAR Eth
ENCODING 208
SWIDTH 720 0
DWIDTH 9 0
BBX 8 9 0 0
BITMAP
7C
66
63
63
F3
63
63
66
7C
ENDCHAR
STARTCHAR Ntilde
ENCODING 209
SWIDTH 720 0
DWIDTH 9 0
BBX 7 12 1 0
BITMAP
34
58
00
C6
C6
E6
E6
F6
CE
CE
C6
C6
ENDCHAR
STARTCHAR Ograve
ENCODING 210
SWIDTH 800 0
DWIDTH 10 0
BBX 8 12 1 0
BITMAP
30
18
00
3C
66
C3
C3
C3
C3
C3
66
3C
ENDCHAR
STARTCHAR Oacute
ENCODING 211
SWIDTH 800 0
DWIDTH 10 0
BBX 8 12 1 0
BITMAP
0C
18
00
3C
66
C3
C3
C3
C3
C3
66
3C
ENDCHAR
STARTCHAR Ocircumflex
ENCODING 212
SWIDTH 800 0
DWIDTH 10 0
BBX 8 12 1 0
BITMAP
1C
36
00
3C
66
C3
C3
C3
C3
C3
66
3C
ENDCHAR
STARTCHAR Otilde
ENCODING 213
SWIDTH 800 0
DWIDTH 10 0
BBX 8 12 1 0
BITMAP
1A
2C
00
3C
66
C3
C3
C3
C3
C3
66
3C
ENDCHAR
STARTCHAR Odieresis
ENCODING 214
SWIDTH 800 0
DWIDTH 10 0
BBX 8 11 1 0
BITMAP
66
00
3C
66
C3
C3
C3
C3
C3
66
3C
ENDCHAR
STARTCHAR multiply
ENCODING 215
SWIDTH 560 0
DWIDTH 7 0
BBX 6 5 0 1
BITMAP
CC
78
30
78
CC
ENDCHAR
STARTCHAR Oslash
ENCODING 216
SWIDTH 800 0
DWIDTH 10 0
BBX 8 10 1 -1
BITMAP
3D
66
CF
CB
DB
D3
F3
66
7C
80
ENDCHAR
STARTCHAR Ugrave
ENCODING 217
SWIDTH 720 0
DWIDTH 9 0
BBX 7 12 1 0
BITMAP
30
18
00
C6
C6
C6
C6
C6
C6
C6
6C
7C
ENDCHAR
STARTCHAR Uacute
ENCODING 218
SWIDTH 720 0
DWIDTH 9 0
BBX 7 12 1 0
BITMAP
0C
18
00
C6
C6
C6
C6
C6
C6
C6
6C
7C
ENDCHAR
STARTCHAR Ucircumflex
ENCODING 219
SWIDTH 720 0
DWIDTH 9 0
BBX 7 12 1 0
BITMAP
38
6C
00
C6
C6
C6
C6
C6
C6
C6
6C
7C
ENDCHAR
STARTCHAR Udieresis
ENCODING 220
SWIDTH 720 0
DWIDTH 9 0
BBX 7 11 1 0
BITMAP
6C
00
C6
C6
C6
C6
C6
C6
C6
6C
7C
ENDCHAR
STARTCHAR Yacute
ENCODING 221
SWIDTH 640 0
DWIDTH 8 0
BBX 8 12 0 0
BITMAP
0C
18
00
C3
C3
66
66
24
3C
18
18
18
ENDCHAR
STARTCHAR Thorn
ENCODING 222
SWIDTH 640 0
DWIDTH 8 0
BBX 7 9 1 0
BITMAP
C0
C0
FC
C6
C6
C6
FC
C0
C0
ENDCHAR
STARTCHAR germandbls
ENCODING 223
SWIDTH 640 0
DWIDTH 8 0
BBX 6 9 1 0
BITMAP
78
CC
CC
CC
D8
CC
CC
CC
D8
ENDCHAR
STARTCHAR agrave
ENCODING 224
SWIDTH 560 0
DWIDTH 7 0
BBX 7 10 0 0
BITMAP
30
18
00
78
CC
0C
7C
CC
CC
76
ENDCHAR
STARTCHAR aacute
ENCODING 225
SWIDTH 560 0
DWIDTH 7 0
BBX 7 10 0 0
BITMAP
18
30
00
78
CC
0C
7C
CC
CC
76
ENDCHAR
STARTCHAR acircumflex
ENCODING 226
SWIDTH 560 0
DWIDTH 7 0
BBX 7 10 0 0
BITMAP
38
6C
00
78
CC
0C
7C
CC
CC
76
ENDCHAR
STARTCHAR atilde
ENCODING 227
SWIDTH 560 0
DWIDTH 7 0
BBX 7 10 0 0
BITMAP
34
58
00
78
CC
0C
7C
CC
CC
76
ENDCHAR
STARTCHAR adieresis
ENCODING 228
SWIDTH 560 0
DWIDTH 7 0
BBX 7 9 0 0
BITMAP
6C
00
78
CC
0C
7C
CC
CC
76
ENDCHAR
STARTCHAR aring
ENCODING 229
SWIDTH 560 0
DWIDTH 7 0
BBX 7 11 0 0
BITMAP
30
48
30
00
78
CC
0C
7C
CC
CC
76
ENDCHAR
STARTCHAR ae
ENCODING 230
SWIDTH 880 0
DWIDTH 11 0
BBX 10 7 0 0
BITMAP
7780
CCC0
0CC0
7FC0
CC00
CCC0
7780
ENDCHAR
STARTCHAR ccedilla
ENCODING 231
SWIDTH 560 0
DWIDTH 7 0
BBX 6 10 0 -3
BITMAP
78
CC
C0
C0
C0
CC
78
10
18
70
ENDCHAR
STARTCHAR egrave
ENCODING 232
SWIDTH 560 0
DWIDTH 7 0
BBX 6 10 0 0
BITMAP
60
30
00
78
CC
CC
FC
C0
CC
78
ENDCHAR
STARTCHAR eacute
ENCODING 233
SWIDTH 560 0
DWIDTH 7 0
BBX 6 10 0 0
BITMAP
18
30
00
78
CC
CC
FC
C0
CC
78
ENDCHAR
STARTCHAR ecircumflex
ENCODING 234
SWIDTH 560 0
DWIDTH 7 0
BBX 6 10 0 0
BITMAP
38
6C
00
78
CC
CC
FC
C0
CC
78
ENDCHAR
STARTCHAR edieresis
ENCODING 235
SWIDTH 560 0
DWIDTH 7 0
BBX 6 9 0 0
BITMAP
6C
00
78
CC
CC
FC
C0
CC
78
ENDCHAR
STARTCHAR igrave
ENCODING 236
SWIDTH 240 0
DWIDTH 3 0
BBX 3 10 -1 0
BITMAP
C0
60
00
60
60
60
60
60
60
60
ENDCHAR
STARTCHAR iacute
ENCODING 237
SWIDTH 240 0
DWIDTH 3 0
BBX 3 10 0 0
BITMAP
60
C0
00
C0
C0
C0
C0
C0
C0
C0
ENDCHAR
STARTCHAR icircumflex
ENCODING 238
SWIDTH 240 0
DWIDTH 3 0
BBX 5 10 -1 0
BITMAP
70
D8
00
60
60
60
60
60
60
60
ENDCHAR
STARTCHAR idieresis
ENCODING 239
SWIDTH 240 0
DWIDTH 3 0
BBX 5 9 -1 0
BITMAP
D8
00
60
60
60
60
60
60
60
ENDCHAR
STARTCHAR eth
ENCODING 240
SWIDTH 560 0
DWIDTH 7 0
BBX 6 10 0 0
BITMAP
D8
70
90
18
7C
CC
CC
CC
CC
78
ENDCHAR
STARTCHAR ntilde
ENCODING 241
SWIDTH 560 0
DWIDTH 7 0
BBX 6 10 0 0
BITMAP
34
58
00
D8
EC
CC
CC
CC
CC
CC
ENDCHAR
STARTCHAR ograve
ENCODING 242
SWIDTH 560 0
DWIDTH 7 0
BBX 6 10 0 0
BITMAP
60
30
00
78
CC
CC
CC
CC
CC
78
ENDCHAR
STARTCHAR oacute
ENCODING 243
SWIDTH 560 0
DWIDTH 7 0
BBX 6 10 0 0
BITMAP
18
30
00
78
CC
CC
CC
CC
CC
78
ENDCHAR
STARTCHAR ocircumflex
ENCODING 244
SWIDTH 560 0
DWIDTH 7 0
BBX 6 10 0 0
BITMAP
38
6C
00
78
CC
CC
CC
CC
CC
78
ENDCHAR
STARTCHAR otilde
ENCODING 245
SWIDTH 560 0
DWIDTH 7 0
BBX 6 10 0 0
BITMAP
34
58
00
78
CC
CC
CC
CC
CC
78
ENDCHAR
STARTCHAR odieresis
ENCODING 246
SWIDTH 560 0
DWIDTH 7 0
BBX 6 9 0 0
BITMAP
6C
00
78
CC
CC
CC
CC
CC
78
ENDCHAR
STARTCHAR divide
ENCODING 247
SWIDTH 560 0
DWIDTH 7 0
BBX 6 5 0 1
BITMAP
30
00
FC
00
30
ENDCHAR
STARTCHAR oslash
ENCODING 248
SWIDTH 560 0
DWIDTH 7 0
BBX 8 7 -1 0
BITMAP
3D
66
6E
76
66
66
BC
ENDCHAR
STARTCHAR ugrave
ENCODING 249
SWIDTH 560 0
DWIDTH 7 0
BBX 6 10 0 0
BITMAP
60
30
00
CC
CC
CC
CC
CC
DC
6C
ENDCHAR
STARTCHAR uacute
ENCODING 250
SWIDTH 560 0
DWIDTH 7 0
BBX 6 10 0 0
BITMAP
18
30
00
CC
CC
CC
CC
CC
DC
6C
ENDCHAR
STARTCHAR ucircumflex
ENCODING 251
SWIDTH 560 0
DWIDTH 7 0
BBX 6 10 0 0
BITMAP
38
6C
00
CC
CC
CC
CC
CC
DC
6C
ENDCHAR
STARTCHAR udieresis
ENCODING 252
SWIDTH 560 0
DWIDTH 7 0
BBX 6 9 0 0
BITMAP
6C
00
CC
CC
CC
CC
CC
DC
6C
ENDCHAR
STARTCHAR yacute
ENCODING 253
SWIDTH 640 0
DWIDTH 8 0
BBX 7 13 0 -3
BITMAP
0C
18
00
C6
C6
6C
6C
38
38
18
10
30
60
ENDCHAR
STARTCHAR thorn
ENCODING 254
SWIDTH 560 0
DWIDTH 7 0
BBX 6 12 0 -3
BITMAP
C0
C0
D8
EC
CC
CC
CC
EC
D8
C0
C0
C0
ENDCHAR
STARTCHAR ydieresis
ENCODING 255
SWIDTH 640 0
DWIDTH 8 0
BBX 7 12 0 -3
BITMAP
6C
00
C6
C6
6C
6C
38
38
18
10
30
60
ENDCHAR
STARTCHAR OE
ENCODING 338
SWIDTH 1040 0
DWIDTH 13 0
BBX 11 9 1 0
BITMAP
3FE0
6600
C600
C600
C7E0
C600
C600
6600
3FE0
ENDCHAR
STARTCHAR oe
ENCODING 339
SWIDTH 880 0
DWIDTH 11 0
BBX 10 7 0 0
BITMAP
7780
CCC0
CCC0
CFC0
CC00
CCC0
7780
ENDCHAR
STARTCHAR Scaron
ENCODING 352
SWIDTH 720 0
DWIDTH 9 0
BBX 7 10 1 0
BITMAP
6C
38
00
78
CC
E0
78
1C
CE
7C
ENDCHAR
STARTCHAR scaron
ENCODING 353
SWIDTH 560 0
DWIDTH 7 0
BBX 6 10 0 0
BITMAP
D8
70
00
78
CC
E0
38
1C
CC
78
ENDCHAR
STARTCHAR Ydieresis
ENCODING 376
SWIDTH 640 0
DWIDTH 8 0
BBX 8 9 0 0
BITMAP
6C
00
C3
66
24
3C
18
18
18
ENDCHAR
STARTCHAR Zcaron
ENCODING 381
SWIDTH 560 0
DWIDTH 7 0
BBX 7 10 0 0
BITMAP
6C
38
00
FC
18
30
30
60
C0
FE
ENDCHAR
STARTCHAR zcaron
ENCODING 382
SWIDTH 480 0
DWIDTH 6 0
BBX 5 10 0 0
BITMAP
D8
70
00
F8
18
30
20
60
C0
F8
ENDCHAR
STARTCHAR circumflex
ENCODING 710
SWIDTH 400 0
DWIDTH 5 0
BBX 5 2 0 8
BITMAP
70
D8
ENDCHAR
STARTCHAR tilde
ENCODING 732
SWIDTH 400 0
DWIDTH 5 0
BBX 5 2 0 8
BITMAP
68
B0
ENDCHAR
STARTCHAR A
ENCODING 913
SWIDTH 720 0
DWIDTH 9 0
BBX 8 9 1 0
BITMAP
18
3C
3C
66
66
7E
C3
C3
C3
ENDCHAR
STARTCHAR B
ENCODING 914
SWIDTH 640 0
DWIDTH 8 0
BBX 7 9 1 0
BITMAP
FC
C6
C6
C6
FC
C6
C6
C6
FC
ENDCHAR
STARTCHAR Gamma
ENCODING 915
SWIDTH 640 0
DWIDTH 8 0
BBX 7 9 1 0
BITMAP
FE
C0
C0
C0
C0
C0
C0
C0
C0
ENDCHAR
STARTCHAR Delta
ENCODING 916
SWIDTH 720 0
DWIDTH 9 0
BBX 8 9 1 0
BITMAP
18
18
3C
3C
66
66
C3
C3
FF
ENDCHAR
STARTCHAR E
ENCODING 917
SWIDTH 640 0
DWIDTH 8 0
BBX 7 9 1 0
BITMAP
FE
C0
C0
C0
FE
C0
C0
C0
FE
ENDCHAR
STARTCHAR Z
ENCODING 918
SWIDTH 720 0
DWIDTH 9 0
BBX 8 9 1 0
BITMAP
FF
03
06
0C
18
30
60
C0
FF
ENDCHAR
STARTCHAR H
ENCODING 919
SWIDTH 720 0
DWIDTH 9 0
BBX 8 9 1 0
BITMAP
C3
C3
C3
C3
FF
C3
C3
C3
C3
ENDCHAR
STARTCHAR Theta
ENCODING 920
SWIDTH 720 0
DWIDTH 9 0
BBX 8 9 1 0
BITMAP
7E
C3
C3
C3
FF
C3
C3
C3
7E
ENDCHAR
STARTCHAR I
ENCODING 921
SWIDTH 400 0
DWIDTH 5 0
BBX 4 9 1 0
BITMAP
F0
60
60
60
60
60
60
60
F0
ENDCHAR
STARTCHAR K
ENCODING 922
SWIDTH 640 0
DWIDTH 8 0
BBX 8 9 1 0
BITMAP
C6
CC
D8
F0
F0
D8
CC
C6
C3
ENDCHAR
STARTCHAR Lambda
ENCODING 923
SWIDTH 720 0
DWIDTH 9 0
BBX 8 9 1 0
BITMAP
18
3C
3C
3C
66
66
66
C3
C3
ENDCHAR
STARTCHAR M
ENCODING 924
SWIDTH 880 0
DWIDTH 11 0
BBX 10 9 1 0
BITMAP
C0C0
E1C0
E1C0
F3C0
F3C0
DEC0
DEC0
CCC0
CCC0
ENDCHAR
STARTCHAR N
ENCODING 925
SWIDTH 720 0
DWIDTH 9 0
BBX 8 9 1 0
BITMAP
C3
E3
F3
F3
DB
CF
CF
C7
C3
ENDCHAR
STARTCHAR Xi
ENCODING 926
SWIDTH 720 0
DWIDTH 9 0
BBX 8 9 1 0
BITMAP
FF
00
00
00
7E
00
00
00
FF
ENDCHAR
STARTCHAR O
ENCODING 927
SWIDTH 800 0
DWIDTH 10 0
BBX 9 9 1 0
BITMAP
3E00
6300
C180
C180
C180
C180
C180
6300
3E00
ENDCHAR
STARTCHAR Pi
ENCODING 928
SWIDTH 720 0
DWIDTH 9 0
BBX 8 9 1 0
BITMAP
FF
66
66
66
66
66
66
66
66
ENDCHAR
STARTCHAR P
ENCODING 929
SWIDTH 640 0
DWIDTH 8 0
BBX 7 9 1 0
BITMAP
FC
C6
C6
C6
FC
C0
C0
C0
C0
ENDCHAR
STARTCHAR Sigma
ENCODING 931
SWIDTH 640 0
DWIDTH 8 0
BBX 7 9 1 0
BITMAP
FE
C0
60
30
18
30
60
C0
FE
ENDCHAR
STARTCHAR T
ENCODING 932
SWIDTH 560 0
DWIDTH 7 0
BBX 8 9 0 0
BITMAP
FF
18
18
18
18
18
18
18
18
ENDCHAR
STARTCHAR Y
ENCODING 933
SWIDTH 720 0
DWIDTH 9 0
BBX 8 9 1 0
BITMAP
C3
C3
66
66
3C
18
18
18
18
ENDCHAR
STARTCHAR Phi
ENCODING 934
SWIDTH 720 0
DWIDTH 9 0
BBX 8 9 1 0
BITMAP
18
7E
DB
DB
DB
DB
DB
7E
18
ENDCHAR
STARTCHAR X
ENCODING 935
SWIDTH 720 0
DWIDTH 9 0
BBX 8 9 1 0
BITMAP
C3
66
66
3C
18
3C
66
66
C3
ENDCHAR
STARTCHAR Psi
ENCODING 936
SWIDTH 720 0
DWIDTH 9 0
BBX 8 9 1 0
BITMAP
DB
DB
DB
DB
DB
7E
18
18
18
ENDCHAR
STARTCHAR Omega
ENCODING 937
SWIDTH 800 0
DWIDTH 10 0
BBX 9 9 1 0
BITMAP
7F00
C180
C180
C180
C180
C180
7700
3600
F700
ENDCHAR
STARTCHAR endash
ENCODING 8211
SWIDTH 560 0
DWIDTH 7 0
BBX 7 1 0 3
BITMAP
FE
ENDCHAR
STARTCHAR emdash
ENCODING 8212
SWIDTH 960 0
DWIDTH 12 0
BBX 12 1 0 3
BITMAP
FFF0
ENDCHAR
STARTCHAR quoteleft
ENCODING 8216
SWIDTH 320 0
DWIDTH 4 0
BBX 2 3 1 6
BITMAP
40
80
C0
ENDCHAR
STARTCHAR quoteright
ENCODING 8217
SWIDTH 320 0
DWIDTH 4 0
BBX 2 3 1 6
BITMAP
C0
40
80
ENDCHAR
STARTCHAR quotesinglbase
ENCODING 8218
SWIDTH 320 0
DWIDTH 4 0
BBX 2 3 1 -2
BITMAP
C0
40
80
ENDCHAR
STARTCHAR quotereversed
ENCODING 8219
SWIDTH 320 0
DWIDTH 4 0
BBX 2 3 1 6
BITMAP
C0
80
40
ENDCHAR
STARTCHAR quotedblleft
ENCODING 8220
SWIDTH 560 0
DWIDTH 7 0
BBX 5 3 1 6
BITMAP
48
90
D8
ENDCHAR
STARTCHAR quotedblright
ENCODING 8221
SWIDTH 560 0
DWIDTH 7 0
BBX 5 3 1 6
BITMAP
D8
48
90
ENDCHAR
STARTCHAR quotedblbase
ENCODING 8222
SWIDTH 560 0
DWIDTH 7 0
BBX 5 3 1 -2
BITMAP
D8
48
90
ENDCHAR
STARTCHAR uni201F
ENCODING 8223
SWIDTH 560 0
DWIDTH 7 0
BBX 5 3 1 6
BITMAP
D8
90
48
ENDCHAR
STARTCHAR dagger
ENCODING 8224
SWIDTH 560 0
DWIDTH 7 0
BBX 6 12 0 -3
BITMAP
30
30
30
FC
30
30
30
30
30
30
30
30
ENDCHAR
STARTCHAR daggerdbl
ENCODING 8225
SWIDTH 560 0
DWIDTH 7 0
BBX 6 12 0 -3
BITMAP
30
30
30
FC
30
30
30
FC
30
30
30
30
ENDCHAR
STARTCHAR bullet
ENCODING 8226
SWIDTH 320 0
DWIDTH 4 0
BBX 4 3 0 2
BITMAP
60
F0
60
ENDCHAR
STARTCHAR ellipsis
ENCODING 8230
SWIDTH 960 0
DWIDTH 12 0
BBX 10 1 1 0
BITMAP
CCC0
ENDCHAR
STARTCHAR perthousand
ENCODING 8240
SWIDTH 1040 0
DWIDTH 13 0
BBX 13 8 0 0
BITMAP
7100
DB00
DA00
7400
05B0
0B68
1B68
11B0
ENDCHAR
STARTCHAR guilsinglleft
ENCODING 8249
SWIDTH 400 0
DWIDTH 5 0
BBX 3 5 1 1
BITMAP
20
60
C0
60
20
ENDCHAR
STARTCHAR guilsinglright
ENCODING 8250
SWIDTH 400 0
DWIDTH 5 0
BBX 3 5 1 1
BITMAP
80
C0
60
C0
80
ENDCHAR
STARTCHAR uni20A5
ENCODING 8357
SWIDTH 880 0
DWIDTH 11 0
BBX 10 9 0 -1
BITMAP
0600
BF80
CCC0
CCC0
CCC0
CCC0
CCC0
DCC0
1800
ENDCHAR
STARTCHAR uni20A6
ENCODING 8358
SWIDTH 720 0
DWIDTH 9 0
BBX 7 9 1 0
BITMAP
C6
E6
E6
FE
D6
FE
CE
C6
C6
ENDCHAR
STARTCHAR uni20A9
ENCODING 8361
SWIDTH 800 0
DWIDTH 10 0
BBX 10 9 0 0
BITMAP
CCC0
CCC0
CCC0
7F80
6D80
7F80
3300
3300
3300
ENDCHAR
STARTCHAR Euro
ENCODING 8364
SWIDTH 640 0
DWIDTH 8 0
BBX 9 9 -1 0
BITMAP
0F00
1980
3000
FC00
3000
FC00
3000
1980
0F00
ENDCHAR
STARTCHAR uni20AD
ENCODING 8365
SWIDTH 720 0
DWIDTH 9 0
BBX 8 9 1 0
BITMAP
C6
CC
D8
F0
FF
D8
CC
C6
C3
ENDCHAR
ENDFONT
