STARTFONT 2.1
COMMENT $XConsortium: helvBO14.bdf,v 1.14 95/01/26 18:02:06 gildea Exp $
COMMENT 
COMMENT +
COMMENT  Copyright 1984-1989, 1994 Adobe Systems Incorporated.
COMMENT  Copyright 1988, 1994 Digital Equipment Corporation.
COMMENT 
COMMENT  Adobe is a trademark of Adobe Systems Incorporated which may be
COMMENT  registered in certain jurisdictions.
COMMENT  Permission to use these trademarks is hereby granted only in
COMMENT  association with the images described in this file.
COMMENT 
COMMENT  Permission to use, copy, modify, distribute and sell this software
COMMENT  and its documentation for any purpose and without fee is hereby
COMMENT  granted, provided that the above copyright notices appear in all
COMMENT  copies and that both those copyright notices and this permission
COMMENT  notice appear in supporting documentation, and that the names of
COMMENT  Adobe Systems and Digital Equipment Corporation not be used in
COMMENT  advertising or publicity pertaining to distribution of the software
COMMENT  without specific, written prior permission.  Adobe Systems and
COMMENT  Digital Equipment Corporation make no representations about the
COMMENT  suitability of this software for any purpose.  It is provided "as
COMMENT  is" without express or implied warranty.
COMMENT -
FONT -Adobe-Helvetica-Bold-O-Normal--14-140-75-75-P-82-ISO10646-1
SIZE 14 75 75
FONTBOUNDINGBOX 18 17 -1 -3
STARTPROPERTIES 29
FOUNDRY "Adobe"
FAMILY_NAME "Helvetica"
WEIGHT_NAME "Bold"
SLANT "O"
SETWIDTH_NAME "Normal"
ADD_STYLE_NAME ""
PIXEL_SIZE 14
POINT_SIZE 140
RESOLUTION_X 75
RESOLUTION_Y 75
SPACING "P"
AVERAGE_WIDTH 82
CHARSET_REGISTRY "ISO10646"
CHARSET_ENCODING "1"
CAP_HEIGHT 11
X_HEIGHT 8
FONT_ASCENT 13
FONT_DESCENT 3
FACE_NAME "Helvetica Bold Oblique"
COPYRIGHT "Copyright (c) 1984, 1987 Adobe Systems Incorporated. All Rights Reserved. Copyright (c) 1988, 1991 Digital Equipment Corporation. All Rights Reserved."
NOTICE "Helvetica is a trademark of Linotype-Hell AG and/or its subsidiaries.  "
_DEC_DEVICE_FONTNAMES "PS=Helvetica-BoldOblique"
_DEC_PRODUCTINFO "DECwindows Fonts V2.2, 07-Nov-1991"
DEFAULT_CHAR 32
RELATIVE_SETWIDTH 50
RELATIVE_WEIGHT 70
CHARSET_COLLECTIONS "ASCII ISO8859-1 ADOBE-STANDARD"
FULL_NAME "Helvetica Bold Oblique"
_XMBDFED_INFO "Edited with xmbdfed 4.5."
ENDPROPERTIES
CHARS 284
STARTCHAR Lslash
ENCODING -1
SWIDTH 617 0
DWIDTH 9 0
BBX 7 11 1 0
BITMAP
18
18
18
30
3C
70
E0
60
60
C0
FE
ENDCHAR
STARTCHAR OE
ENCODING -1
SWIDTH 1028 0
DWIDTH 15 0
BBX 15 11 2 0
BITMAP
07FE
1CC0
30C0
6180
6180
C1FC
C300
C300
C300
6600
3FF0
ENDCHAR
STARTCHAR Scaron
ENCODING -1
SWIDTH 685 0
DWIDTH 10 0
BBX 10 14 1 0
BITMAP
0D80
0700
0000
0780
18C0
30C0
3800
1E00
0700
0380
0180
C180
C300
7C00
ENDCHAR
STARTCHAR Ydieresis
ENCODING -1
SWIDTH 685 0
DWIDTH 10 0
BBX 10 13 3 0
BITMAP
3300
3300
C0C0
C180
C300
6600
6C00
7800
3000
3000
6000
6000
6000
ENDCHAR
STARTCHAR Zcaron
ENCODING -1
SWIDTH 617 0
DWIDTH 9 0
BBX 11 14 0 0
BITMAP
0D80
0700
0000
1FE0
00C0
0180
0300
0600
0C00
1800
3000
6000
C000
FF00
ENDCHAR
STARTCHAR breve
ENCODING -1
SWIDTH 274 0
DWIDTH 4 0
BBX 4 3 3 8
BITMAP
90
90
60
ENDCHAR
STARTCHAR bullet
ENCODING -1
SWIDTH 411 0
DWIDTH 6 0
BBX 4 4 2 2
BITMAP
60
F0
F0
60
ENDCHAR
STARTCHAR caron
ENCODING -1
SWIDTH 342 0
DWIDTH 5 0
BBX 5 2 3 9
BITMAP
D8
70
ENDCHAR
STARTCHAR circumflex
ENCODING -1
SWIDTH 342 0
DWIDTH 5 0
BBX 5 2 3 9
BITMAP
70
D8
ENDCHAR
STARTCHAR dagger
ENCODING -1
SWIDTH 548 0
DWIDTH 8 0
BBX 8 14 2 -3
BITMAP
0C
0C
18
18
FF
18
30
30
30
60
60
60
C0
C0
ENDCHAR
STARTCHAR daggerdbl
ENCODING -1
SWIDTH 548 0
DWIDTH 8 0
BBX 10 14 0 -3
BITMAP
0300
0300
0600
0600
3FC0
0600
0C00
0C00
0C00
FF00
1800
1800
3000
3000
ENDCHAR
STARTCHAR dotaccent
ENCODING -1
SWIDTH 274 0
DWIDTH 4 0
BBX 2 2 4 9
BITMAP
C0
C0
ENDCHAR
STARTCHAR dotlessi
ENCODING -1
SWIDTH 274 0
DWIDTH 4 0
BBX 4 8 1 0
BITMAP
30
30
30
60
60
60
C0
C0
ENDCHAR
STARTCHAR ellipsis
ENCODING -1
SWIDTH 1028 0
DWIDTH 15 0
BBX 12 2 2 0
BITMAP
C630
C630
ENDCHAR
STARTCHAR emdash
ENCODING -1
SWIDTH 1028 0
DWIDTH 15 0
BBX 15 1 1 4
BITMAP
FFFE
ENDCHAR
STARTCHAR endash
ENCODING -1
SWIDTH 548 0
DWIDTH 8 0
BBX 8 1 1 4
BITMAP
FF
ENDCHAR
STARTCHAR fi
ENCODING -1
SWIDTH 617 0
DWIDTH 9 0
BBX 10 11 1 0
BITMAP
0EC0
18C0
1800
7D80
3180
3180
6300
6300
6300
C600
C600
ENDCHAR
STARTCHAR fl
ENCODING -1
SWIDTH 617 0
DWIDTH 9 0
BBX 10 11 1 0
BITMAP
0EC0
18C0
1980
7D80
3180
3300
6300
6300
6300
C600
C600
ENDCHAR
STARTCHAR florin
ENCODING 402
SWIDTH 548 0
DWIDTH 8 0
BBX 10 13 0 -3
BITMAP
0380
06C0
0C00
3F80
0C00
0C00
1800
1800
1800
3000
3000
E000
C000
ENDCHAR
STARTCHAR fraction
ENCODING -1
SWIDTH 480 0
DWIDTH 7 0
BBX 9 10 0 0
BITMAP
0180
0300
0600
0400
0C00
1800
1000
3000
6000
C000
ENDCHAR
STARTCHAR grave
ENCODING -1
SWIDTH 342 0
DWIDTH 5 0
BBX 3 2 4 9
BITMAP
C0
60
ENDCHAR
STARTCHAR guilsinglleft
ENCODING -1
SWIDTH 480 0
DWIDTH 7 0
BBX 5 5 2 2
BITMAP
18
70
C0
60
30
ENDCHAR
STARTCHAR guilsinglright
ENCODING -1
SWIDTH 480 0
DWIDTH 7 0
BBX 5 5 2 2
BITMAP
60
30
18
70
C0
ENDCHAR
STARTCHAR hungarumlaut
ENCODING -1
SWIDTH 411 0
DWIDTH 6 0
BBX 6 2 3 9
BITMAP
6C
D8
ENDCHAR
STARTCHAR lslash
ENCODING -1
SWIDTH 274 0
DWIDTH 4 0
BBX 5 11 1 0
BITMAP
18
18
30
30
38
60
E0
60
60
C0
C0
ENDCHAR
STARTCHAR oe
ENCODING -1
SWIDTH 891 0
DWIDTH 13 0
BBX 13 8 1 0
BITMAP
1EF0
3398
6318
63F0
C600
C600
CE60
7FC0
ENDCHAR
STARTCHAR ogonek
ENCODING -1
SWIDTH 274 0
DWIDTH 4 0
BBX 3 4 0 -3
BITMAP
60
C0
80
E0
ENDCHAR
STARTCHAR perthousand
ENCODING -1
SWIDTH 1097 0
DWIDTH 16 0
BBX 14 10 1 0
BITMAP
1860
34C0
2D80
1B00
0600
0C00
1B18
36B4
65AC
C318
ENDCHAR
STARTCHAR quotedblbase
ENCODING -1
SWIDTH 480 0
DWIDTH 7 0
BBX 6 3 0 -2
BITMAP
FC
6C
D8
ENDCHAR
STARTCHAR quotedblleft
ENCODING -1
SWIDTH 480 0
DWIDTH 7 0
BBX 6 3 3 8
BITMAP
6C
D8
FC
ENDCHAR
STARTCHAR quotedblright
ENCODING -1
SWIDTH 480 0
DWIDTH 7 0
BBX 6 3 4 8
BITMAP
FC
6C
D8
ENDCHAR
STARTCHAR quotesinglbase
ENCODING -1
SWIDTH 274 0
DWIDTH 4 0
BBX 3 3 1 -2
BITMAP
E0
60
C0
ENDCHAR
STARTCHAR quotesingle
ENCODING -1
SWIDTH 274 0
DWIDTH 4 0
BBX 2 3 4 8
BITMAP
C0
C0
80
ENDCHAR
STARTCHAR ring
ENCODING -1
SWIDTH 342 0
DWIDTH 5 0
BBX 5 3 3 8
BITMAP
70
D8
70
ENDCHAR
STARTCHAR scaron
ENCODING -1
SWIDTH 548 0
DWIDTH 8 0
BBX 8 11 1 0
BITMAP
1B
0E
00
1E
33
30
1C
06
C6
CC
78
ENDCHAR
STARTCHAR tilde
ENCODING -1
SWIDTH 342 0
DWIDTH 5 0
BBX 5 2 3 9
BITMAP
68
B0
ENDCHAR
STARTCHAR trademark
ENCODING -1
SWIDTH 891 0
DWIDTH 13 0
BBX 11 6 3 5
BITMAP
FA20
2260
22A0
4540
4540
4540
ENDCHAR
STARTCHAR zcaron
ENCODING -1
SWIDTH 411 0
DWIDTH 6 0
BBX 8 11 0 0
BITMAP
1B
0E
00
3F
06
0C
18
30
60
C0
FC
ENDCHAR
STARTCHAR space
ENCODING 32
SWIDTH 274 0
DWIDTH 4 0
BBX 0 0 0 0
BITMAP
ENDCHAR
STARTCHAR exclam
ENCODING 33
SWIDTH 342 0
DWIDTH 5 0
BBX 5 11 2 0
BITMAP
18
18
30
30
30
60
60
40
00
C0
C0
ENDCHAR
STARTCHAR quotedbl
ENCODING 34
SWIDTH 480 0
DWIDTH 7 0
BBX 5 3 4 8
BITMAP
D8
D8
90
ENDCHAR
STARTCHAR numbersign
ENCODING 35
SWIDTH 685 0
DWIDTH 10 0
BBX 10 10 1 0
BITMAP
0D80
0D80
1B00
7FC0
1B00
3600
FF00
6C00
D800
D800
ENDCHAR
STARTCHAR dollar
ENCODING 36
SWIDTH 548 0
DWIDTH 8 0
BBX 8 12 1 -1
BITMAP
04
3E
6B
68
38
1C
16
16
A6
EC
78
40
ENDCHAR
STARTCHAR percent
ENCODING 37
SWIDTH 891 0
DWIDTH 13 0
BBX 11 10 2 0
BITMAP
3860
64C0
4D80
3B00
0600
0C00
1B80
3640
64C0
C380
ENDCHAR
STARTCHAR ampersand
ENCODING 38
SWIDTH 754 0
DWIDTH 11 0
BBX 10 10 1 0
BITMAP
0E00
1B00
1300
1600
3CC0
66C0
C380
C300
E780
7CC0
ENDCHAR
STARTCHAR quoteright
ENCODING 39
SWIDTH 342 0
DWIDTH 5 0
BBX 3 3 4 8
BITMAP
E0
60
C0
ENDCHAR
STARTCHAR parenleft
ENCODING 40
SWIDTH 342 0
DWIDTH 5 0
BBX 6 14 2 -3
BITMAP
0C
18
30
60
60
C0
C0
C0
C0
C0
C0
60
60
30
ENDCHAR
STARTCHAR parenright
ENCODING 41
SWIDTH 411 0
DWIDTH 6 0
BBX 6 14 0 -3
BITMAP
30
18
18
0C
0C
0C
0C
0C
0C
18
18
30
60
C0
ENDCHAR
STARTCHAR asterisk
ENCODING 42
SWIDTH 411 0
DWIDTH 6 0
BBX 5 4 3 7
BITMAP
20
F8
60
A0
ENDCHAR
STARTCHAR plus
ENCODING 43
SWIDTH 617 0
DWIDTH 9 0
BBX 7 7 2 1
BITMAP
18
18
18
FE
30
30
30
ENDCHAR
STARTCHAR comma
ENCODING 44
SWIDTH 274 0
DWIDTH 4 0
BBX 3 4 0 -2
BITMAP
60
60
20
C0
ENDCHAR
STARTCHAR minus
ENCODING 45
SWIDTH 617 0
DWIDTH 9 0
BBX 7 1 2 4
BITMAP
FE
ENDCHAR
STARTCHAR period
ENCODING 46
SWIDTH 274 0
DWIDTH 4 0
BBX 2 2 1 0
BITMAP
C0
C0
ENDCHAR
STARTCHAR slash
ENCODING 47
SWIDTH 274 0
DWIDTH 4 0
BBX 7 11 0 0
BITMAP
06
04
0C
08
18
10
30
20
60
40
C0
ENDCHAR
STARTCHAR zero
ENCODING 48
SWIDTH 548 0
DWIDTH 8 0
BBX 8 10 1 0
BITMAP
1E
33
63
63
C3
C3
C6
C6
CC
78
ENDCHAR
STARTCHAR one
ENCODING 49
SWIDTH 548 0
DWIDTH 8 0
BBX 5 10 3 0
BITMAP
18
F8
30
30
30
60
60
60
C0
C0
ENDCHAR
STARTCHAR two
ENCODING 50
SWIDTH 548 0
DWIDTH 8 0
BBX 8 10 1 0
BITMAP
3E
63
63
07
0E
38
70
C0
C0
FC
ENDCHAR
STARTCHAR three
ENCODING 51
SWIDTH 548 0
DWIDTH 8 0
BBX 8 10 1 0
BITMAP
1E
33
33
06
1C
06
06
C6
CC
78
ENDCHAR
STARTCHAR four
ENCODING 52
SWIDTH 548 0
DWIDTH 8 0
BBX 8 10 1 0
BITMAP
03
07
1B
33
66
C6
FF
0C
0C
0C
ENDCHAR
STARTCHAR five
ENCODING 53
SWIDTH 548 0
DWIDTH 8 0
BBX 8 10 1 0
BITMAP
3F
30
60
7C
0E
06
06
C6
CC
78
ENDCHAR
STARTCHAR six
ENCODING 54
SWIDTH 548 0
DWIDTH 8 0
BBX 8 10 1 0
BITMAP
1E
33
60
40
DC
F6
C6
C6
CC
78
ENDCHAR
STARTCHAR seven
ENCODING 55
SWIDTH 548 0
DWIDTH 8 0
BBX 7 10 2 0
BITMAP
7E
06
0C
18
30
30
60
60
C0
C0
ENDCHAR
STARTCHAR eight
ENCODING 56
SWIDTH 548 0
DWIDTH 8 0
BBX 8 10 1 0
BITMAP
1E
33
63
66
3C
66
C6
C6
CC
78
ENDCHAR
STARTCHAR nine
ENCODING 57
SWIDTH 548 0
DWIDTH 8 0
BBX 8 10 1 0
BITMAP
1E
33
63
63
63
3E
06
C6
CC
78
ENDCHAR
STARTCHAR colon
ENCODING 58
SWIDTH 342 0
DWIDTH 5 0
BBX 4 8 2 0
BITMAP
30
30
00
00
00
00
C0
C0
ENDCHAR
STARTCHAR semicolon
ENCODING 59
SWIDTH 342 0
DWIDTH 5 0
BBX 5 10 1 -2
BITMAP
18
18
00
00
00
00
60
60
20
C0
ENDCHAR
STARTCHAR less
ENCODING 60
SWIDTH 548 0
DWIDTH 8 0
BBX 8 5 1 2
BITMAP
07
3C
E0
38
0E
ENDCHAR
STARTCHAR equal
ENCODING 61
SWIDTH 617 0
DWIDTH 9 0
BBX 8 3 2 3
BITMAP
7F
00
FE
ENDCHAR
STARTCHAR greater
ENCODING 62
SWIDTH 617 0
DWIDTH 9 0
BBX 8 5 1 2
BITMAP
70
1C
07
3C
E0
ENDCHAR
STARTCHAR question
ENCODING 63
SWIDTH 617 0
DWIDTH 9 0
BBX 8 11 3 0
BITMAP
3E
63
63
06
1C
30
60
60
00
C0
C0
ENDCHAR
STARTCHAR at
ENCODING 64
SWIDTH 960 0
DWIDTH 14 0
BBX 13 13 2 -2
BITMAP
07E0
1C30
3018
6348
4CC8
C998
9190
9330
9B60
CDC0
4000
71C0
1F00
ENDCHAR
STARTCHAR A
ENCODING 65
SWIDTH 617 0
DWIDTH 9 0
BBX 9 11 0 0
BITMAP
0300
0700
0D80
0D80
1980
1980
3180
7F80
6180
C180
C180
ENDCHAR
STARTCHAR B
ENCODING 66
SWIDTH 685 0
DWIDTH 10 0
BBX 10 11 1 0
BITMAP
1F80
18C0
18C0
30C0
3180
3F00
6180
6180
6180
C300
FE00
ENDCHAR
STARTCHAR C
ENCODING 67
SWIDTH 754 0
DWIDTH 11 0
BBX 10 11 2 0
BITMAP
0780
1CC0
30C0
6000
6000
C000
C000
C000
C180
6700
3C00
ENDCHAR
STARTCHAR D
ENCODING 68
SWIDTH 754 0
DWIDTH 11 0
BBX 11 11 1 0
BITMAP
1F80
18C0
1860
3060
3060
3060
60C0
60C0
6180
C700
FC00
ENDCHAR
STARTCHAR E
ENCODING 69
SWIDTH 617 0
DWIDTH 9 0
BBX 10 11 1 0
BITMAP
1FC0
1800
1800
3000
3000
3F80
6000
6000
6000
C000
FE00
ENDCHAR
STARTCHAR F
ENCODING 70
SWIDTH 548 0
DWIDTH 8 0
BBX 10 11 1 0
BITMAP
1FC0
1800
1800
3000
3000
3F00
6000
6000
6000
C000
C000
ENDCHAR
STARTCHAR G
ENCODING 71
SWIDTH 754 0
DWIDTH 11 0
BBX 10 11 2 0
BITMAP
0780
1CC0
30C0
6000
6000
C3C0
C180
C180
C300
6700
3D00
ENDCHAR
STARTCHAR H
ENCODING 72
SWIDTH 685 0
DWIDTH 10 0
BBX 11 11 1 0
BITMAP
1860
1860
1860
30C0
30C0
3FC0
6180
6180
6180
C300
C300
ENDCHAR
STARTCHAR I
ENCODING 73
SWIDTH 480 0
DWIDTH 7 0
BBX 7 11 0 0
BITMAP
1E
0C
0C
18
18
18
30
30
30
60
F0
ENDCHAR
STARTCHAR J
ENCODING 74
SWIDTH 548 0
DWIDTH 8 0
BBX 9 11 1 0
BITMAP
0180
0180
0180
0300
0300
0300
0600
C600
C600
EC00
7800
ENDCHAR
STARTCHAR K
ENCODING 75
SWIDTH 685 0
DWIDTH 10 0
BBX 11 11 1 0
BITMAP
1860
18C0
1980
3300
3600
3C00
7600
6600
6300
C300
C180
ENDCHAR
STARTCHAR L
ENCODING 76
SWIDTH 548 0
DWIDTH 8 0
BBX 7 11 1 0
BITMAP
18
18
18
30
30
30
60
60
60
C0
FE
ENDCHAR
STARTCHAR M
ENCODING 77
SWIDTH 891 0
DWIDTH 13 0
BBX 14 11 1 0
BITMAP
180C
181C
183C
3C68
34D8
3498
65B0
6730
6730
C660
C660
ENDCHAR
STARTCHAR N
ENCODING 78
SWIDTH 754 0
DWIDTH 11 0
BBX 12 11 1 0
BITMAP
1830
1830
1C30
3C60
3460
3660
66C0
66C0
63C0
C180
C180
ENDCHAR
STARTCHAR O
ENCODING 79
SWIDTH 822 0
DWIDTH 12 0
BBX 11 11 2 0
BITMAP
0780
1CC0
3060
6060
6060
C060
C0C0
C0C0
C180
6700
3C00
ENDCHAR
STARTCHAR P
ENCODING 80
SWIDTH 685 0
DWIDTH 10 0
BBX 11 11 1 0
BITMAP
1FC0
1860
1860
3060
30C0
3F80
6000
6000
6000
C000
C000
ENDCHAR
STARTCHAR Q
ENCODING 81
SWIDTH 822 0
DWIDTH 12 0
BBX 11 11 2 0
BITMAP
0780
1CC0
3060
6060
6060
C060
C0C0
C6C0
C380
6700
3D80
ENDCHAR
STARTCHAR R
ENCODING 82
SWIDTH 685 0
DWIDTH 10 0
BBX 10 11 1 0
BITMAP
1F80
18C0
18C0
30C0
3180
3F00
6180
6180
6180
C300
C300
ENDCHAR
STARTCHAR S
ENCODING 83
SWIDTH 685 0
DWIDTH 10 0
BBX 10 11 1 0
BITMAP
0780
18C0
30C0
3800
1E00
0700
0380
0180
C180
C300
7C00
ENDCHAR
STARTCHAR T
ENCODING 84
SWIDTH 548 0
DWIDTH 8 0
BBX 8 11 3 0
BITMAP
FF
18
18
30
30
30
60
60
60
C0
C0
ENDCHAR
STARTCHAR U
ENCODING 85
SWIDTH 754 0
DWIDTH 11 0
BBX 11 11 2 0
BITMAP
3060
3060
3060
60C0
60C0
60C0
C180
C180
C180
C300
7E00
ENDCHAR
STARTCHAR V
ENCODING 86
SWIDTH 685 0
DWIDTH 10 0
BBX 9 11 3 0
BITMAP
C180
C180
C300
C300
C600
C600
CC00
CC00
5800
7000
6000
ENDCHAR
STARTCHAR W
ENCODING 87
SWIDTH 960 0
DWIDTH 14 0
BBX 13 11 3 0
BITMAP
C618
C618
C630
CE30
CE60
CA60
DAC0
D2C0
7380
6380
6300
ENDCHAR
STARTCHAR X
ENCODING 88
SWIDTH 617 0
DWIDTH 9 0
BBX 12 11 0 0
BITMAP
1830
1860
0CC0
0D80
0700
0600
0E00
1B00
3300
6180
C180
ENDCHAR
STARTCHAR Y
ENCODING 89
SWIDTH 685 0
DWIDTH 10 0
BBX 10 11 3 0
BITMAP
C0C0
C180
C300
6600
6C00
7800
3000
3000
6000
6000
6000
ENDCHAR
STARTCHAR Z
ENCODING 90
SWIDTH 617 0
DWIDTH 9 0
BBX 11 11 0 0
BITMAP
1FE0
00C0
0180
0300
0600
0C00
1800
3000
6000
C000
FF00
ENDCHAR
STARTCHAR bracketleft
ENCODING 91
SWIDTH 342 0
DWIDTH 5 0
BBX 8 14 0 -3
BITMAP
0F
0C
0C
18
18
18
30
30
30
60
60
C0
C0
F0
ENDCHAR
STARTCHAR backslash
ENCODING 92
SWIDTH 411 0
DWIDTH 6 0
BBX 3 11 3 0
BITMAP
C0
C0
C0
40
40
40
40
60
60
60
60
ENDCHAR
STARTCHAR bracketright
ENCODING 93
SWIDTH 342 0
DWIDTH 5 0
BBX 8 14 -1 -3
BITMAP
0F
03
03
06
06
06
0C
0C
0C
18
18
30
30
F0
ENDCHAR
STARTCHAR asciicircum
ENCODING 94
SWIDTH 548 0
DWIDTH 8 0
BBX 6 6 3 5
BITMAP
18
38
6C
6C
CC
CC
ENDCHAR
STARTCHAR underscore
ENCODING 95
SWIDTH 548 0
DWIDTH 8 0
BBX 8 1 -1 -3
BITMAP
FF
ENDCHAR
STARTCHAR quoteleft
ENCODING 96
SWIDTH 342 0
DWIDTH 5 0
BBX 3 3 4 8
BITMAP
60
C0
E0
ENDCHAR
STARTCHAR a
ENCODING 97
SWIDTH 548 0
DWIDTH 8 0
BBX 8 8 1 0
BITMAP
1E
33
03
3E
66
C6
CC
76
ENDCHAR
STARTCHAR b
ENCODING 98
SWIDTH 617 0
DWIDTH 9 0
BBX 9 11 1 0
BITMAP
1800
1800
3000
3700
3980
7180
6180
6300
C300
E600
DC00
ENDCHAR
STARTCHAR c
ENCODING 99
SWIDTH 548 0
DWIDTH 8 0
BBX 8 8 1 0
BITMAP
1E
33
63
60
C0
C6
CC
78
ENDCHAR
STARTCHAR d
ENCODING 100
SWIDTH 617 0
DWIDTH 9 0
BBX 10 11 1 0
BITMAP
00C0
00C0
0180
1D80
3380
6180
6300
C300
C300
CE00
7600
ENDCHAR
STARTCHAR e
ENCODING 101
SWIDTH 548 0
DWIDTH 8 0
BBX 8 8 1 0
BITMAP
1E
33
63
7E
C0
C0
CC
78
ENDCHAR
STARTCHAR f
ENCODING 102
SWIDTH 342 0
DWIDTH 5 0
BBX 7 11 1 0
BITMAP
0E
18
18
7C
30
30
60
60
60
C0
C0
ENDCHAR
STARTCHAR g
ENCODING 103
SWIDTH 617 0
DWIDTH 9 0
BBX 10 11 0 -3
BITMAP
0EC0
19C0
30C0
3180
6180
6180
6700
3B00
0300
C600
7C00
ENDCHAR
STARTCHAR h
ENCODING 104
SWIDTH 617 0
DWIDTH 9 0
BBX 9 11 1 0
BITMAP
1800
1800
3000
3700
3B80
3180
6300
6300
6300
C600
C600
ENDCHAR
STARTCHAR i
ENCODING 105
SWIDTH 274 0
DWIDTH 4 0
BBX 5 11 1 0
BITMAP
18
18
00
30
30
30
60
60
60
C0
C0
ENDCHAR
STARTCHAR j
ENCODING 106
SWIDTH 274 0
DWIDTH 4 0
BBX 7 14 -1 -3
BITMAP
06
06
00
0C
0C
0C
18
18
18
30
30
30
E0
C0
ENDCHAR
STARTCHAR k
ENCODING 107
SWIDTH 548 0
DWIDTH 8 0
BBX 8 11 1 0
BITMAP
18
18
30
33
36
3C
78
6C
6C
CC
CC
ENDCHAR
STARTCHAR l
ENCODING 108
SWIDTH 274 0
DWIDTH 4 0
BBX 5 11 1 0
BITMAP
18
18
30
30
30
60
60
60
60
C0
C0
ENDCHAR
STARTCHAR m
ENCODING 109
SWIDTH 822 0
DWIDTH 12 0
BBX 12 8 1 0
BITMAP
36E0
3BB0
3330
6660
6660
6660
CCC0
CCC0
ENDCHAR
STARTCHAR n
ENCODING 110
SWIDTH 617 0
DWIDTH 9 0
BBX 9 8 1 0
BITMAP
3700
3980
3180
6300
6300
6300
C600
C600
ENDCHAR
STARTCHAR o
ENCODING 111
SWIDTH 548 0
DWIDTH 8 0
BBX 8 8 1 0
BITMAP
1E
33
63
63
C6
C6
CC
78
ENDCHAR
STARTCHAR p
ENCODING 112
SWIDTH 617 0
DWIDTH 9 0
BBX 10 11 0 -3
BITMAP
1B80
1CC0
38C0
30C0
3180
3180
7B00
6E00
6000
C000
C000
ENDCHAR
STARTCHAR q
ENCODING 113
SWIDTH 617 0
DWIDTH 9 0
BBX 9 11 1 -3
BITMAP
1D80
3380
6180
6300
C300
C300
CE00
7600
0600
0C00
0C00
ENDCHAR
STARTCHAR r
ENCODING 114
SWIDTH 411 0
DWIDTH 6 0
BBX 7 8 1 0
BITMAP
36
3E
30
60
60
60
C0
C0
ENDCHAR
STARTCHAR s
ENCODING 115
SWIDTH 548 0
DWIDTH 8 0
BBX 8 8 1 0
BITMAP
1E
33
30
1C
06
C6
CC
78
ENDCHAR
STARTCHAR t
ENCODING 116
SWIDTH 342 0
DWIDTH 5 0
BBX 6 10 1 0
BITMAP
18
18
7C
30
30
60
60
C0
C0
60
ENDCHAR
STARTCHAR u
ENCODING 117
SWIDTH 617 0
DWIDTH 9 0
BBX 9 8 1 0
BITMAP
3180
3180
6180
6300
6300
C600
CE00
7600
ENDCHAR
STARTCHAR v
ENCODING 118
SWIDTH 548 0
DWIDTH 8 0
BBX 8 8 2 0
BITMAP
C3
C3
C6
CC
CC
58
70
60
ENDCHAR
STARTCHAR w
ENCODING 119
SWIDTH 754 0
DWIDTH 11 0
BBX 10 8 2 0
BITMAP
CCC0
CCC0
CCC0
DD80
D580
7700
6600
6600
ENDCHAR
STARTCHAR x
ENCODING 120
SWIDTH 480 0
DWIDTH 7 0
BBX 9 8 0 0
BITMAP
3180
3300
1600
1C00
1C00
3400
6600
C600
ENDCHAR
STARTCHAR y
ENCODING 121
SWIDTH 480 0
DWIDTH 7 0
BBX 9 11 0 -3
BITMAP
3180
3180
3300
3300
3600
3600
1C00
1800
3000
6000
C000
ENDCHAR
STARTCHAR z
ENCODING 122
SWIDTH 411 0
DWIDTH 6 0
BBX 8 8 0 0
BITMAP
3F
06
0C
18
30
60
C0
FC
ENDCHAR
STARTCHAR braceleft
ENCODING 123
SWIDTH 411 0
DWIDTH 6 0
BBX 7 14 1 -3
BITMAP
06
0C
18
18
18
30
C0
60
60
60
C0
C0
C0
60
ENDCHAR
STARTCHAR bar
ENCODING 124
SWIDTH 274 0
DWIDTH 4 0
BBX 6 14 0 -3
BITMAP
0C
0C
0C
08
18
18
10
30
30
20
60
60
40
C0
ENDCHAR
STARTCHAR braceright
ENCODING 125
SWIDTH 411 0
DWIDTH 6 0
BBX 7 14 0 -3
BITMAP
0C
06
06
06
0C
0C
06
18
18
30
30
30
60
C0
ENDCHAR
STARTCHAR asciitilde
ENCODING 126
SWIDTH 617 0
DWIDTH 9 0
BBX 8 3 2 3
BITMAP
71
DB
8E
ENDCHAR
STARTCHAR space
ENCODING 160
SWIDTH 274 0
DWIDTH 4 0
BBX 0 0 0 0
BITMAP
ENDCHAR
STARTCHAR exclamdown
ENCODING 161
SWIDTH 342 0
DWIDTH 5 0
BBX 5 11 0 -3
BITMAP
18
18
00
10
30
30
60
60
60
C0
C0
ENDCHAR
STARTCHAR cent
ENCODING 162
SWIDTH 548 0
DWIDTH 8 0
BBX 8 10 1 -1
BITMAP
02
1E
37
68
C8
D0
D6
EC
78
40
ENDCHAR
STARTCHAR sterling
ENCODING 163
SWIDTH 617 0
DWIDTH 9 0
BBX 9 10 1 0
BITMAP
0F00
1980
1880
1800
7E00
3000
3000
6000
F300
DE00
ENDCHAR
STARTCHAR currency
ENCODING 164
SWIDTH 617 0
DWIDTH 9 0
BBX 8 6 1 2
BITMAP
63
3E
36
6C
7C
C6
ENDCHAR
STARTCHAR yen
ENCODING 165
SWIDTH 617 0
DWIDTH 9 0
BBX 9 10 2 0
BITMAP
6180
6300
6600
6C00
3800
FC00
3000
FC00
6000
6000
ENDCHAR
STARTCHAR brokenbar
ENCODING 166
SWIDTH 274 0
DWIDTH 4 0
BBX 5 13 1 -2
BITMAP
18
18
18
30
30
00
00
00
60
60
C0
C0
C0
ENDCHAR
STARTCHAR section
ENCODING 167
SWIDTH 617 0
DWIDTH 9 0
BBX 9 14 1 -3
BITMAP
0F00
1D80
1980
1800
3C00
6600
6300
6300
3300
1E00
0C00
CC00
DC00
7800
ENDCHAR
STARTCHAR dieresis
ENCODING 168
SWIDTH 342 0
DWIDTH 5 0
BBX 5 2 3 9
BITMAP
D8
D8
ENDCHAR
STARTCHAR copyright
ENCODING 169
SWIDTH 822 0
DWIDTH 12 0
BBX 11 10 2 0
BITMAP
0F00
30C0
2640
4920
5020
9140
9240
4C80
6180
1E00
ENDCHAR
STARTCHAR ordfeminine
ENCODING 170
SWIDTH 411 0
DWIDTH 6 0
BBX 6 7 1 4
BITMAP
1C
24
1C
68
78
00
F8
ENDCHAR
STARTCHAR guillemotleft
ENCODING 171
SWIDTH 754 0
DWIDTH 11 0
BBX 9 5 2 2
BITMAP
1980
7700
CC00
6600
3300
ENDCHAR
STARTCHAR logicalnot
ENCODING 172
SWIDTH 617 0
DWIDTH 9 0
BBX 7 4 2 2
BITMAP
FE
02
04
04
ENDCHAR
STARTCHAR hyphen
ENCODING 173
SWIDTH 342 0
DWIDTH 5 0
BBX 5 1 1 4
BITMAP
F8
ENDCHAR
STARTCHAR registered
ENCODING 174
SWIDTH 822 0
DWIDTH 12 0
BBX 11 10 2 0
BITMAP
0F00
30C0
2640
4920
4E20
9240
9240
4080
6180
1E00
ENDCHAR
STARTCHAR macron
ENCODING 175
SWIDTH 342 0
DWIDTH 5 0
BBX 5 1 3 10
BITMAP
F8
ENDCHAR
STARTCHAR degree
ENCODING 176
SWIDTH 411 0
DWIDTH 6 0
BBX 4 4 3 6
BITMAP
60
90
90
60
ENDCHAR
STARTCHAR plusminus
ENCODING 177
SWIDTH 617 0
DWIDTH 9 0
BBX 8 9 1 0
BITMAP
0C
0C
0C
7F
18
18
18
00
FE
ENDCHAR
STARTCHAR twosuperior
ENCODING 178
SWIDTH 342 0
DWIDTH 5 0
BBX 4 6 2 4
BITMAP
60
B0
30
60
C0
F0
ENDCHAR
STARTCHAR threesuperior
ENCODING 179
SWIDTH 342 0
DWIDTH 5 0
BBX 5 6 1 4
BITMAP
70
18
70
18
98
F0
ENDCHAR
STARTCHAR acute
ENCODING 180
SWIDTH 342 0
DWIDTH 5 0
BBX 3 2 4 9
BITMAP
60
C0
ENDCHAR
STARTCHAR mu
ENCODING 181
SWIDTH 617 0
DWIDTH 9 0
BBX 10 11 0 -3
BITMAP
18C0
18C0
30C0
3180
3180
6300
6700
7B00
C000
C000
C000
ENDCHAR
STARTCHAR paragraph
ENCODING 182
SWIDTH 548 0
DWIDTH 8 0
BBX 8 14 2 -3
BITMAP
1F
3A
7A
F4
F4
F4
68
28
28
50
50
50
A0
A0
ENDCHAR
STARTCHAR periodcentered
ENCODING 183
SWIDTH 274 0
DWIDTH 4 0
BBX 2 2 2 3
BITMAP
C0
C0
ENDCHAR
STARTCHAR cedilla
ENCODING 184
SWIDTH 342 0
DWIDTH 5 0
BBX 5 4 -1 -3
BITMAP
30
18
D8
70
ENDCHAR
STARTCHAR onesuperior
ENCODING 185
SWIDTH 342 0
DWIDTH 5 0
BBX 4 6 2 4
BITMAP
30
F0
30
60
60
60
ENDCHAR
STARTCHAR ordmasculine
ENCODING 186
SWIDTH 411 0
DWIDTH 6 0
BBX 7 7 1 4
BITMAP
1C
36
66
6C
38
00
F8
ENDCHAR
STARTCHAR guillemotright
ENCODING 187
SWIDTH 754 0
DWIDTH 11 0
BBX 9 5 2 2
BITMAP
6600
3300
1980
7700
CC00
ENDCHAR
STARTCHAR onequarter
ENCODING 188
SWIDTH 822 0
DWIDTH 12 0
BBX 11 10 2 0
BITMAP
30C0
F180
3300
6200
6660
6CE0
0940
1AC0
33E0
60C0
ENDCHAR
STARTCHAR onehalf
ENCODING 189
SWIDTH 822 0
DWIDTH 12 0
BBX 11 10 1 0
BITMAP
30C0
F180
3300
6200
66C0
6D60
0860
18C0
3180
61E0
ENDCHAR
STARTCHAR threequarters
ENCODING 190
SWIDTH 891 0
DWIDTH 13 0
BBX 12 10 1 0
BITMAP
7060
18C0
7180
1900
9B30
F670
04A0
0D60
19F0
3060
ENDCHAR
STARTCHAR questiondown
ENCODING 191
SWIDTH 548 0
DWIDTH 8 0
BBX 7 11 0 -3
BITMAP
06
06
00
0C
0C
18
70
C0
C6
CC
78
ENDCHAR
STARTCHAR Agrave
ENCODING 192
SWIDTH 617 0
DWIDTH 9 0
BBX 9 14 0 0
BITMAP
0600
0300
0000
0300
0700
0D80
0D80
1980
1980
3180
7F80
6180
C180
C180
ENDCHAR
STARTCHAR Aacute
ENCODING 193
SWIDTH 617 0
DWIDTH 9 0
BBX 10 14 0 0
BITMAP
00C0
0180
0000
0300
0700
0D80
0D80
1980
1980
3180
7F80
6180
C180
C180
ENDCHAR
STARTCHAR Acircumflex
ENCODING 194
SWIDTH 617 0
DWIDTH 9 0
BBX 10 14 0 0
BITMAP
0380
06C0
0000
0300
0700
0D80
0D80
1980
1980
3180
7F80
6180
C180
C180
ENDCHAR
STARTCHAR Atilde
ENCODING 195
SWIDTH 617 0
DWIDTH 9 0
BBX 10 14 0 0
BITMAP
0340
0580
0000
0300
0700
0D80
0D80
1980
1980
3180
7F80
6180
C180
C180
ENDCHAR
STARTCHAR Adieresis
ENCODING 196
SWIDTH 617 0
DWIDTH 9 0
BBX 10 14 0 0
BITMAP
06C0
06C0
0000
0300
0700
0D80
0D80
1980
1980
3180
7F80
6180
C180
C180
ENDCHAR
STARTCHAR Aring
ENCODING 197
SWIDTH 617 0
DWIDTH 9 0
BBX 10 14 0 0
BITMAP
0380
06C0
0380
0300
0700
0D80
0D80
1980
1980
3180
7F80
6180
C180
C180
ENDCHAR
STARTCHAR AE
ENCODING 198
SWIDTH 960 0
DWIDTH 14 0
BBX 17 11 0 0
BITMAP
03FF80
066000
0C6000
0CC000
18C000
18FE00
318000
7F8000
618000
C30000
C3FC00
ENDCHAR
STARTCHAR Ccedilla
ENCODING 199
SWIDTH 754 0
DWIDTH 11 0
BBX 10 14 2 -3
BITMAP
0780
1CC0
30C0
6000
6000
C000
C000
C000
C180
6700
3C00
1000
D800
7000
ENDCHAR
STARTCHAR Egrave
ENCODING 200
SWIDTH 617 0
DWIDTH 9 0
BBX 10 14 1 0
BITMAP
0600
0300
0000
1FC0
1800
1800
3000
3000
3F80
6000
6000
6000
C000
FE00
ENDCHAR
STARTCHAR Eacute
ENCODING 201
SWIDTH 617 0
DWIDTH 9 0
BBX 10 14 1 0
BITMAP
0180
0300
0000
1FC0
1800
1800
3000
3000
3F80
6000
6000
6000
C000
FE00
ENDCHAR
STARTCHAR Ecircumflex
ENCODING 202
SWIDTH 617 0
DWIDTH 9 0
BBX 10 14 1 0
BITMAP
0380
06C0
0000
1FC0
1800
1800
3000
3000
3F80
6000
6000
6000
C000
FE00
ENDCHAR
STARTCHAR Edieresis
ENCODING 203
SWIDTH 617 0
DWIDTH 9 0
BBX 10 14 1 0
BITMAP
0D80
0D80
0000
1FC0
1800
1800
3000
3000
3F80
6000
6000
6000
C000
FE00
ENDCHAR
STARTCHAR Igrave
ENCODING 204
SWIDTH 274 0
DWIDTH 4 0
BBX 5 14 1 0
BITMAP
30
18
00
18
18
18
30
30
30
60
60
60
C0
C0
ENDCHAR
STARTCHAR Iacute
ENCODING 205
SWIDTH 274 0
DWIDTH 4 0
BBX 7 14 1 0
BITMAP
06
0C
00
18
18
18
30
30
30
60
60
60
C0
C0
ENDCHAR
STARTCHAR Icircumflex
ENCODING 206
SWIDTH 274 0
DWIDTH 4 0
BBX 7 14 1 0
BITMAP
1C
36
00
18
18
18
30
30
30
60
60
60
C0
C0
ENDCHAR
STARTCHAR Idieresis
ENCODING 207
SWIDTH 274 0
DWIDTH 4 0
BBX 7 14 1 0
BITMAP
36
36
00
18
18
18
30
30
30
60
60
60
C0
C0
ENDCHAR
STARTCHAR Eth
ENCODING 208
SWIDTH 754 0
DWIDTH 11 0
BBX 12 11 0 0
BITMAP
0FC0
0C60
0C30
1830
1830
FE30
3060
3060
60C0
6380
7E00
ENDCHAR
STARTCHAR Ntilde
ENCODING 209
SWIDTH 754 0
DWIDTH 11 0
BBX 12 14 1 0
BITMAP
0340
0580
0000
1830
1830
1C30
3C60
3460
3660
66C0
66C0
63C0
C180
C180
ENDCHAR
STARTCHAR Ograve
ENCODING 210
SWIDTH 822 0
DWIDTH 12 0
BBX 11 14 2 0
BITMAP
0300
0180
0000
0780
1CC0
3060
6060
C060
C060
C0C0
C0C0
C180
6700
3C00
ENDCHAR
STARTCHAR Oacute
ENCODING 211
SWIDTH 822 0
DWIDTH 12 0
BBX 11 14 2 0
BITMAP
00C0
0180
0000
0780
1CC0
3060
6060
C060
C060
C0C0
C0C0
C180
6700
3C00
ENDCHAR
STARTCHAR Ocircumflex
ENCODING 212
SWIDTH 822 0
DWIDTH 12 0
BBX 11 14 2 0
BITMAP
01C0
0360
0000
0780
1CC0
3060
6060
C060
C060
C0C0
C0C0
C180
6700
3C00
ENDCHAR
STARTCHAR Otilde
ENCODING 213
SWIDTH 822 0
DWIDTH 12 0
BBX 11 14 2 0
BITMAP
01A0
02C0
0000
0780
1CC0
3060
6060
C060
C060
C0C0
C0C0
C180
6700
3C00
ENDCHAR
STARTCHAR Odieresis
ENCODING 214
SWIDTH 822 0
DWIDTH 12 0
BBX 11 14 2 0
BITMAP
06C0
06C0
0000
0780
1CC0
3060
6060
C060
C060
C0C0
C0C0
C180
6700
3C00
ENDCHAR
STARTCHAR multiply
ENCODING 215
SWIDTH 617 0
DWIDTH 9 0
BBX 9 7 1 1
BITMAP
6180
3300
1E00
1C00
3C00
6600
C300
ENDCHAR
STARTCHAR Oslash
ENCODING 216
SWIDTH 822 0
DWIDTH 12 0
BBX 15 11 0 0
BITMAP
01E6
073C
0C38
1878
18D8
3398
3630
3C30
3860
79C0
CF00
ENDCHAR
STARTCHAR Ugrave
ENCODING 217
SWIDTH 754 0
DWIDTH 11 0
BBX 11 14 2 0
BITMAP
0600
0300
0000
3060
3060
3060
60C0
60C0
60C0
C180
C180
C180
C300
7E00
ENDCHAR
STARTCHAR Uacute
ENCODING 218
SWIDTH 754 0
DWIDTH 11 0
BBX 11 14 2 0
BITMAP
0180
0300
0000
3060
3060
3060
60C0
60C0
60C0
C180
C180
C180
C300
7E00
ENDCHAR
STARTCHAR Ucircumflex
ENCODING 219
SWIDTH 754 0
DWIDTH 11 0
BBX 11 14 2 0
BITMAP
0700
0D80
0000
3060
3060
3060
60C0
60C0
60C0
C180
C180
C180
C300
7E00
ENDCHAR
STARTCHAR Udieresis
ENCODING 220
SWIDTH 754 0
DWIDTH 11 0
BBX 11 14 2 0
BITMAP
0D80
0D80
0000
3060
3060
3060
60C0
60C0
60C0
C180
C180
C180
C300
7E00
ENDCHAR
STARTCHAR Yacute
ENCODING 221
SWIDTH 685 0
DWIDTH 10 0
BBX 10 14 3 0
BITMAP
0600
0C00
0000
C0C0
C180
C300
6600
6C00
7800
3000
3000
6000
6000
6000
ENDCHAR
STARTCHAR Thorn
ENCODING 222
SWIDTH 685 0
DWIDTH 10 0
BBX 9 11 1 0
BITMAP
1800
1800
1F00
3180
3180
3180
6300
7E00
6000
C000
C000
ENDCHAR
STARTCHAR germandbls
ENCODING 223
SWIDTH 617 0
DWIDTH 9 0
BBX 9 11 1 0
BITMAP
0F00
1980
1980
3300
3600
3300
6300
6300
6300
C600
DC00
ENDCHAR
STARTCHAR agrave
ENCODING 224
SWIDTH 548 0
DWIDTH 8 0
BBX 8 11 1 0
BITMAP
18
0C
00
1E
33
03
3E
66
C6
CC
76
ENDCHAR
STARTCHAR aacute
ENCODING 225
SWIDTH 548 0
DWIDTH 8 0
BBX 8 11 1 0
BITMAP
03
06
00
1E
33
03
3E
66
C6
CC
76
ENDCHAR
STARTCHAR acircumflex
ENCODING 226
SWIDTH 548 0
DWIDTH 8 0
BBX 8 11 1 0
BITMAP
0E
1B
00
1E
33
03
3E
66
C6
CC
76
ENDCHAR
STARTCHAR atilde
ENCODING 227
SWIDTH 548 0
DWIDTH 8 0
BBX 8 11 1 0
BITMAP
0D
16
00
1E
33
03
3E
66
C6
CC
76
ENDCHAR
STARTCHAR adieresis
ENCODING 228
SWIDTH 548 0
DWIDTH 8 0
BBX 8 11 1 0
BITMAP
1B
1B
00
1E
33
03
3E
66
C6
CC
76
ENDCHAR
STARTCHAR aring
ENCODING 229
SWIDTH 548 0
DWIDTH 8 0
BBX 8 11 1 0
BITMAP
0E
1B
0E
1E
33
03
3E
66
C6
CC
76
ENDCHAR
STARTCHAR ae
ENCODING 230
SWIDTH 891 0
DWIDTH 13 0
BBX 13 8 1 0
BITMAP
1EF0
3398
0318
3FF0
6600
C600
CE60
77C0
ENDCHAR
STARTCHAR ccedilla
ENCODING 231
SWIDTH 548 0
DWIDTH 8 0
BBX 9 11 0 -3
BITMAP
0F00
1980
3180
3000
6000
6300
6600
3C00
1000
D800
7000
ENDCHAR
STARTCHAR egrave
ENCODING 232
SWIDTH 548 0
DWIDTH 8 0
BBX 8 11 1 0
BITMAP
18
0C
00
1E
33
63
7E
C0
C0
CC
78
ENDCHAR
STARTCHAR eacute
ENCODING 233
SWIDTH 548 0
DWIDTH 8 0
BBX 8 11 1 0
BITMAP
03
06
00
1E
33
63
7E
C0
C0
CC
78
ENDCHAR
STARTCHAR ecircumflex
ENCODING 234
SWIDTH 548 0
DWIDTH 8 0
BBX 8 11 1 0
BITMAP
0E
1B
00
1E
33
63
7E
C0
C0
CC
78
ENDCHAR
STARTCHAR edieresis
ENCODING 235
SWIDTH 548 0
DWIDTH 8 0
BBX 8 11 1 0
BITMAP
1B
1B
00
1E
33
63
7E
C0
C0
CC
78
ENDCHAR
STARTCHAR igrave
ENCODING 236
SWIDTH 274 0
DWIDTH 4 0
BBX 4 11 1 0
BITMAP
60
30
00
30
30
30
60
60
60
C0
C0
ENDCHAR
STARTCHAR iacute
ENCODING 237
SWIDTH 274 0
DWIDTH 4 0
BBX 5 11 1 0
BITMAP
18
30
00
30
30
30
60
60
60
C0
C0
ENDCHAR
STARTCHAR icircumflex
ENCODING 238
SWIDTH 274 0
DWIDTH 4 0
BBX 6 11 1 0
BITMAP
38
6C
00
30
30
30
60
60
60
C0
C0
ENDCHAR
STARTCHAR idieresis
ENCODING 239
SWIDTH 274 0
DWIDTH 4 0
BBX 6 11 1 0
BITMAP
6C
6C
00
30
30
30
60
60
60
C0
C0
ENDCHAR
STARTCHAR eth
ENCODING 240
SWIDTH 548 0
DWIDTH 8 0
BBX 8 12 1 0
BITMAP
31
1E
1C
26
1F
33
63
63
C6
C6
CC
78
ENDCHAR
STARTCHAR ntilde
ENCODING 241
SWIDTH 617 0
DWIDTH 9 0
BBX 9 11 1 0
BITMAP
0680
0B00
0000
3700
3980
3180
6300
6300
6300
C600
C600
ENDCHAR
STARTCHAR ograve
ENCODING 242
SWIDTH 548 0
DWIDTH 8 0
BBX 8 11 1 0
BITMAP
18
0C
00
1E
33
63
63
C6
C6
CC
78
ENDCHAR
STARTCHAR oacute
ENCODING 243
SWIDTH 548 0
DWIDTH 8 0
BBX 8 11 1 0
BITMAP
03
06
00
1E
33
63
63
C6
C6
CC
78
ENDCHAR
STARTCHAR ocircumflex
ENCODING 244
SWIDTH 548 0
DWIDTH 8 0
BBX 8 11 1 0
BITMAP
0E
1B
00
1E
33
63
63
C6
C6
CC
78
ENDCHAR
STARTCHAR otilde
ENCODING 245
SWIDTH 548 0
DWIDTH 8 0
BBX 8 11 1 0
BITMAP
0D
16
00
1E
33
63
63
C6
C6
CC
78
ENDCHAR
STARTCHAR odieresis
ENCODING 246
SWIDTH 548 0
DWIDTH 8 0
BBX 8 11 1 0
BITMAP
1B
1B
00
1E
33
63
63
C6
C6
CC
78
ENDCHAR
STARTCHAR divide
ENCODING 247
SWIDTH 617 0
DWIDTH 9 0
BBX 7 7 2 1
BITMAP
18
18
00
FE
00
30
30
ENDCHAR
STARTCHAR oslash
ENCODING 248
SWIDTH 548 0
DWIDTH 8 0
BBX 10 8 0 0
BITMAP
0F40
1980
3380
3580
6B00
7300
6600
BC00
ENDCHAR
STARTCHAR ugrave
ENCODING 249
SWIDTH 617 0
DWIDTH 9 0
BBX 9 11 1 0
BITMAP
0C00
0600
0000
3180
3180
6180
6300
6300
C600
CE00
7600
ENDCHAR
STARTCHAR uacute
ENCODING 250
SWIDTH 617 0
DWIDTH 9 0
BBX 9 11 1 0
BITMAP
0300
0600
0000
3180
3180
6180
6300
6300
C600
CE00
7600
ENDCHAR
STARTCHAR ucircumflex
ENCODING 251
SWIDTH 617 0
DWIDTH 9 0
BBX 9 11 1 0
BITMAP
0E00
1B00
0000
3180
3180
6180
6300
6300
C600
CE00
7600
ENDCHAR
STARTCHAR udieresis
ENCODING 252
SWIDTH 617 0
DWIDTH 9 0
BBX 9 11 1 0
BITMAP
1B00
1B00
0000
3180
3180
6180
6300
6300
C600
CE00
7600
ENDCHAR
STARTCHAR yacute
ENCODING 253
SWIDTH 480 0
DWIDTH 7 0
BBX 9 14 0 -3
BITMAP
0300
0600
0000
3180
3180
3300
3300
3600
3600
1C00
1800
3000
6000
C000
ENDCHAR
STARTCHAR thorn
ENCODING 254
SWIDTH 617 0
DWIDTH 9 0
BBX 10 14 0 -3
BITMAP
0C00
0C00
1800
1B80
1CC0
38C0
30C0
3180
3180
7B00
6E00
6000
C000
C000
ENDCHAR
STARTCHAR ydieresis
ENCODING 255
SWIDTH 480 0
DWIDTH 7 0
BBX 9 14 0 -3
BITMAP
1B00
1B00
0000
3180
3180
3300
3300
3600
3600
1C00
1800
3000
6000
C000
ENDCHAR
STARTCHAR OE
ENCODING 338
SWIDTH 1028 0
DWIDTH 15 0
BBX 15 11 2 0
BITMAP
07FE
1CC0
30C0
6180
6180
C1FC
C300
C300
C300
6600
3FF0
ENDCHAR
STARTCHAR oe
ENCODING 339
SWIDTH 891 0
DWIDTH 13 0
BBX 13 8 1 0
BITMAP
1EF0
3398
6318
63F0
C600
C600
CE60
7FC0
ENDCHAR
STARTCHAR Scaron
ENCODING 352
SWIDTH 685 0
DWIDTH 10 0
BBX 10 14 1 0
BITMAP
0D80
0700
0000
0780
18C0
30C0
3800
1E00
0700
0380
0180
C180
C300
7C00
ENDCHAR
STARTCHAR scaron
ENCODING 353
SWIDTH 548 0
DWIDTH 8 0
BBX 8 11 1 0
BITMAP
1B
0E
00
1E
33
30
1C
06
C6
CC
78
ENDCHAR
STARTCHAR Ydieresis
ENCODING 376
SWIDTH 685 0
DWIDTH 10 0
BBX 10 13 3 0
BITMAP
3300
3300
C0C0
C180
C300
6600
6C00
7800
3000
3000
6000
6000
6000
ENDCHAR
STARTCHAR Zcaron
ENCODING 381
SWIDTH 617 0
DWIDTH 9 0
BBX 11 14 0 0
BITMAP
0D80
0700
0000
1FE0
00C0
0180
0300
0600
0C00
1800
3000
6000
C000
FF00
ENDCHAR
STARTCHAR zcaron
ENCODING 382
SWIDTH 411 0
DWIDTH 6 0
BBX 8 11 0 0
BITMAP
1B
0E
00
3F
06
0C
18
30
60
C0
FC
ENDCHAR
STARTCHAR circumflex
ENCODING 710
SWIDTH 342 0
DWIDTH 5 0
BBX 5 2 3 9
BITMAP
70
D8
ENDCHAR
STARTCHAR tilde
ENCODING 732
SWIDTH 342 0
DWIDTH 5 0
BBX 5 2 3 9
BITMAP
68
B0
ENDCHAR
STARTCHAR A
ENCODING 913
SWIDTH 822 0
DWIDTH 12 0
BBX 12 11 1 0
BITMAP
0300
0300
0780
0780
1980
1980
30C0
3FC0
6180
C0C0
C0C0
ENDCHAR
STARTCHAR B
ENCODING 914
SWIDTH 617 0
DWIDTH 9 0
BBX 10 11 1 0
BITMAP
3F80
31C0
30C0
30C0
6180
7F00
6180
6180
C300
C300
FE00
ENDCHAR
STARTCHAR Gamma
ENCODING 915
SWIDTH 548 0
DWIDTH 8 0
BBX 9 11 1 0
BITMAP
3F80
3000
3000
3000
6000
6000
6000
6000
C000
C000
C000
ENDCHAR
STARTCHAR Delta
ENCODING 916
SWIDTH 754 0
DWIDTH 11 0
BBX 12 11 1 0
BITMAP
0300
0300
0780
0780
1980
1980
30C0
30C0
6180
C0C0
FFC0
ENDCHAR
STARTCHAR E
ENCODING 917
SWIDTH 617 0
DWIDTH 9 0
BBX 10 11 1 0
BITMAP
3FC0
3000
3000
3000
6000
7F00
6000
6000
C000
C000
FF00
ENDCHAR
STARTCHAR Z
ENCODING 918
SWIDTH 617 0
DWIDTH 9 0
BBX 10 11 1 0
BITMAP
3FC0
00C0
0180
0300
0E00
0C00
1800
3800
6000
C000
FF00
ENDCHAR
STARTCHAR H
ENCODING 919
SWIDTH 685 0
DWIDTH 10 0
BBX 11 11 1 0
BITMAP
3060
3060
3060
3060
60C0
7FC0
60C0
60C0
C180
C180
C180
ENDCHAR
STARTCHAR Theta
ENCODING 920
SWIDTH 685 0
DWIDTH 10 0
BBX 11 11 1 0
BITMAP
0F80
18C0
3060
3060
60C0
7FC0
60C0
60C0
C180
6300
3E00
ENDCHAR
STARTCHAR I
ENCODING 921
SWIDTH 342 0
DWIDTH 5 0
BBX 6 11 1 0
BITMAP
3C
18
18
18
30
30
30
30
60
60
F0
ENDCHAR
STARTCHAR K
ENCODING 922
SWIDTH 685 0
DWIDTH 10 0
BBX 11 11 1 0
BITMAP
30C0
3180
3300
3600
7800
7800
6C00
6600
C600
C300
C180
ENDCHAR
STARTCHAR Lambda
ENCODING 923
SWIDTH 754 0
DWIDTH 11 0
BBX 12 11 1 0
BITMAP
0300
0300
0780
0780
1980
1980
30C0
30C0
6180
C0C0
C0C0
ENDCHAR
STARTCHAR M
ENCODING 924
SWIDTH 891 0
DWIDTH 13 0
BBX 14 11 1 0
BITMAP
300C
300C
381C
3C3C
7878
6CD8
6CD8
6798
CF30
C630
C630
ENDCHAR
STARTCHAR N
ENCODING 925
SWIDTH 685 0
DWIDTH 10 0
BBX 11 11 1 0
BITMAP
3860
3860
3C60
3660
6CC0
66C0
66C0
63C0
C780
C380
C380
ENDCHAR
STARTCHAR Xi
ENCODING 926
SWIDTH 617 0
DWIDTH 9 0
BBX 10 11 1 0
BITMAP
3FC0
0000
0000
0000
0000
3F00
0000
0000
0000
0000
FF00
ENDCHAR
STARTCHAR O
ENCODING 927
SWIDTH 754 0
DWIDTH 11 0
BBX 12 11 1 0
BITMAP
0780
1CE0
1860
3030
6060
6060
6060
6060
6180
7380
1E00
ENDCHAR
STARTCHAR Pi
ENCODING 928
SWIDTH 685 0
DWIDTH 10 0
BBX 11 11 1 0
BITMAP
3FE0
18C0
18C0
18C0
3180
3180
3180
3180
6300
6300
6300
ENDCHAR
STARTCHAR P
ENCODING 929
SWIDTH 617 0
DWIDTH 9 0
BBX 10 11 1 0
BITMAP
3F80
31C0
30C0
30C0
6380
7F00
6000
6000
C000
C000
C000
ENDCHAR
STARTCHAR Sigma
ENCODING 931
SWIDTH 617 0
DWIDTH 9 0
BBX 10 11 1 0
BITMAP
3FC0
3000
1800
0C00
0C00
0600
0C00
1800
6000
C000
FF00
ENDCHAR
STARTCHAR T
ENCODING 932
SWIDTH 617 0
DWIDTH 9 0
BBX 12 11 0 0
BITMAP
3FF0
0300
0300
0300
0600
0600
0600
0600
0C00
0C00
0C00
ENDCHAR
STARTCHAR Y
ENCODING 933
SWIDTH 617 0
DWIDTH 9 0
BBX 12 11 0 0
BITMAP
3030
1860
1860
0CC0
1980
0F00
0600
0600
0C00
0C00
0C00
ENDCHAR
STARTCHAR Phi
ENCODING 934
SWIDTH 617 0
DWIDTH 9 0
BBX 10 11 1 0
BITMAP
0600
1F80
36C0
36C0
6D80
6D80
6D80
6D80
DB00
7E00
1800
ENDCHAR
STARTCHAR X
ENCODING 935
SWIDTH 685 0
DWIDTH 10 0
BBX 11 11 1 0
BITMAP
3060
3060
18C0
0D80
0E00
0E00
1B00
3180
6300
C180
C180
ENDCHAR
STARTCHAR Psi
ENCODING 936
SWIDTH 617 0
DWIDTH 9 0
BBX 10 11 1 0
BITMAP
36C0
36C0
36C0
36C0
6D80
6D80
6D80
3F00
1800
1800
1800
ENDCHAR
STARTCHAR Omega
ENCODING 937
SWIDTH 822 0
DWIDTH 12 0
BBX 13 11 1 0
BITMAP
0FE0
1830
3018
3018
6030
6030
6030
3060
3B80
1B00
FBE0
ENDCHAR
STARTCHAR endash
ENCODING 8211
SWIDTH 548 0
DWIDTH 8 0
BBX 8 1 1 4
BITMAP
FF
ENDCHAR
STARTCHAR emdash
ENCODING 8212
SWIDTH 1028 0
DWIDTH 15 0
BBX 15 1 1 4
BITMAP
FFFE
ENDCHAR
STARTCHAR quoteleft
ENCODING 8216
SWIDTH 342 0
DWIDTH 5 0
BBX 3 3 4 8
BITMAP
60
C0
E0
ENDCHAR
STARTCHAR quoteright
ENCODING 8217
SWIDTH 342 0
DWIDTH 5 0
BBX 3 3 4 8
BITMAP
E0
60
C0
ENDCHAR
STARTCHAR quotesinglbase
ENCODING 8218
SWIDTH 274 0
DWIDTH 4 0
BBX 3 3 1 -2
BITMAP
E0
60
C0
ENDCHAR
STARTCHAR quotereversed
ENCODING 8219
SWIDTH 342 0
DWIDTH 5 0
BBX 3 3 4 8
BITMAP
E0
C0
60
ENDCHAR
STARTCHAR quotedblleft
ENCODING 8220
SWIDTH 480 0
DWIDTH 7 0
BBX 6 3 3 8
BITMAP
6C
D8
FC
ENDCHAR
STARTCHAR quotedblright
ENCODING 8221
SWIDTH 480 0
DWIDTH 7 0
BBX 6 3 4 8
BITMAP
FC
6C
D8
ENDCHAR
STARTCHAR quotedblbase
ENCODING 8222
SWIDTH 480 0
DWIDTH 7 0
BBX 6 3 0 -2
BITMAP
FC
6C
D8
ENDCHAR
STARTCHAR uni201F
ENCODING 8223
SWIDTH 480 0
DWIDTH 7 0
BBX 6 3 4 8
BITMAP
FC
D8
6C
ENDCHAR
STARTCHAR dagger
ENCODING 8224
SWIDTH 548 0
DWIDTH 8 0
BBX 8 14 2 -3
BITMAP
0C
0C
18
18
FF
18
30
30
30
60
60
60
C0
C0
ENDCHAR
STARTCHAR daggerdbl
ENCODING 8225
SWIDTH 548 0
DWIDTH 8 0
BBX 10 14 0 -3
BITMAP
0300
0300
0600
0600
3FC0
0600
0C00
0C00
0C00
FF00
1800
1800
3000
3000
ENDCHAR
STARTCHAR bullet
ENCODING 8226
SWIDTH 411 0
DWIDTH 6 0
BBX 4 4 2 2
BITMAP
60
F0
F0
60
ENDCHAR
STARTCHAR ellipsis
ENCODING 8230
SWIDTH 1028 0
DWIDTH 15 0
BBX 12 2 2 0
BITMAP
C630
C630
ENDCHAR
STARTCHAR perthousand
ENCODING 8240
SWIDTH 1097 0
DWIDTH 16 0
BBX 14 10 1 0
BITMAP
1860
34C0
2D80
1B00
0600
0C00
1B18
36B4
65AC
C318
ENDCHAR
STARTCHAR guilsinglleft
ENCODING 8249
SWIDTH 480 0
DWIDTH 7 0
BBX 5 5 2 2
BITMAP
18
70
C0
60
30
ENDCHAR
STARTCHAR guilsinglright
ENCODING 8250
SWIDTH 480 0
DWIDTH 7 0
BBX 5 5 2 2
BITMAP
60
30
18
70
C0
ENDCHAR
STARTCHAR uni20A5
ENCODING 8357
SWIDTH 822 0
DWIDTH 12 0
BBX 12 11 1 -1
BITMAP
00C0
0080
37E0
3BB0
3330
6660
6660
6660
CCC0
CCC0
1800
ENDCHAR
STARTCHAR uni20A6
ENCODING 8358
SWIDTH 754 0
DWIDTH 11 0
BBX 12 11 1 0
BITMAP
1830
1830
1C30
3C60
3FE0
3660
7FC0
66C0
63C0
C180
C180
ENDCHAR
STARTCHAR uni20A9
ENCODING 8361
SWIDTH 960 0
DWIDTH 14 0
BBX 13 11 3 0
BITMAP
C618
C618
C630
CE30
CFE0
CA60
DFC0
D2C0
7380
6380
6300
ENDCHAR
STARTCHAR Euro
ENCODING 8364
SWIDTH 754 0
DWIDTH 11 0
BBX 12 11 0 0
BITMAP
01E0
0730
0C30
1800
7F00
3000
FE00
3000
3060
19C0
0F00
ENDCHAR
STARTCHAR uni20AD
ENCODING 8365
SWIDTH 685 0
DWIDTH 10 0
BBX 11 11 1 0
BITMAP
1860
18C0
1980
3300
3600
FFE0
7600
6600
6300
C300
C180
ENDCHAR
ENDFONT
